<?xml version="1.0" standalone="no"?>
<!DOCTYPE svg PUBLIC "-//W3C//DTD SVG 1.1//EN" "http://www.w3.org/Graphics/SVG/1.1/DTD/svg11.dtd" >
<svg xmlns="http://www.w3.org/2000/svg">
<metadata>
Copyright (c) 2013 by Fontsmith Ltd. All rights reserved.
</metadata>
<defs>
<font id="JLREmericWeb" horiz-adv-x="612" >
  <font-face 
    font-family="JLR Emeric Web"
    font-weight="400"
    font-stretch="normal"
    units-per-em="1000"
    panose-1="2 0 5 3 4 0 0 2 0 4"
    ascent="731"
    descent="-269"
    x-height="488"
    cap-height="663"
    bbox="-84 -269 1228 1048.55"
    underline-thickness="50"
    underline-position="-50"
    unicode-range="U+000D-FB04"
  />
<missing-glyph horiz-adv-x="594" 
d="M65 650h464v-650h-464v650zM455 604h-316l159 -237zM483 88v474l-158 -237zM455 47l-157 236l-159 -236h316zM112 88l157 237l-157 237v-474z" />
    <glyph glyph-name="fi" unicode="fi" horiz-adv-x="567" 
d="M2 470l89 16q-5 17 -8.5 36.5t-3.5 38.5q0 40 15 69.5t39.5 49t55.5 28.5t64 9q41 0 81.5 -12.5t74.5 -33.5l-20 -50l-38 8q-24 5 -47.5 8.5t-40.5 3.5q-46 0 -71.5 -21.5t-25.5 -66.5q0 -17 3 -34.5t8 -30.5h179v-68h-174v-420h-88v420h-92v50zM411 488h88v-488h-88v488
z" />
    <glyph glyph-name="fl" unicode="fl" horiz-adv-x="600" 
d="M593 14q-15 -7 -40 -12t-45 -5q-42 0 -66 24t-24 71v617h88v-637l87 -14v-44zM243 717q31 0 63.5 -9t63.5 -27l-15 -52l-28 5q-41 7 -71 7q-43 0 -66.5 -20t-23.5 -66q0 -15 3 -34.5t8 -32.5h176v-68h-171v-420h-88v420h-92v50l89 16q-5 17 -8.5 37.5t-3.5 39.5
q0 38 14 67t36.5 48.5t52 29t61.5 9.5z" />
    <glyph glyph-name="f_f" unicode="ff" horiz-adv-x="684" 
d="M369 625l-32 6q-23 5 -44 7.5t-38 2.5q-43 0 -66 -20t-23 -66q0 -15 3 -34.5t8 -32.5h249q-5 17 -8 37t-3 38q0 39 14 68t37 48t53 28.5t63 9.5q37 0 78 -12t74 -32l-20 -51l-38 8q-21 5 -42.5 8t-41.5 3q-43 0 -66.5 -20t-23.5 -66q0 -15 3 -34.5t8 -32.5h179v-68h-174
v-420h-88v420h-248v-420h-88v420h-92v50l89 16q-5 17 -8.5 37.5t-3.5 39.5q0 39 13.5 68t36.5 48t53 28.5t63 9.5q34 0 71 -10t69 -29z" />
    <glyph glyph-name="f_f_i" unicode="ffi" horiz-adv-x="903" 
d="M166 555q0 -15 3 -34.5t8 -32.5h249q-5 16 -8 35.5t-3 37.5q0 40 15 69.5t39.5 49t55.5 28.5t64 9q41 0 81.5 -12.5t74.5 -33.5l-20 -50l-38 8q-24 5 -47.5 8.5t-40.5 3.5q-46 0 -71.5 -21.5t-25.5 -66.5q0 -17 3 -34.5t8 -30.5h179v-68h-174v-420h-88v420h-248v-420h-88
v420h-92v50l89 16q-5 17 -8.5 37.5t-3.5 39.5q0 39 13.5 68t36.5 48t53 28.5t63 9.5q34 0 71 -10t69 -29l-16 -53l-32 6q-23 5 -44 7.5t-38 2.5q-43 0 -66 -20t-23 -66zM747 488h88v-488h-88v488z" />
    <glyph glyph-name="f_f_l" unicode="ffl" horiz-adv-x="936" 
d="M166 555q0 -15 3 -34.5t8 -32.5h249q-5 17 -8 37t-3 38q0 38 14 67t36.5 48.5t52 29t61.5 9.5q31 0 63.5 -9t63.5 -27l-15 -52l-28 5q-41 7 -71 7q-43 0 -66.5 -20t-23.5 -66q0 -15 3 -34.5t8 -32.5h176v-68h-171v-420h-88v420h-248v-420h-88v420h-92v50l89 16
q-5 17 -8.5 37.5t-3.5 39.5q0 39 13.5 68t36.5 48t53 28.5t63 9.5q34 0 71 -10t69 -29l-16 -53l-32 6q-23 5 -44 7.5t-38 2.5q-43 0 -66 -20t-23 -66zM929 14q-15 -7 -40 -12t-45 -5q-42 0 -66 24t-24 71v617h88v-637l87 -14v-44z" />
    <glyph glyph-name="f_j" unicode="fj" horiz-adv-x="567" 
d="M2 470l89 16q-5 17 -8.5 36.5t-3.5 38.5q0 40 15 69.5t39.5 49t55.5 28.5t64 9q41 0 81.5 -12.5t74.5 -33.5l-20 -50l-38 8q-24 5 -47.5 8.5t-40.5 3.5q-46 0 -71.5 -21.5t-25.5 -66.5q0 -17 3 -34.5t8 -30.5h179v-68h-174v-420h-88v420h-92v50zM499 -74
q0 -40 -8.5 -70.5t-29.5 -52.5q-36 -36 -105 -36q-17 0 -38 2.5t-35 6.5v46l50 9q23 5 38 10t24 14q9 10 12.5 25t3.5 41v567h88v-562z" />
    <glyph glyph-name="f_f_j" unicode="ffj" horiz-adv-x="903" 
d="M166 555q0 -15 3 -34.5t8 -32.5h249q-5 16 -8 35.5t-3 37.5q0 40 15 69.5t39.5 49t55.5 28.5t64 9q41 0 81.5 -12.5t74.5 -33.5l-20 -50l-38 8q-24 5 -47.5 8.5t-40.5 3.5q-46 0 -71.5 -21.5t-25.5 -66.5q0 -17 3 -34.5t8 -30.5h179v-68h-174v-420h-88v420h-248v-420h-88
v420h-92v50l89 16q-5 17 -8.5 37.5t-3.5 39.5q0 39 13.5 68t36.5 48t53 28.5t63 9.5q34 0 71 -10t69 -29l-16 -53l-32 6q-23 5 -44 7.5t-38 2.5q-43 0 -66 -20t-23 -66zM835 -74q0 -40 -8.5 -70.5t-29.5 -52.5q-36 -36 -105 -36q-17 0 -38 2.5t-35 6.5v46l50 9q23 5 38 10
t24 14q9 10 12.5 25t3.5 41v567h88v-562z" />
    <glyph glyph-name="f_t" unicode="ft" horiz-adv-x="728" 
d="M91 486q-5 17 -8.5 37.5t-3.5 39.5q0 38 14 67t36.5 48.5t52 29t61.5 9.5q31 0 63.5 -9t63.5 -27l-15 -52l-28 5q-41 7 -71 7q-43 0 -66.5 -20t-23.5 -66q0 -15 3 -34.5t8 -32.5h238v134h88v-134h174v-68h-174v-277q0 -40 17 -57t52 -17q15 0 35.5 4t48.5 12l35 9l21 -48
q-32 -23 -74.5 -38.5t-80.5 -15.5q-33 0 -59 10t-44 27q-39 37 -39 111v280h-233v-420h-88v420h-92v50z" />
    <glyph glyph-name="f_f_t" unicode="fft" horiz-adv-x="1064" 
d="M166 555q0 -15 3 -34.5t8 -32.5h249q-5 17 -8 37t-3 38q0 38 14 67t36.5 48.5t52 29t61.5 9.5q31 0 63.5 -9t63.5 -27l-15 -52l-28 5q-41 7 -71 7q-43 0 -66.5 -20t-23.5 -66q0 -15 3 -34.5t8 -32.5h238v134h88v-134h174v-68h-174v-277q0 -40 17 -57t52 -17q15 0 35.5 4
t48.5 12l35 9l21 -48q-32 -23 -74.5 -38.5t-80.5 -15.5q-33 0 -59 10t-44 27q-39 37 -39 111v280h-233v-420h-88v420h-248v-420h-88v420h-92v50l89 16q-5 17 -8.5 37.5t-3.5 39.5q0 39 13.5 68t36.5 48t53 28.5t63 9.5q34 0 71 -10t69 -29l-16 -53l-32 6q-23 5 -44 7.5
t-38 2.5q-43 0 -66 -20t-23 -66z" />
    <glyph glyph-name=".notdef" horiz-adv-x="594" 
d="M65 650h464v-650h-464v650zM455 604h-316l159 -237zM483 88v474l-158 -237zM455 47l-157 236l-159 -236h316zM112 88l157 237l-157 237v-474z" />
    <glyph glyph-name=".null" horiz-adv-x="0" 
 />
    <glyph glyph-name=".null" horiz-adv-x="0" 
 />
    <glyph glyph-name="nonmarkingreturn" unicode="&#xd;" horiz-adv-x="232" 
 />
    <glyph glyph-name="space" unicode=" " horiz-adv-x="232" 
 />
    <glyph glyph-name="nonbreakingspace" unicode="&#xa0;" horiz-adv-x="232" 
 />
    <glyph glyph-name="A" unicode="A" horiz-adv-x="675" 
d="M500 156h-332l-56 -146q-2 -6 -5 -8t-11 -2h-82l266 663h91q8 0 11 -2t6 -9l273 -652h-85q-12 0 -16 10zM196 230h274l-55 138q-33 83 -53.5 134.5t-30.5 79.5h-1q-9 -26 -29 -79.5t-52 -134.5z" />
    <glyph glyph-name="B" unicode="B" horiz-adv-x="620" 
d="M74 663h249q109 0 160 -41q51 -40 51 -120q0 -43 -18 -81.5t-49 -70.5q48 -17 79.5 -56t31.5 -103q0 -85 -53 -135q-29 -27 -72 -41.5t-103 -14.5h-276v663zM167 77h178q81 0 112 34q26 28 26 81t-23 77q-14 15 -39 22.5t-65 7.5h-189v-222zM369 373q16 0 24.5 4t16.5 13
q14 17 23.5 44.5t9.5 57.5q0 47 -21 68q-25 26 -95 26h-160v-213h202z" />
    <glyph glyph-name="C" unicode="C" horiz-adv-x="672" 
d="M639 119q-54 -59 -130 -94t-157 -35q-69 0 -127 25t-99.5 70t-65 108t-23.5 139q0 70 23 132t65 108.5t100.5 73.5t129.5 27q95 0 165 -50.5t104 -133.5l-62 -37l-63 63q-35 35 -69 52.5t-81 17.5q-51 0 -91.5 -18.5t-68 -52.5t-42 -80.5t-14.5 -102.5
q0 -120 59.5 -186.5t171.5 -66.5q35 0 73.5 11.5t78.5 31.5l87 45z" />
    <glyph glyph-name="D" unicode="D" horiz-adv-x="695" 
d="M253 78q83 0 145 13t101 51q30 29 46.5 76.5t16.5 113.5t-16.5 113t-46.5 76q-39 38 -101 51t-145 13h-86v-507h86zM74 0v663h197q100 0 173.5 -21t123.5 -67q44 -41 67 -101.5t23 -141.5t-23 -142t-67 -102q-50 -46 -123.5 -67t-173.5 -21h-197z" />
    <glyph glyph-name="E" unicode="E" horiz-adv-x="571" 
d="M510 663v-77h-343v-205h307v-76h-307v-228h354v-77h-447v663h436z" />
    <glyph glyph-name="F" unicode="F" horiz-adv-x="533" 
d="M500 663v-77h-333v-205h297v-76h-297v-305h-93v663h426z" />
    <glyph glyph-name="G" unicode="G" horiz-adv-x="727" 
d="M581 464l-66 57q-38 32 -72.5 48.5t-83.5 16.5q-54 0 -95.5 -18t-70.5 -51t-44 -80t-15 -105q0 -128 63 -191.5t170 -63.5q41 0 93.5 12.5t97.5 36.5q9 5 11 9t2 13v119h-129v71h203q10 0 13 -2.5t3 -10.5v-325h-66l-17 61l-56 -28q-44 -22 -83 -32.5t-86 -10.5
q-72 0 -130 26t-99.5 71.5t-63.5 108t-22 134.5q0 78 25.5 141t69.5 108t103 69.5t127 24.5q48 0 90.5 -13t78 -36t63 -53.5t45.5 -66.5z" />
    <glyph glyph-name="H" unicode="H" horiz-adv-x="700" 
d="M533 305h-366v-305h-93v663h93v-279h366v279h93v-663h-93v305z" />
    <glyph glyph-name="I" unicode="I" horiz-adv-x="249" 
d="M78 663h93v-663h-93v663z" />
    <glyph glyph-name="J" unicode="J" horiz-adv-x="492" 
d="M43 102l54 -13q72 -18 122 -18q59 0 85 29q14 15 19 38t5 57v468h93v-461q0 -57 -13 -95t-39 -65q-25 -25 -60.5 -38.5t-82.5 -13.5q-52 0 -105.5 15.5t-97.5 41.5z" />
    <glyph glyph-name="K" unicode="K" horiz-adv-x="637" 
d="M279 338q-10 -9 -25 -21t-30.5 -24t-30.5 -22.5t-26 -16.5v-254h-93v663h93v-327l377 332l53 -57l-252 -218l280 -393h-92q-9 0 -13.5 2t-9.5 8z" />
    <glyph glyph-name="L" unicode="L" horiz-adv-x="522" 
d="M74 663h93v-586h324v-77h-417v663z" />
    <glyph glyph-name="M" unicode="M" horiz-adv-x="833" 
d="M759 0h-90v521h-1q-6 -10 -17 -25t-23.5 -32t-25.5 -34t-25 -32l-129 -163h-52q-8 0 -11.5 2.5t-8.5 7.5l-122 153q-11 14 -24 31t-25 33.5t-22.5 31.5t-17.5 27h-1v-521h-90v663h69q8 0 12 -1.5t10 -9.5l254 -325h1l252 325q5 7 9.5 9t12.5 2h65v-663z" />
    <glyph glyph-name="N" unicode="N" horiz-adv-x="729" 
d="M163 0h-89v663h64q8 0 12 -1.5t10 -8.5l286 -358q17 -21 34.5 -43t33.5 -43t29.5 -38.5t22.5 -29.5v522h89v-663h-63q-8 0 -12 1.5t-10 8.5l-286 358q-17 21 -34.5 43.5t-34 43.5t-30.5 39t-22 29v-523z" />
    <glyph glyph-name="O" unicode="O" horiz-adv-x="726" 
d="M689 331q0 -76 -26 -138.5t-71 -107.5t-104 -70t-125 -25t-125 25t-104 70t-71 107.5t-26 138.5t26 139t71 108t104 70t125 25t125 -25t104 -70t71 -108t26 -139zM593 331q0 61 -16.5 108t-47 79.5t-73 49t-93.5 16.5t-93.5 -16.5t-73 -49t-47 -79.5t-16.5 -108
t16.5 -108t47 -79t73 -48.5t93.5 -16.5t93.5 16.5t73 48.5t47 79t16.5 108z" />
    <glyph glyph-name="P" unicode="P" horiz-adv-x="613" 
d="M167 0h-93v663h242q65 0 115 -13.5t85 -47.5q26 -25 40.5 -63.5t14.5 -87.5q0 -54 -16.5 -99t-48.5 -76q-25 -24 -55.5 -36t-83.5 -12h-200v-228zM167 304h220q21 0 33 5t21 16q17 20 26.5 54t9.5 71q0 65 -31 98q-20 21 -53.5 29.5t-78.5 8.5h-147v-282z" />
    <glyph glyph-name="Q" unicode="Q" horiz-adv-x="726" 
d="M689 331q0 -54 -13.5 -101.5t-37.5 -86.5t-57.5 -69t-72.5 -50l116 -160l-93 -42l-107 174q-30 -6 -61 -6q-66 0 -125 25t-104 70t-71 107.5t-26 138.5t26 139t71 108t104 70t125 25t125 -25t104 -70t71 -108t26 -139zM593 331q0 61 -16.5 108t-47 79.5t-73 49
t-93.5 16.5t-93.5 -16.5t-73 -49t-47 -79.5t-16.5 -108t16.5 -108t47 -79t73 -48.5t93.5 -16.5t93.5 16.5t73 48.5t47 79t16.5 108z" />
    <glyph glyph-name="R" unicode="R" horiz-adv-x="641" 
d="M374 233q-4 7 -7.5 8.5t-11.5 1.5h-188v-243h-93v663h240q73 0 121.5 -14.5t81.5 -47.5q25 -26 39.5 -62t14.5 -81q0 -69 -33 -120t-81 -80l153 -258h-87q-9 0 -13 2.5t-8 8.5zM167 319h219q20 0 32 5.5t21 15.5q17 19 27.5 52t10.5 62q0 32 -8.5 55.5t-23.5 39.5
q-20 20 -49.5 28.5t-75.5 8.5h-153v-267z" />
    <glyph glyph-name="S" unicode="S" horiz-adv-x="569" 
d="M133 96q45 -11 82.5 -17.5t71.5 -6.5q72 0 111 30t39 85q0 22 -6 38t-20.5 29.5t-38 25t-57.5 23.5l-77 27q-43 15 -77 31.5t-57 37.5t-35.5 47.5t-12.5 61.5q0 40 17.5 71t49 52t74.5 31.5t93 10.5q48 0 102 -10.5t102 -30.5l-15 -59l-60 8q-34 5 -68 7.5t-60 2.5
q-72 0 -110.5 -18t-38.5 -62q0 -18 6.5 -31.5t21 -25t38 -22.5t57.5 -23l74 -26q45 -16 79.5 -33t58 -39.5t36 -52.5t12.5 -70q0 -45 -17 -81.5t-48 -62.5t-75 -40t-99 -14q-31 0 -63.5 5t-64 14t-60.5 21t-53 26l23 56z" />
    <glyph glyph-name="T" unicode="T" horiz-adv-x="585" 
d="M246 586h-225v77h543v-77h-225v-586h-93v586z" />
    <glyph glyph-name="U" unicode="U" horiz-adv-x="691" 
d="M621 253q0 -122 -65 -186q-35 -35 -89.5 -56t-120.5 -21t-121 20.5t-90 55.5q-33 32 -49 77.5t-16 108.5v411h93v-409q0 -45 9 -75t29 -52q22 -23 59 -36t86 -13t86 13t59 36q20 22 29.5 52t9.5 75v409h91v-410z" />
    <glyph glyph-name="V" unicode="V" horiz-adv-x="656" 
d="M646 663l-260 -663h-93q-9 0 -12.5 2t-6.5 9l-264 652h86q6 0 9 -1.5t5 -7.5l140 -352q12 -31 24.5 -62.5t23.5 -61.5t20 -56.5t15 -45.5h2q5 18 14 44t20 56t22.5 61.5t22.5 60.5l135 356q2 5 4.5 7t8.5 2h84z" />
    <glyph glyph-name="W" unicode="W" horiz-adv-x="993" 
d="M647 320q9 -27 18 -58t18 -61.5t17 -59t14 -50.5h2q9 43 26.5 102t37.5 123l108 338q2 6 5 7.5t9 1.5h81l-217 -663h-93q-14 0 -18 11l-96 303q-10 31 -20 64.5t-19 64.5t-16 58t-11 46h-2q-5 -19 -12 -47t-15.5 -60.5t-17.5 -66t-18 -63.5l-90 -310h-94q-14 0 -18 11
l-216 652h83q7 0 10 -1.5t5 -7.5l107 -333q10 -33 20.5 -66t19.5 -63t16.5 -56t11.5 -45h2q3 18 9.5 44l14 56t17 62t18.5 64l102 346h79q8 0 11.5 -1.5t5.5 -9.5z" />
    <glyph glyph-name="X" unicode="X" horiz-adv-x="646" 
d="M8 0l257 346l-243 317h90q9 0 12.5 -1.5t8.5 -7.5l187 -243l179 243q5 6 8.5 7.5t12.5 1.5h84l-232 -315l266 -348h-89q-8 0 -11.5 2t-8.5 7l-211 275l-202 -275q-4 -5 -8 -7t-14 -2h-86z" />
    <glyph glyph-name="Y" unicode="Y" horiz-adv-x="621" 
d="M358 217v-217h-93v217l-263 446h90q6 0 9 -1.5t7 -7.5l104 -181q35 -61 60.5 -107.5t39.5 -75.5h2q14 29 39.5 76t59.5 107l103 181q5 9 17 9h86z" />
    <glyph glyph-name="Z" unicode="Z" horiz-adv-x="575" 
d="M43 586v77h485v-46q0 -13 -11 -29l-253 -362q-38 -54 -67.5 -93t-41.5 -56h378v-77h-491v45q0 8 2.5 14t8.5 15l254 362q37 52 64.5 89.5t44.5 60.5h-373z" />
    <glyph glyph-name="a" unicode="a" horiz-adv-x="536" 
d="M365 313q0 29 -5 45.5t-16 28.5q-14 16 -37.5 23t-53.5 7q-27 0 -56.5 -6t-58.5 -17l-50 -18l-28 48q50 36 100.5 54t100.5 18q44 0 82.5 -13.5t65.5 -42.5q21 -23 32.5 -53t11.5 -77v-238l71 -13v-45q-15 -7 -35 -11.5t-39 -4.5q-26 0 -45.5 12t-30.5 33l-33 -17
q-28 -14 -61 -24t-66 -10q-42 0 -75 13t-57 36q-23 22 -36 51t-13 62q0 64 43.5 98t123.5 34h8q15 0 34.5 -1t41 -2.5t42.5 -4t39 -4.5v39zM365 207q0 5 -2 7.5t-10 2.5h-170q-18 0 -29 -3.5t-18 -10.5q-15 -15 -15 -46q0 -38 27 -64t79 -26q32 0 67.5 9.5t61.5 23.5
q9 5 9 16v91z" />
    <glyph glyph-name="b" unicode="b" horiz-adv-x="566" 
d="M155 127q0 -9 3 -12.5t8 -6.5q26 -14 61.5 -24.5t69.5 -10.5q30 0 55.5 8t44.5 28t30 52.5t11 82.5q0 48 -10.5 81t-29.5 52.5t-44 28t-55 8.5q-34 0 -70.5 -10.5t-62.5 -24.5q-5 -3 -8 -6.5t-3 -12.5v-233zM131 0h-64v709h88v-267l26 14q36 20 69 30t65 10
q45 0 84.5 -18t68 -51t45 -79.5t16.5 -103.5t-15.5 -103.5t-44 -79.5t-68 -51t-88.5 -18q-32 0 -63.5 9t-66.5 28l-34 18z" />
    <glyph glyph-name="c" unicode="c" horiz-adv-x="512" 
d="M486 83q-45 -40 -101 -65.5t-112 -25.5q-54 0 -98 19t-74.5 53t-47.5 80.5t-17 101.5q0 54 18 100t49.5 79t75 52t93.5 19q36 0 69 -10.5t60 -30t46.5 -46t29.5 -58.5l-56 -29l-35 33q-35 33 -61 48t-61 15q-60 0 -98.5 -44.5t-38.5 -125.5q0 -88 40.5 -132t115.5 -44
q50 0 118 31l55 25z" />
    <glyph glyph-name="d" unicode="d" horiz-adv-x="568" 
d="M413 709h88v-709h-64l-17 48l-35 -19q-37 -20 -67.5 -28.5t-63.5 -8.5q-48 0 -88 18t-68.5 51t-44.5 79t-16 102q0 61 19 108t50 79.5t71 49.5t81 17q34 0 66 -10t64 -27l25 -13v263zM413 361q0 9 -2 13t-10 8q-29 15 -62.5 24t-64.5 9q-69 0 -107.5 -42t-38.5 -130
q0 -91 37.5 -130.5t103.5 -39.5q33 0 70 10t63 24q7 4 9 8t2 12v234z" />
    <glyph glyph-name="e" unicode="e" horiz-adv-x="536" 
d="M490 73q-46 -36 -101.5 -58.5t-109.5 -22.5q-56 0 -100.5 19t-76.5 53t-49 80t-17 100q0 56 18 102.5t49.5 79.5t74.5 51.5t93 18.5t91.5 -18t71.5 -49.5t47 -73.5t17 -90q0 -25 -6 -34.5t-18 -9.5h-347q5 -66 43.5 -107.5t115.5 -41.5q29 0 61 8t60 19l54 21zM411 289
q-4 57 -40 92.5t-99 35.5q-62 0 -100.5 -33.5t-44.5 -94.5h284z" />
    <glyph glyph-name="f" unicode="f" horiz-adv-x="348" 
d="M2 470l89 16q-5 17 -8.5 37.5t-3.5 39.5q0 39 14 68t37 48t53 28.5t63 9.5q37 0 78 -12t74 -32l-20 -51l-38 8q-21 5 -42.5 8t-41.5 3q-43 0 -66.5 -20t-23.5 -66q0 -15 3 -34.5t8 -32.5h179v-68h-174v-420h-88v420h-92v50z" />
    <glyph glyph-name="g" unicode="g" horiz-adv-x="540" 
d="M538 438l-97 -22q-10 -3 -5 -11q14 -22 22 -46t8 -52q0 -41 -16 -75.5t-44 -60t-65.5 -39.5t-80.5 -14q-24 0 -43 3.5t-31 8.5q-5 2 -7.5 1t-4.5 -5l-18 -31q-8 -13 -8 -19q0 -5 6 -8.5t23 -3.5h147q54 0 89 -11t57 -33q17 -17 25 -40t8 -50q0 -38 -18 -70.5t-50.5 -55.5
t-77.5 -36t-99 -13t-98.5 12.5t-76 35t-49 52.5t-17.5 66q0 34 16.5 58t43.5 39q-17 19 -17 39q0 14 7.5 27.5t21.5 30.5l38 47q-32 26 -52.5 63t-20.5 82q0 41 16 75.5t44 60t65.5 39.5t80.5 14q37 0 71 -11.5t60 -31.5q38 29 59 41t39 12q13 0 25.5 -5t23.5 -13v-50z
M381 307q0 58 -33 86.5t-88 28.5t-88 -28.5t-33 -86.5t33 -86.5t88 -28.5t88 28.5t33 86.5zM158 -12q-29 0 -42 -12q-16 -15 -16 -45q0 -46 41.5 -74.5t116.5 -28.5q71 0 116 26t45 75q0 28 -16 42q-11 10 -31 13.5t-48 3.5h-166z" />
    <glyph glyph-name="h" unicode="h" horiz-adv-x="554" 
d="M177 461q29 14 62.5 24.5t65.5 10.5q44 0 80.5 -13.5t61.5 -37.5q23 -23 35.5 -55t12.5 -82v-308h-88v304q0 34 -6 52t-19 31q-14 14 -38.5 20t-53.5 6h-1q-32 0 -67 -8t-58 -19q-6 -3 -7.5 -6.5t-1.5 -9.5v-370h-88v709h88v-259z" />
    <glyph glyph-name="i" unicode="i" horiz-adv-x="224" 
d="M68 488h88v-488h-88v488zM66 675h74q11 0 14.5 -3.5t3.5 -12.5v-78h-92v94z" />
    <glyph glyph-name="j" unicode="j" horiz-adv-x="218" 
d="M150 -74q0 -40 -8.5 -70.5t-29.5 -52.5q-36 -36 -105 -36q-17 0 -38 2.5t-35 6.5v46l50 9q23 5 38 10t24 14q9 10 12.5 25t3.5 41v567h88v-562zM60 675h74q11 0 14.5 -3.5t3.5 -12.5v-78h-92v94z" />
    <glyph glyph-name="k" unicode="k" horiz-adv-x="532" 
d="M257 249q-23 -19 -50 -38t-52 -34v-177h-88v709h88v-454l290 243l48 -55l-173 -144l204 -299h-86q-9 0 -13 2t-9 8z" />
    <glyph glyph-name="l" unicode="l" horiz-adv-x="250" 
d="M243 14q-15 -7 -40 -12t-45 -5q-42 0 -66 24t-24 71v617h88v-637l87 -14v-44z" />
    <glyph glyph-name="m" unicode="m" horiz-adv-x="870" 
d="M131 488l15 -42l31 16q29 15 62 24.5t62 9.5q41 0 78 -14t66 -45l34 18q42 22 76 31.5t71 9.5q42 0 77 -13.5t60 -37.5q23 -23 35.5 -55t12.5 -82v-308h-88v304q0 34 -6 52t-19 31q-14 14 -37 20t-51 6q-32 0 -64 -7t-58 -19q-8 -5 -10 -7t0 -8q3 -13 5 -29t2 -34v-309
h-88v304q0 34 -6 52t-19 31q-14 14 -37 20t-51 6q-32 0 -63 -7.5t-57 -19.5q-6 -3 -7.5 -6.5t-1.5 -9.5v-370h-88v488h64z" />
    <glyph glyph-name="n" unicode="n" horiz-adv-x="554" 
d="M131 488l15 -42l31 15q29 14 62.5 24.5t65.5 10.5q44 0 80.5 -13.5t61.5 -37.5q23 -23 35.5 -55t12.5 -82v-308h-88v304q0 34 -6 52t-19 31q-14 14 -38.5 20t-53.5 6h-1q-32 0 -67 -8t-58 -19q-6 -3 -7.5 -6.5t-1.5 -9.5v-370h-88v488h64z" />
    <glyph glyph-name="o" unicode="o" horiz-adv-x="553" 
d="M517 244q0 -58 -19 -104.5t-51.5 -79.5t-76 -50.5t-92.5 -17.5h-3q-49 0 -92.5 17.5t-76 50.5t-51.5 79.5t-19 104.5t19 104.5t51.5 79.5t76 50.5t92.5 17.5h3q49 0 92.5 -17.5t76 -50.5t51.5 -79.5t19 -104.5zM426 244q0 83 -38 126.5t-110 43.5h-3q-72 0 -110 -43.5
t-38 -126.5t38 -126.5t110 -43.5h3q72 0 110 43.5t38 126.5z" />
    <glyph glyph-name="p" unicode="p" horiz-adv-x="566" 
d="M155 44v-273h-88v717h64l18 -49l32 17q38 20 70 30t64 10q45 0 84.5 -18t68 -51t45 -79.5t16.5 -103.5t-15.5 -103.5t-44 -79.5t-68.5 -51t-88 -18q-32 0 -63.5 9t-66.5 28zM155 127q0 -9 3 -12.5t8 -6.5q26 -14 61.5 -24.5t69.5 -10.5q30 0 56 8t44.5 28t29.5 52.5
t11 82.5q0 48 -10.5 81t-29.5 52.5t-44 28t-55 8.5q-34 0 -70.5 -10.5t-62.5 -24.5q-5 -3 -8 -6.5t-3 -12.5v-233z" />
    <glyph glyph-name="q" unicode="q" horiz-adv-x="568" 
d="M413 361q0 9 -2 13t-10 8q-29 15 -62.5 24t-64.5 9q-69 0 -107.5 -42t-38.5 -130q0 -91 37.5 -130.5t103.5 -39.5q33 0 70 10t63 24q7 4 9 8t2 12v234zM437 488h64v-717h-88v273l-28 -15q-37 -20 -67.5 -28.5t-63.5 -8.5q-48 0 -88 18t-68.5 51t-44.5 79t-16 102
q0 61 19 108t50 79.5t71 49.5t81 17q34 0 66 -10t64 -27l33 -17z" />
    <glyph glyph-name="r" unicode="r" horiz-adv-x="363" 
d="M149 422q64 42 99 58t60 16q13 0 25.5 -3.5t23.5 -8.5v-58q-33 -7 -85 -22.5t-107 -36.5q-10 -4 -10 -15v-352h-88v488h63z" />
    <glyph glyph-name="s" unicode="s" horiz-adv-x="464" 
d="M392 408l-46 6q-23 3 -53 5.5t-53 2.5q-53 0 -83 -12t-30 -43q0 -26 23 -38t62 -24l69 -21q39 -12 66 -24t44 -27q37 -33 37 -91q0 -35 -13.5 -63t-38.5 -47.5t-59 -29.5t-74 -10q-50 0 -106 15t-101 41l22 51l43 -11q51 -13 84 -17.5t58 -4.5q103 0 103 76
q0 26 -18 39.5t-64 27.5l-72 22q-76 23 -111 52.5t-35 82.5q0 32 14.5 56t38.5 40q27 18 64 26t76 8q42 0 85.5 -8.5t82.5 -24.5z" />
    <glyph glyph-name="t" unicode="t" horiz-adv-x="402" 
d="M386 46q-32 -23 -74.5 -38.5t-80.5 -15.5q-33 0 -59 10t-44 27q-39 37 -39 111v280h-92v50l92 17v142h88v-141h174v-68h-174v-277q0 -40 17 -57t52 -17q15 0 35.5 4t48.5 12l35 9z" />
    <glyph glyph-name="u" unicode="u" horiz-adv-x="550" 
d="M419 0l-15 42l-31 -15q-29 -14 -61 -24.5t-64 -10.5q-44 0 -80 13.5t-61 37.5q-23 23 -35.5 55t-12.5 82v308h88v-304q0 -34 6 -52t19 -31q14 -14 38 -20t53 -6h1q32 0 65.5 8t56.5 19q6 3 7.5 6.5t1.5 9.5v370h88v-488h-64z" />
    <glyph glyph-name="v" unicode="v" horiz-adv-x="515" 
d="M417 478q3 7 5.5 8.5t10.5 1.5h78l-205 -488h-77q-8 0 -11 2.5t-5 7.5l-208 478h81q7 0 9.5 -1.5t5.5 -8.5l95 -223q9 -21 18.5 -45t18.5 -46.5t16.5 -43t12.5 -33.5h1q8 25 26 71t39 97z" />
    <glyph glyph-name="w" unicode="w" horiz-adv-x="800" 
d="M706 478q2 6 5 8t11 2h71l-169 -488h-81q-14 0 -17 10l-69 207q-18 54 -33 100.5t-24 78.5q-8 -34 -21.5 -81t-27.5 -95l-66 -220h-82q-8 0 -11.5 2.5t-5.5 7.5l-179 478h79q8 0 10.5 -2t4.5 -8l79 -219q20 -56 34 -97.5t23 -70.5q6 25 17.5 68t27.5 94l73 235h80
q7 0 10 -1.5t5 -7.5l76 -220q18 -53 32.5 -97t22.5 -71q6 25 20 70.5t31 96.5z" />
    <glyph glyph-name="x" unicode="x" horiz-adv-x="507" 
d="M410 0q-7 0 -10 1.5t-8 6.5l-148 191l-137 -191q-4 -5 -7 -6.5t-11 -1.5h-82l186 255l-181 233h86q9 0 12.5 -1.5t8.5 -7.5l130 -169l123 169q4 5 7 7t11 2h81l-171 -234l198 -254h-88z" />
    <glyph glyph-name="y" unicode="y" horiz-adv-x="514" 
d="M85 488q7 0 9.5 -1.5t5.5 -8.5l96 -223q9 -21 18.5 -45t18.5 -46.5t16.5 -43t12.5 -33.5h1q8 25 26 71t39 97l90 223q3 7 5.5 8.5t10.5 1.5h76l-300 -719l-81 18l91 208l-215 493h80z" />
    <glyph glyph-name="z" unicode="z" horiz-adv-x="473" 
d="M52 420v68h384v-36q0 -9 -2 -13.5t-7 -12.5l-171 -228q-29 -39 -55 -71.5l-46 -57.5h285v-69h-396v36q0 9 2 13.5t7 12.5l173 228q12 15 25.5 33t27.5 35.5t27 33.5t23 28h-277z" />
    <glyph glyph-name="ampersand" unicode="&#x26;" horiz-adv-x="745" 
d="M703 17q-14 -8 -35.5 -14.5t-39.5 -6.5q-13 0 -23.5 2t-21 7t-22 14t-25.5 23l-30 30q-44 -38 -96.5 -60t-113.5 -22q-53 0 -100 17.5t-82 47.5t-56 71t-21 88q0 67 40.5 112t102.5 79q-17 25 -27 49.5t-10 53.5q0 37 14.5 67.5t39.5 52.5t58.5 33.5t70.5 11.5
q34 0 65.5 -12t55.5 -33t38 -50t14 -63q0 -51 -31.5 -97.5t-100.5 -91.5l140 -140q17 24 33.5 52.5t31.5 59.5l51 105l61 -21q-20 -69 -50 -133t-72 -117l60 -60l81 -12v-43zM202 345q-18 -17 -32 -32t-23 -29t-13.5 -29.5t-4.5 -33.5q0 -30 12.5 -57t35.5 -47.5t55.5 -32.5
t73.5 -12q44 0 79.5 14t65.5 40l-181 182l-52 52zM361 403q32 33 45 58t13 54q0 35 -27 59t-69 24q-45 0 -70.5 -24.5t-25.5 -61.5q0 -32 24.5 -64t74.5 -81z" />
    <glyph glyph-name="at" unicode="@" horiz-adv-x="762" 
d="M683 4q-27 -21 -61 -39.5t-72.5 -32.5t-80 -22.5t-83.5 -8.5q-75 0 -139 25.5t-111 70.5t-74 108t-27 138q0 71 26 133t72.5 108.5t111.5 73t143 26.5q72 0 133 -24.5t104.5 -66.5t68 -97.5t24.5 -118.5q0 -48 -13.5 -85t-36.5 -62.5t-53.5 -39t-64.5 -13.5
q-29 0 -51 10.5t-36 26.5l-25 -13q-21 -11 -42 -17t-44 -6q-26 0 -48 8.5t-38.5 23.5t-25.5 35.5t-9 43.5q0 45 30.5 66t75.5 21q10 0 24 -1t29 -2t29.5 -3t25.5 -3v18q0 18 -3.5 29.5t-9.5 18.5q-8 9 -22 12.5t-32 3.5q-17 0 -35 -3.5t-36 -8.5l-34 -10l-21 38
q31 21 65.5 33.5t67.5 12.5q57 0 93 -30.5t36 -90.5v-106q0 -26 12 -38q11 -11 32 -11q38 0 65 33t27 105q0 55 -19.5 99.5t-55 76t-83.5 48.5t-105 17t-107 -17.5t-87 -52t-58 -84.5t-21 -114q0 -65 21 -116t58 -86.5t88.5 -54.5t113.5 -19q43 0 93 11t99 32l72 32z
M332 222q-19 0 -25 -9q-7 -9 -7 -23q0 -25 18.5 -38.5t47.5 -13.5q17 0 36.5 4.5t33.5 10.5q5 2 7 4.5t2 8.5v49q0 7 -7 7h-106z" />
    <glyph glyph-name="exclam" unicode="!" horiz-adv-x="250" 
d="M76 98h78q12 0 16 -3.5t4 -13.5v-81h-98v98zM171 417q0 -20 -1 -41.5t-3 -47.5l-15 -153h-54l-15 153q-2 26 -3 47.5t-1 41.5v246h92v-246z" />
    <glyph glyph-name="exclamdown" unicode="&#xa1;" horiz-adv-x="251" 
d="M165.99 389.977h-77.9961q-11.999 0 -15.998 3.49902q-4 3.5 -4 13.5v80.9951h97.9941v-97.9941zM70.9961 70.9961q0 19.998 1 41.4971q0.999023 21.499 2.99902 47.4971l14.999 152.99h53.9971l14.999 -152.99q2 -25.998 3 -47.4971t1 -41.4971v-245.985h-91.9941
v245.985z" />
    <glyph glyph-name="question" unicode="?" horiz-adv-x="496" 
d="M182 175l-10 61q-2 14 -3.5 26t-1.5 19q0 17 6.5 25.5t27.5 20.5l34 19q32 18 56.5 33t40.5 31t24 34t8 42q0 51 -35.5 77t-89.5 26q-29 0 -58 -7t-74 -24l-57 -21l-29 51q48 40 106.5 62.5t115.5 22.5q44 0 83.5 -12.5t69 -36.5t46.5 -58t17 -77q0 -60 -36.5 -106
t-113.5 -81l-54 -25l-17 -102h-56zM162 96h76q12 0 16 -3.5t4 -13.5v-79h-96v96z" />
    <glyph glyph-name="questiondown" unicode="&#xbf;" horiz-adv-x="496" 
d="M311.98 312.98l10 -60.9961q2 -13.999 3.5 -25.998t1.5 -18.999q0 -16.999 -6.5 -25.498q-6.5 -8.5 -27.498 -20.499l-33.998 -18.999q-31.998 -17.999 -56.4971 -32.998q-24.498 -14.999 -40.4971 -30.998t-23.999 -33.998q-7.99902 -17.999 -7.99902 -41.9971
q0 -50.9971 35.498 -76.9951q35.4971 -25.999 89.4941 -25.999q28.998 0 57.9961 7q28.999 6.99902 73.9961 23.998l56.9961 20.999l28.998 -50.9971q-47.9971 -39.9971 -106.493 -62.4961q-58.4961 -22.498 -115.493 -22.498q-43.9971 0 -83.4941 12.499
q-39.498 12.499 -68.9961 36.4971q-29.498 23.999 -46.4971 57.9971t-16.999 76.9951q0 59.9961 36.498 105.993q36.4971 45.998 113.492 80.9951l53.9971 24.999l16.999 101.993h55.9961zM331.979 391.977h-75.9951q-11.999 0 -15.999 3.49902q-4 3.5 -4 13.499v78.9961
h95.9941v-95.9941z" />
    <glyph glyph-name="asterisk" unicode="*" horiz-adv-x="430" 
d="M311 321q-12 -8 -21 5l-74 120l-82 -132l-54 34q-8 5 -7.5 10t7.5 12l97 104l-138 38l20 53q4 9 8 11t15 -3l111 -60l-16 150h64q9 0 12 -3t2 -11l-15 -136l127 65l21 -53q4 -9 1 -13t-12 -6l-122 -32l109 -118z" />
    <glyph glyph-name="period" unicode="." horiz-adv-x="218" 
d="M59 102h80q12 0 16 -3.5t4 -13.5v-85h-100v102z" />
    <glyph glyph-name="comma" unicode="," horiz-adv-x="216" 
d="M158 29q0 -22 -4 -39.5t-15 -37t-31 -43.5t-53 -58l-31 24l61 109q4 7 3 9.5t-6 5.5l-14 9q-8 5 -10 9.5t-2 12.5v72h82q12 0 16 -3.5t4 -13.5v-56z" />
    <glyph glyph-name="colon" unicode=":" horiz-adv-x="218" 
d="M59 102h80q12 0 16 -3.5t4 -13.5v-85h-100v102zM59 425h80q12 0 16 -3.5t4 -13.5v-85h-100v102z" />
    <glyph glyph-name="semicolon" unicode=";" horiz-adv-x="216" 
d="M57 425h80q12 0 16 -3.5t4 -13.5v-85h-100v102zM158 29q0 -22 -4 -39.5t-15 -37t-31 -43.5t-53 -58l-31 24l61 109q4 7 3 9.5t-6 5.5l-14 9q-8 5 -10 9.5t-2 12.5v72h82q12 0 16 -3.5t4 -13.5v-56z" />
    <glyph glyph-name="ellipsis" unicode="&#x2026;" horiz-adv-x="642" 
d="M59 102h80q12 0 16 -3.5t4 -13.5v-85h-100v102zM271 102h80q12 0 16 -3.5t4 -13.5v-85h-100v102zM483 102h80q12 0 16 -3.5t4 -13.5v-85h-100v102z" />
    <glyph glyph-name="periodcentered" unicode="&#xb7;" horiz-adv-x="218" 
d="M59 330h80q12 0 16 -3.5t4 -13.5v-85h-100v102z" />
    <glyph glyph-name="bullet" unicode="&#x2022;" horiz-adv-x="345" 
d="M273 184h-201v194h175q16 0 21 -4.5t5 -18.5v-171z" />
    <glyph glyph-name="slash" unicode="/" horiz-adv-x="448" 
d="M11 0l335 663h91l-335 -663h-91z" />
    <glyph glyph-name="parenleft" unicode="(" horiz-adv-x="318" 
d="M156 217q0 -121 37.5 -222t118.5 -194l-45 -37q-45 40 -82.5 89.5t-64 107t-41.5 122t-15 134.5t15 134.5t41.5 122t64 107t82.5 89.5l45 -37q-81 -93 -118.5 -194t-37.5 -222z" />
    <glyph glyph-name="brokenbar" unicode="&#xa6;" horiz-adv-x="243" 
d="M81 709h81v-418h-81v418zM81 189h81v-418h-81v418z" />
    <glyph glyph-name="parenright" unicode=")" horiz-adv-x="318" 
d="M162 217q0 121 -37.5 222t-118.5 194l45 37q45 -40 82.5 -89.5t64 -107t41.5 -122t15 -134.5t-15 -134.5t-41.5 -122t-64 -107t-82.5 -89.5l-45 37q81 93 118.5 194t37.5 222z" />
    <glyph glyph-name="bracketleft" unicode="[" horiz-adv-x="309" 
d="M78 663h219v-78h-133v-736h133v-78h-219v892z" />
    <glyph glyph-name="backslash" unicode="\" horiz-adv-x="448" 
d="M346 0l-335 663h91l335 -663h-91z" />
    <glyph glyph-name="bracketright" unicode="]" horiz-adv-x="302" 
d="M231 -229h-219v78h133v736h-133v78h219v-892z" />
    <glyph glyph-name="braceleft" unicode="{" horiz-adv-x="338" 
d="M42 246q30 6 50 14t32.5 19.5t17.5 27.5t5 38q0 23 -4.5 52t-9.5 58.5t-9.5 57.5t-4.5 48q0 54 34 83t90 29q21 0 47 -4.5t46 -9.5v-48l-99 -15q-19 -3 -26 -10.5t-7 -24.5q0 -16 4.5 -43.5t9.5 -58.5t9.5 -61.5t4.5 -53.5q0 -22 -5 -40t-17 -33.5t-32 -28.5t-50 -25
q30 -12 50 -25t32 -28t17 -33t5 -40q0 -23 -4.5 -53.5t-9.5 -61.5t-9.5 -58.5t-4.5 -43.5q0 -17 7 -24.5t26 -10.5l99 -15v-48q-20 -5 -46 -9.5t-47 -4.5q-56 0 -90 29t-34 83q0 20 4.5 48t9.5 57.5t9.5 58.5t4.5 52q0 43 -22.5 65.5t-82.5 33.5v57v0z" />
    <glyph glyph-name="bar" unicode="|" horiz-adv-x="243" 
d="M81 709h81v-938h-81v938z" />
    <glyph glyph-name="braceright" unicode="}" horiz-adv-x="338" 
d="M296 189q-60 -11 -82.5 -33.5t-22.5 -65.5q0 -23 4.5 -52t9.5 -58.5t9.5 -57.5t4.5 -48q0 -54 -34 -83t-90 -29q-21 0 -47 4.5t-46 9.5v48l99 15q19 3 26 10.5t7 24.5q0 16 -4.5 43.5t-9.5 58.5t-9.5 61.5t-4.5 53.5q0 22 5 40t17 33.5t32 28.5t50 25q-30 12 -50 25
t-32 28t-17 33t-5 40q0 23 4.5 53.5t9.5 61.5t9.5 58.5t4.5 43.5q0 17 -7 24.5t-26 10.5l-99 15v48q20 5 46 9.5t47 4.5q56 0 90 -29t34 -83q0 -20 -4.5 -48t-9.5 -57.5t-9.5 -58.5t-4.5 -52q0 -22 5 -38t17.5 -27.5t32.5 -19.5t50 -14v-57z" />
    <glyph glyph-name="hyphen" unicode="-" horiz-adv-x="416" 
d="M57 207v74h302v-74h-302z" />
    <glyph glyph-name="uni00AD" unicode="&#xad;" horiz-adv-x="416" 
d="M57 207v74h302v-74h-302z" />
    <glyph glyph-name="endash" unicode="&#x2013;" horiz-adv-x="614" 
d="M57 207v74h500v-74h-500z" />
    <glyph glyph-name="emdash" unicode="&#x2014;" horiz-adv-x="1114" 
d="M57 207v74h1000v-74h-1000z" />
    <glyph glyph-name="underscore" unicode="_" horiz-adv-x="468" 
d="M14 -129v69h440v-69h-440z" />
    <glyph glyph-name="dagger" unicode="&#x2020;" horiz-adv-x="547" 
d="M304 352l5 -74q2 -24 3 -47.5t1 -46.5v-165q0 -24 -1 -46.5t-3 -44.5l-13 -157h-46l-13 157q-2 23 -3 46t-1 45v165q0 23 1 46.5t3 47.5l5 74l-84 -7q-34 -3 -52.5 -4t-34.5 -1h-32v76h32q16 0 34.5 -1t52.5 -4l85 -7l-5 70q-2 32 -3.5 60.5t-1.5 49.5v79h80v-80
q0 -21 -1.5 -48.5t-3.5 -61.5l-4 -69l85 7q34 3 52.5 4t34.5 1h32v-76h-32q-16 0 -34.5 1t-52.5 4z" />
    <glyph glyph-name="daggerdbl" unicode="&#x2021;" horiz-adv-x="547" 
d="M304 84l85 7q34 3 52.5 4t34.5 1h32v-76h-32q-16 0 -34.5 1t-52.5 4l-85 7l4 -69q2 -34 3.5 -62.5t1.5 -49.5v-80h-80v79q0 21 1.5 50.5t3.5 61.5l5 70l-85 -7q-34 -3 -52.5 -4t-34.5 -1h-32v76h32q16 0 34.5 -1t52.5 -4l84 -7l-5 42q-3 24 -4 46t-1 45t1 45t4 46l5 42
l-84 -7q-34 -3 -52.5 -4t-34.5 -1h-32v76h32q16 0 34.5 -1t52.5 -4l85 -7l-5 72q-2 32 -3.5 60.5t-1.5 49.5v79h80v-80q0 -21 -1.5 -48.5t-3.5 -61.5l-4 -71l85 7q34 3 52.5 4t34.5 1h32v-76h-32q-16 0 -34.5 1t-52.5 4l-85 7l5 -42q3 -24 4 -46t1 -45t-1 -45t-4 -46z" />
    <glyph glyph-name="section" unicode="&#xa7;" horiz-adv-x="582" 
d="M521 192q0 -41 -20.5 -76.5t-47.5 -62.5q47 -47 47 -120q0 -38 -15 -69.5t-43 -54t-66.5 -35.5t-85.5 -13q-54 0 -104 15t-93 39l19 55l47 -12q35 -9 66 -14t59 -5q58 0 94.5 23.5t36.5 71.5q0 22 -8 38t-22 28t-34.5 21.5t-44.5 17.5l-66 22q-40 14 -73 30t-56.5 37.5
t-36.5 49t-13 63.5q0 40 20 76t48 63q-47 46 -47 120q0 37 15 69t43 54.5t66.5 35.5t85.5 13q54 0 104 -15t93 -39l-19 -55l-47 12q-35 9 -66 14t-59 5q-58 0 -94.5 -23.5t-36.5 -71.5q0 -22 8 -38t22 -28t34.5 -21.5t44.5 -17.5l66 -22q40 -14 73 -30t56.5 -37.5t36.5 -49
t13 -63.5zM397 90q17 22 28.5 46.5t11.5 47.5q0 37 -26 62t-95 48l-69 23q-17 6 -32.5 12t-29.5 14q-17 -22 -28.5 -46.5t-11.5 -47.5q0 -19 6 -34t20 -28t37 -24.5t58 -23.5l69 -23q17 -6 32.5 -12t29.5 -14z" />
    <glyph glyph-name="paragraph" unicode="&#xb6;" horiz-adv-x="537" 
d="M229 -229v638h-146q-24 0 -31.5 8.5t-7.5 28.5v217h483v-68h-86v-824h-72v824h-68v-824h-72z" />
    <glyph glyph-name="registered" unicode="&#xae;" horiz-adv-x="748" 
d="M317 189h-61v290h120q29 0 51 -6t37 -20q11 -11 18 -27.5t7 -37.5q0 -30 -15 -51.5t-40 -34.5l66 -113h-55q-10 0 -14 7l-52 93q-3 4 -8 4h-54v-104zM317 343h82q14 0 20 9q10 15 10 35q0 19 -11 30q-12 11 -44 11h-57v-85zM110 332q0 -60 19 -110t54 -86t83.5 -56
t107.5 -20t107.5 20t83.5 56t54 86t19 110t-19 110t-54 86t-83.5 55.5t-107.5 19.5t-107.5 -19.5t-83.5 -55.5t-54 -86t-19 -110zM713 332q0 -71 -26 -133t-72 -108.5t-107.5 -73.5t-133.5 -27t-133.5 27t-107.5 73.5t-72 108.5t-26 133q0 70 26 132.5t72 108.5t107.5 73
t133.5 27t133.5 -27t107.5 -73t72 -108.5t26 -132.5z" />
    <glyph glyph-name="copyright" unicode="&#xa9;" horiz-adv-x="748" 
d="M507 246q-25 -26 -59.5 -43.5t-71.5 -17.5q-31 0 -57.5 11t-45.5 30.5t-30 47t-11 60.5q0 35 11.5 62.5t31 47t46 29.5t55.5 10q42 0 75 -23t48 -61l-37 -26l-28 26q-14 14 -28.5 20.5t-33.5 6.5q-31 0 -53.5 -22t-22.5 -70q0 -39 21 -65t65 -26q26 0 63 19l39 20z
M110 332q0 -60 19 -110t54 -86t83.5 -56t107.5 -20t107.5 20t83.5 56t54 86t19 110t-19 110t-54 86t-83.5 55.5t-107.5 19.5t-107.5 -19.5t-83.5 -55.5t-54 -86t-19 -110zM713 332q0 -71 -26 -133t-72 -108.5t-107.5 -73.5t-133.5 -27t-133.5 27t-107.5 73.5t-72 108.5
t-26 133q0 70 26 132.5t72 108.5t107.5 73t133.5 27t133.5 -27t107.5 -73t72 -108.5t26 -132.5z" />
    <glyph glyph-name="trademark" unicode="&#x2122;" horiz-adv-x="698" 
d="M178 356h-66v252h-94v55h254v-55h-94v-252zM650 663v-307h-62v198l-82 -106h-37q-10 0 -14 6l-82 105v-203h-61v307h46q6 0 8.5 -1.5t4.5 -4.5l112 -145l109 145q5 6 15 6h43z" />
    <glyph glyph-name="quotedblleft" unicode="&#x201c;" horiz-adv-x="383" 
d="M216 490q0 22 4 39.5t15 37t31 43.5t53 58l31 -24l-61 -109q-4 -7 -3 -9.5t6 -5.5l14 -9q8 -5 10 -9.5t2 -12.5v-72h-82q-12 0 -16 3.5t-4 13.5v56zM53 490q0 22 4 39.5t15 37t31 43.5t53 58l31 -24l-61 -109q-4 -7 -3 -9.5t6 -5.5l14 -9q8 -5 10 -9.5t2 -12.5v-72h-82
q-12 0 -16 3.5t-4 13.5v56z" />
    <glyph glyph-name="quotedblright" unicode="&#x201d;" horiz-adv-x="383" 
d="M167 590q0 -22 -4 -39.5t-15 -37t-31 -43.5t-53 -58l-31 24l61 109q4 7 3 9.5t-6 5.5l-14 9q-8 5 -10 9.5t-2 12.5v72h82q12 0 16 -3.5t4 -13.5v-56zM330 590q0 -22 -4 -39.5t-15 -37t-31 -43.5t-53 -58l-31 24l61 109q4 7 3 9.5t-6 5.5l-14 9q-8 5 -10 9.5t-2 12.5v72
h82q12 0 16 -3.5t4 -13.5v-56z" />
    <glyph glyph-name="quoteleft" unicode="&#x2018;" horiz-adv-x="220" 
d="M53 490q0 22 4 39.5t15 37t31 43.5t53 58l31 -24l-61 -109q-4 -7 -3 -9.5t6 -5.5l14 -9q8 -5 10 -9.5t2 -12.5v-72h-82q-12 0 -16 3.5t-4 13.5v56z" />
    <glyph glyph-name="quoteright" unicode="&#x2019;" horiz-adv-x="220" 
d="M167 590q0 -22 -4 -39.5t-15 -37t-31 -43.5t-53 -58l-31 24l61 109q4 7 3 9.5t-6 5.5l-14 9q-8 5 -10 9.5t-2 12.5v72h82q12 0 16 -3.5t4 -13.5v-56z" />
    <glyph glyph-name="guillemotleft" unicode="&#xab;" horiz-adv-x="600" 
d="M301 85l-39 -39l-205 164q-5 5 -7 8t-2 11v44l214 171l39 -39l-162 -159v-1zM547 85l-39 -39l-205 164q-5 5 -7 8t-2 11v44l214 171l39 -39l-162 -159v-1z" />
    <glyph glyph-name="guillemotright" unicode="&#xbb;" horiz-adv-x="600" 
d="M299 405l39 39l205 -164q5 -5 7 -8t2 -11v-44l-214 -171l-39 39l162 159v1zM53 405l39 39l205 -164q5 -5 7 -8t2 -11v-44l-214 -171l-39 39l162 159v1z" />
    <glyph glyph-name="guilsinglleft" unicode="&#x2039;" horiz-adv-x="354" 
d="M301 85l-39 -39l-205 164q-5 5 -7 8t-2 11v44l214 171l39 -39l-162 -159v-1z" />
    <glyph glyph-name="guilsinglright" unicode="&#x203a;" horiz-adv-x="354" 
d="M53 405l39 39l205 -164q5 -5 7 -8t2 -11v-44l-214 -171l-39 39l162 159v1z" />
    <glyph glyph-name="quotesinglbase" unicode="&#x201a;" horiz-adv-x="216" 
d="M158 -9q0 -22 -4 -39.5t-15 -37t-31 -43.5t-53 -58l-31 24l61 109q4 7 3 9.5t-6 5.5l-14 9q-8 5 -10 9.5t-2 12.5v72h82q12 0 16 -3.5t4 -13.5v-56z" />
    <glyph glyph-name="quotedblbase" unicode="&#x201e;" horiz-adv-x="379" 
d="M158 -9q0 -22 -4 -39.5t-15 -37t-31 -43.5t-53 -58l-31 24l61 109q4 7 3 9.5t-6 5.5l-14 9q-8 5 -10 9.5t-2 12.5v72h82q12 0 16 -3.5t4 -13.5v-56zM321 -9q0 -22 -4 -39.5t-15 -37t-31 -43.5t-53 -58l-31 24l61 109q4 7 3 9.5t-6 5.5l-14 9q-8 5 -10 9.5t-2 12.5v72h82
q12 0 16 -3.5t4 -13.5v-56z" />
    <glyph glyph-name="ordfeminine" unicode="&#xaa;" horiz-adv-x="473" 
d="M308 515q0 41 -20 63q-23 25 -70 25q-41 0 -92 -18l-43 -16l-24 45q42 29 83.5 44t81.5 15q36 0 68.5 -11.5t55.5 -35.5q18 -19 28 -45t10 -64v-188l52 -10v-41q-13 -6 -29 -10t-30 -4q-44 0 -63 36l-20 -10q-64 -32 -111 -32q-31 0 -57.5 10t-46 27.5t-31 41.5t-11.5 53
q0 57 37 82t98 25h8q24 0 60.5 -2.5t65.5 -6.5v27zM308 430q0 7 -8 7h-143q-20 0 -31 -10t-11 -34q0 -31 22 -49.5t62 -18.5q23 0 52 8t48 16q9 4 9 14v67z" />
    <glyph glyph-name="ordmasculine" unicode="&#xba;" horiz-adv-x="472" 
d="M437 466q0 -48 -16 -86t-43.5 -65t-64 -41.5t-77.5 -14.5t-77.5 14.5t-64 41.5t-43.5 65t-16 86t16 86t43.5 65t64 41.5t77.5 14.5t77.5 -14.5t64 -41.5t43.5 -65t16 -86zM356 466q0 60 -30 97t-90 37t-90 -37t-30 -97t30 -97t90 -37t90 37t30 97z" />
    <glyph glyph-name="arrowleft" unicode="&#x2190;" horiz-adv-x="779" 
d="M264 469l39 -39l-133 -149h545v-71h-546l134 -152l-39 -39l-200 200v39q0 12 7 19z" />
    <glyph glyph-name="arrowup" unicode="&#x2191;" horiz-adv-x="779" 
d="M615 369l-39 -39l-147 133v-545h-76v546l-150 -134l-38 39l199 200h39q8 0 11 -1t8 -6z" />
    <glyph glyph-name="arrowright" unicode="&#x2192;" horiz-adv-x="779" 
d="M515 22l-39 39l133 149h-545v71h546l-134 152l39 39l200 -200v-39q0 -7 -1 -10.5t-6 -8.5z" />
    <glyph glyph-name="arrowdown" unicode="&#x2193;" horiz-adv-x="779" 
d="M165 118l38 39l147 -133v545h76v-546l150 134l39 -38l-200 -201h-39q-7 0 -10.5 1.5t-8.5 6.5z" />
    <glyph glyph-name="zero" unicode="0" 
d="M564 331q0 -75 -17.5 -137.5t-51 -107.5t-81.5 -70.5t-108 -25.5t-108 25.5t-81.5 70.5t-51 107.5t-17.5 137.5t17.5 137.5t51 108t81.5 71t108 25.5t108 -25.5t81.5 -71t51 -108t17.5 -137.5zM472 331q0 120 -39 189t-127 69t-127 -69t-39 -189t39 -188.5t127 -68.5
t127 68.5t39 188.5z" />
    <glyph glyph-name="one" unicode="1" 
d="M111 74h178v494q-5 -3 -15 -7.5t-22.5 -10t-26.5 -11.5t-27 -10l-82 -29l-26 61l202 94q10 5 18 6.5t21 1.5h47v-589h150v-74h-417v74z" />
    <glyph glyph-name="two" unicode="2" 
d="M524 77v-77h-444v46q0 10 2.5 15t10.5 14l196 206q30 31 54 57t40.5 49.5t25.5 46t9 46.5q0 57 -35.5 84.5t-91.5 27.5q-31 0 -62 -8t-68 -22l-60 -23l-29 51q53 39 111 61t115 22q43 0 82 -13t67.5 -37.5t45.5 -59.5t17 -78q0 -33 -9 -61t-28.5 -57.5t-50.5 -63
t-75 -76.5l-153 -150h330z" />
    <glyph glyph-name="three" unicode="3" 
d="M342 371q17 0 26 3t19 14q14 16 23 43.5t9 52.5q0 55 -33.5 81.5t-87.5 26.5q-35 0 -68 -8t-74 -23l-57 -21l-29 52q58 39 116 60t117 21q43 0 80.5 -12.5t65 -35t43.5 -54t16 -69.5q0 -78 -67 -154q46 -21 70 -60t24 -90q0 -48 -17.5 -86.5t-48.5 -65.5t-73.5 -41.5
t-92.5 -14.5q-71 0 -137.5 25t-119.5 68l29 49l71 -27q41 -16 78 -24.5t73 -8.5q66 0 106 34t40 94q0 52 -26 77q-14 13 -35.5 19.5t-53.5 6.5h-72q-9 0 -12 2.5t-3 9.5v56h101z" />
    <glyph glyph-name="four" unicode="4" 
d="M388 240v321q-3 -5 -12 -17t-20.5 -27t-23.5 -31t-22 -29l-112 -142q-17 -22 -35.5 -42.5t-29.5 -32.5h255zM368 650q7 8 11.5 10.5t14.5 2.5h82v-423h94v-75h-94v-165h-88v165h-346v58q0 10 2 15t9 14z" />
    <glyph glyph-name="five" unicode="5" 
d="M113 327q-8 5 -10 9t-2 12v315h386v-77h-301v-105q0 -29 -1 -57t-3 -47q29 15 68.5 22.5t74.5 7.5q46 0 84.5 -14t67 -40.5t44.5 -63t16 -81.5q0 -44 -14.5 -83.5t-43.5 -69.5t-72 -47.5t-100 -17.5q-62 0 -126.5 23.5t-114.5 64.5l30 51l57 -22q45 -17 81 -26t68 -9
q70 0 106.5 36.5t36.5 102.5q0 65 -40 93t-106 28q-16 0 -34.5 -2t-36.5 -5.5t-34 -8t-27 -8.5q-8 -3 -12.5 -3t-14.5 6z" />
    <glyph glyph-name="six" unicode="6" 
d="M493 577q-41 11 -71 15t-55 4q-51 0 -89 -18t-64.5 -49t-40.5 -73.5t-17 -90.5l26 10q52 20 89.5 30t74.5 10q43 0 82 -13t67.5 -38.5t45.5 -63t17 -86.5q0 -54 -19.5 -96t-52 -70.5t-74 -43t-85.5 -14.5q-56 0 -104 21.5t-83 62t-55 99t-20 131.5v5q0 78 21 144.5
t59 115.5t92.5 76.5t122.5 27.5q41 0 80 -11.5t74 -29.5zM156 276q0 -43 11.5 -80.5t33.5 -65.5t54 -44t73 -16q66 0 103.5 37.5t37.5 106.5q0 60 -34.5 93t-107.5 33q-38 0 -79.5 -9t-73.5 -25q-14 -7 -16 -12.5t-2 -14.5v-3z" />
    <glyph glyph-name="seven" unicode="7" 
d="M185 0q1 43 6 81t16.5 75.5t30.5 78t48 88.5l71 118q29 48 52 84t38 59h-383v79h483v-45q0 -12 -3 -21t-11 -23l-139 -233q-36 -61 -58 -106t-34.5 -83t-17.5 -74t-7 -78h-92z" />
    <glyph glyph-name="eight" unicode="8" 
d="M165 364q-36 26 -57.5 58.5t-21.5 76.5q0 40 18.5 72.5t49.5 55t71 34.5t82 12q44 0 85 -12.5t72 -35t49.5 -54.5t18.5 -71q0 -45 -26.5 -86t-68.5 -74q26 -12 48.5 -26.5t39.5 -33t26.5 -41.5t9.5 -53q0 -39 -19.5 -74.5t-53.5 -62.5t-81 -43t-102 -16q-52 0 -98 14.5
t-80.5 41t-55 63.5t-20.5 82q0 27 9 52t24.5 47t36.5 40.5t44 33.5zM471 184q0 25 -14.5 43.5t-43 35t-72.5 32t-102 34.5q-12 4 -18 2t-16 -10q-30 -25 -47.5 -54.5t-17.5 -64.5q0 -60 46 -96t123 -36q34 0 63.5 8.5t51.5 23.5t34.5 36t12.5 46zM169 501q0 -25 12 -43
t35.5 -32.5t58 -27.5t80.5 -27q12 -4 16 -3.5t14 7.5q12 9 23 21t20 26t14.5 29.5t5.5 31.5q0 56 -39.5 83.5t-102.5 27.5q-28 0 -53 -6t-43.5 -18t-29.5 -29.5t-11 -39.5z" />
    <glyph glyph-name="nine" unicode="9" 
d="M121 88q39 -11 73 -14.5t56 -3.5q53 0 90 16t61 46t36 72t15 94l-26 -11q-41 -17 -84 -28t-80 -11q-44 0 -83 14t-67.5 40t-45 63.5t-16.5 85.5q0 46 16.5 86.5t47 70.5t73 47.5t94.5 17.5q56 0 104 -21.5t83 -62t55 -99t20 -131.5v-5q0 -92 -23 -168t-74 -126
q-34 -33 -79.5 -51.5t-106.5 -18.5q-38 0 -83 11t-77 31zM453 387q0 43 -11.5 80.5t-34 65.5t-54.5 44t-73 16q-65 0 -103 -38t-38 -100t35 -97t107 -35q38 0 80 9t74 25q14 7 16 12t2 15v3z" />
    <glyph glyph-name="dollar" unicode="$" 
d="M154 93q35 -8 67.5 -14t60.5 -8v250l-25 9q-43 15 -76.5 32t-57 37.5t-35.5 47t-12 61.5q0 37 15.5 66.5t42.5 50.5t65 32.5t83 14.5l8 106h50v-106q42 -3 87 -13t86 -26l-15 -59l-60 8q-25 3 -50 5.5t-48 3.5v-202q52 -17 90.5 -35.5t64 -42t38 -53.5t12.5 -70
q0 -83 -54.5 -135.5t-150.5 -60.5l-8 -108h-50v107q-58 4 -116.5 21.5t-99.5 41.5l23 54zM458 187q0 21 -6 37.5t-20 29.5t-36.5 24t-55.5 23v-228q58 7 88 36.5t30 77.5zM161 511q0 -18 6.5 -31.5t20.5 -25t37.5 -22.5t56.5 -23v182q-60 -3 -90.5 -22t-30.5 -58z" />
    <glyph glyph-name="cent" unicode="&#xa2;" 
d="M293 -6q-49 4 -88.5 24.5t-67 54t-42.5 77.5t-15 96q0 51 16 95t44.5 77t67.5 53t85 24l8 107h46v-109q61 -9 107.5 -47t63.5 -95l-56 -29l-35 33q-23 22 -41.5 35.5t-38.5 19.5v-336q42 4 98 30l55 25l30 -46q-39 -35 -86.5 -59t-96.5 -30l-8 -110h-46v110zM171 248
q0 -78 31.5 -120.5t90.5 -52.5v341q-54 -5 -88 -48.5t-34 -119.5z" />
    <glyph glyph-name="Euro" unicode="&#x20ac;" 
d="M102 414q9 58 31.5 105.5t56.5 81.5t77 53t94 19q74 0 131 -40.5t87 -106.5l-53 -32l-49 46q-29 27 -54.5 40.5t-62.5 13.5q-63 0 -109 -44t-59 -134h210v-59h-216q-1 -8 -1 -14v-13v-18t1 -16h216v-60h-207q12 -78 59.5 -122t117.5 -44q61 0 124 35l54 30l34 -41
q-40 -48 -99.5 -76t-120.5 -28q-51 0 -95 17.5t-78 50t-56.5 78t-30.5 101.5h-76v48l69 9q-1 10 -1.5 18.5t-0.5 19.5v12.5t1 12.5h-68v48z" />
    <glyph glyph-name="florin" unicode="&#x192;" 
d="M337 -52q0 -50 -11.5 -81.5t-32.5 -54.5q-24 -26 -59 -39t-77 -13q-30 0 -60.5 7t-56.5 21l14 51q26 -4 49 -6t40 -2q58 0 83 27.5t25 88.5v313h-110v48l110 15v162q0 50 11.5 81.5t32.5 54.5q24 26 59 39t77 13q30 0 60.5 -7t56.5 -21l-14 -51q-26 4 -49 6t-40 2
q-58 0 -83 -27.5t-25 -88.5v-161h165v-65h-165v-312z" />
    <glyph glyph-name="sterling" unicode="&#xa3;" 
d="M552 0h-465v48q0 10 1.5 14.5t9.5 13.5l29 36q24 30 32 49t8 40q0 17 -6 41.5t-15 53.5h-94v49l76 11q-9 32 -15.5 63t-6.5 60q0 44 15.5 80t43 61.5t66 39t85.5 13.5q73 0 135 -35.5t97 -92.5l-49 -40l-51 37q-32 23 -64 36.5t-70 13.5q-56 0 -89 -28.5t-33 -85.5
q0 -26 6.5 -56.5t16.5 -61.5h207v-64h-188q18 -57 18 -92q0 -32 -16.5 -60t-52.5 -69h369v-75z" />
    <glyph glyph-name="yen" unicode="&#xa5;" 
d="M377 265h119v-60h-144v-39h144v-60h-144v-106h-91v106h-142v60h142v39h-142v60h116l-225 398h87q11 0 16 -9l108 -194q13 -23 25.5 -47t24 -47l21.5 -43t16 -35h1q14 32 36.5 76.5t50.5 95.5l107 194q5 9 16 9h82z" />
    <glyph glyph-name="numbersign" unicode="#" 
d="M425 663h75l-34 -192h86v-71h-99l-25 -138h124v-71h-136l-33 -191h-75l33 191h-122l-33 -191h-75l33 191h-84v71h97l24 138h-121v71h134l34 192h75l-34 -192h122zM232 262h121l25 138h-122z" />
    <glyph glyph-name="percent" unicode="%" horiz-adv-x="885" 
d="M384 501q0 -38 -13 -69.5t-36 -54t-54 -35.5t-67 -13h-2q-36 0 -67 13t-54 35.5t-36 54t-13 69.5q0 37 13 69t36 54.5t54 35.5t67 13h2q36 0 67 -13t54 -35.5t36 -54.5t13 -69zM307 501q0 51 -24.5 74.5t-68.5 23.5h-2q-44 0 -68.5 -23.5t-24.5 -74.5t24.5 -74.5
t68.5 -23.5h2q44 0 68.5 23.5t24.5 74.5zM843 162q0 -38 -13 -69.5t-36 -54t-54 -35.5t-67 -13h-2q-36 0 -67 13t-54 35.5t-36 54t-13 69.5q0 37 13 69t36 54.5t54 35.5t67 13h2q36 0 67 -13t54 -35.5t36 -54.5t13 -69zM766 162q0 51 -24.5 74.5t-68.5 23.5h-2
q-44 0 -68.5 -23.5t-24.5 -74.5t24.5 -74.5t68.5 -23.5h2q44 0 68.5 23.5t24.5 74.5zM237 0l329 663h81l-328 -663h-82z" />
    <glyph glyph-name="perthousand" unicode="&#x2030;" horiz-adv-x="1270" 
d="M384 501q0 -38 -13 -69.5t-36 -54t-54 -35.5t-67 -13h-2q-36 0 -67 13t-54 35.5t-36 54t-13 69.5q0 37 13 69t36 54.5t54 35.5t67 13h2q36 0 67 -13t54 -35.5t36 -54.5t13 -69zM307 501q0 51 -24.5 74.5t-68.5 23.5h-2q-44 0 -68.5 -23.5t-24.5 -74.5t24.5 -74.5
t68.5 -23.5h2q44 0 68.5 23.5t24.5 74.5zM843 162q0 -38 -13 -69.5t-36 -54t-54 -35.5t-67 -13h-2q-36 0 -67 13t-54 35.5t-36 54t-13 69.5q0 37 13 69t36 54.5t54 35.5t67 13h2q36 0 67 -13t54 -35.5t36 -54.5t13 -69zM766 162q0 51 -24.5 74.5t-68.5 23.5h-2
q-44 0 -68.5 -23.5t-24.5 -74.5t24.5 -74.5t68.5 -23.5h2q44 0 68.5 23.5t24.5 74.5zM1228 162q0 -38 -13 -69.5t-36 -54t-54 -35.5t-67 -13h-2q-36 0 -67 13t-54 35.5t-36 54t-13 69.5q0 37 13 69t36 54.5t54 35.5t67 13h2q36 0 67 -13t54 -35.5t36 -54.5t13 -69zM1151 162
q0 51 -24.5 74.5t-68.5 23.5h-2q-44 0 -68.5 -23.5t-24.5 -74.5t24.5 -74.5t68.5 -23.5h2q44 0 68.5 23.5t24.5 74.5zM237 0l329 663h81l-328 -663h-82z" />
    <glyph glyph-name="plus" unicode="+" horiz-adv-x="532" 
d="M230 435h71v-154h155v-71h-155v-155h-71v155h-154v71h154v154z" />
    <glyph glyph-name="minus" unicode="&#x2212;" horiz-adv-x="532" 
d="M456 281v-71h-380v71h380z" />
    <glyph glyph-name="multiply" unicode="&#xd7;" horiz-adv-x="536" 
d="M108 354l50 50l109 -109l110 110l50 -50l-110 -110l110 -110l-50 -50l-110 110l-109 -109l-50 50l109 109z" />
    <glyph glyph-name="less" unicode="&#x3c;" horiz-adv-x="532" 
d="M456 451v-82l-276 -123v-1l276 -123v-82l-380 176v59z" />
    <glyph glyph-name="divide" unicode="&#xf7;" horiz-adv-x="532" 
d="M456 281v-71h-380v71h380zM313 40h-94v94h77q11 0 14 -3.5t3 -11.5v-79zM313 357h-94v94h77q11 0 14 -3.5t3 -11.5v-79z" />
    <glyph glyph-name="equal" unicode="=" horiz-adv-x="532" 
d="M456 374v-71h-380v71h380zM456 188v-71h-380v71h380z" />
    <glyph glyph-name="logicalnot" unicode="&#xac;" horiz-adv-x="532" 
d="M456 374v-257h-71v186h-309v71h380z" />
    <glyph glyph-name="greater" unicode="&#x3e;" horiz-adv-x="532" 
d="M456 275v-59l-380 -176v82l276 123v1l-276 123v82z" />
    <glyph glyph-name="notequal" unicode="&#x2260;" horiz-adv-x="532" 
d="M456 188v-71h-217l-42 -93l-53 21l33 72h-101v71h133l53 115h-186v71h218l42 91l52 -21l-32 -70h100v-71h-132l-53 -115h185z" />
    <glyph glyph-name="approxequal" unicode="&#x2248;" horiz-adv-x="532" 
d="M468 384q-13 -46 -47 -75t-76 -29q-23 0 -43.5 7t-40.5 15t-38.5 15t-36.5 7q-26 0 -42.5 -11t-32.5 -36l-48 17q13 46 47 75t76 29q22 0 43 -7t41 -15t38.5 -15t36.5 -7q26 0 42.5 11t32.5 36zM468 195q-13 -46 -47 -75t-76 -29q-23 0 -43.5 7t-40.5 15.5t-38.5 15.5
t-36.5 7q-26 0 -42.5 -11.5t-32.5 -35.5l-48 17q13 46 47 75t76 29q22 0 43 -7t41 -15.5t38.5 -15.5t36.5 -7q26 0 42.5 11.5t32.5 35.5z" />
    <glyph glyph-name="plusminus" unicode="&#xb1;" horiz-adv-x="532" 
d="M230 492h71v-134h155v-71h-155v-135h-71v135h-154v71h154v134zM456 71v-71h-380v71h380z" />
    <glyph glyph-name="lessequal" unicode="&#x2264;" horiz-adv-x="532" 
d="M456 492v-78l-261 -93v-1l261 -93v-78l-380 142v60zM456 71v-71h-380v71h380z" />
    <glyph glyph-name="greaterequal" unicode="&#x2265;" horiz-adv-x="532" 
d="M456 351v-60l-380 -142v78l261 93v1l-261 93v78zM456 71v-71h-380v71h380z" />
    <glyph glyph-name="asciicircum" unicode="^" horiz-adv-x="532" 
d="M463 453l-61 -41l-136 179h-1l-136 -179l-60 41l165 220h64z" />
    <glyph glyph-name="asciitilde" unicode="~" horiz-adv-x="532" 
d="M468 384q-13 -46 -47 -75t-76 -29q-23 0 -43.5 7t-40.5 15t-38.5 15t-36.5 7q-26 0 -42.5 -11t-32.5 -36l-48 17q13 46 47 75t76 29q22 0 43 -7t41 -15t38.5 -15t36.5 -7q26 0 42.5 11t32.5 36z" />
    <glyph glyph-name="lozenge" unicode="&#x25ca;" horiz-adv-x="617" 
d="M483 332l-175 254l-175 -254l175 -256zM277 0q-7 0 -9.5 1.5t-6.5 6.5l-204 297q-11 16 -11 27q0 9 11 26l210 305h72q7 0 10 -1.5t7 -7.5l203 -296q11 -17 11 -26q0 -11 -11 -27l-209 -305h-73z" />
    <glyph glyph-name="degree" unicode="&#xb0;" horiz-adv-x="446" 
d="M53 507q0 37 13 67.5t36 52.5t54 34t67 12t67 -12t54 -34t36 -52.5t13 -67.5t-13 -67.5t-36 -52.5t-54 -34t-67 -12t-67 12t-54 34t-36 52.5t-13 67.5zM317 507q0 45 -24.5 71t-69.5 26t-69.5 -26t-24.5 -71t24.5 -71t69.5 -26t69.5 26t24.5 71z" />
    <glyph glyph-name="quotesingle" unicode="'" horiz-adv-x="230" 
d="M142 401h-54l-13 122q-3 32 -4.5 53.5t-1.5 42.5v44h92v-44q0 -21 -1.5 -43t-4.5 -53z" />
    <glyph glyph-name="quotedbl" unicode="&#x22;" horiz-adv-x="395" 
d="M142 401h-54l-13 122q-3 32 -4.5 53.5t-1.5 42.5v44h92v-44q0 -21 -1.5 -43t-4.5 -53zM307 401h-54l-13 122q-3 32 -4.5 53.5t-1.5 42.5v44h92v-44q0 -21 -1.5 -43t-4.5 -53z" />
    <glyph glyph-name="radical" unicode="&#x221a;" horiz-adv-x="724" 
d="M653 783q4 10 15 10h77l-323 -793h-73q-12 0 -16 10l-175 409h-97v69h148q7 0 9.5 -2t5.5 -8l111 -266q14 -34 26 -65.5t20 -57.5h1q15 52 43 123z" />
    <glyph glyph-name="currency" unicode="&#xa4;" horiz-adv-x="616" 
d="M508 331q0 -62 -27 -107l74 -74l-56 -56l-71 70q-51 -39 -120 -39t-120 39l-71 -70l-56 56l74 74q-27 45 -27 107t27 107l-74 74l56 56l71 -70q51 39 120 39t120 -39l71 70l56 -56l-74 -74q27 -45 27 -107zM427 331q0 60 -30.5 96t-88.5 36t-88.5 -36t-30.5 -96t30.5 -96
t88.5 -36t88.5 36t30.5 96z" />
    <glyph glyph-name="infinity" unicode="&#x221e;" horiz-adv-x="731" 
d="M362 217q-24 -42 -59 -65.5t-83 -23.5q-38 0 -68.5 16.5t-52.5 44t-34 64t-12 77.5t12 77t34 63t52.5 43t68.5 16q43 0 80 -23.5t69 -64.5q24 42 59 65.5t83 23.5q37 0 68 -16.5t53 -44t34 -64.5t12 -77q0 -41 -12 -77t-34 -63t-53 -43t-68 -16q-43 0 -80 23.5t-69 64.5z
M219 206q21 0 37.5 10.5t30 30.5t25.5 49t25 66q4 14 0 21q-8 13 -20 26t-26.5 23t-31 16.5t-32.5 6.5q-43 0 -69 -33t-26 -93q0 -25 5 -47t16 -39t27 -27t39 -10zM512 452q-21 0 -37.5 -10.5t-30 -30.5t-25.5 -49t-25 -66q-4 -14 0 -21q8 -13 20 -26t26.5 -23t31 -16.5
t32.5 -6.5q43 0 69 33t26 93q0 25 -5 47t-16 39t-27.5 27t-38.5 10z" />
    <glyph glyph-name="uni00B5" unicode="&#xb5;" horiz-adv-x="584" 
d="M67 488h88v-304q0 -34 6 -52t19 -31q14 -14 38 -20t53 -6h1q32 0 65.5 8t56.5 19q6 3 7.5 6.5t1.5 9.5v370h88v-416l71 -13v-45q-15 -7 -35 -11.5t-39 -4.5q-27 0 -46 12t-30 32l-29 -14q-35 -17 -66 -26.5t-63 -9.5q-29 0 -54.5 7t-44.5 20v-248h-88v717z" />
    <glyph glyph-name="partialdiff" unicode="&#x2202;" horiz-adv-x="619" 
d="M457 279q0 9 -2.5 14.5t-11.5 10.5q-32 16 -74 25t-80 9q-73 0 -106 -33.5t-33 -90.5q0 -66 36 -104t102 -38q41 0 72.5 16.5t53 44.5t32.5 65t11 78v3zM102 632q35 18 74 29.5t80 11.5q67 0 122 -27.5t93 -76.5t59 -115.5t21 -144.5v-5q0 -73 -20 -131.5t-55 -99
t-83 -62t-104 -21.5q-44 0 -85.5 14.5t-73.5 43t-51.5 70.5t-19.5 96q0 49 16.5 86.5t45.5 63t67 38.5t82 13q37 0 76 -10t88 -30l23 -9q-3 47 -17 88.5t-39.5 72.5t-63 49t-88.5 18q-25 0 -54.5 -4t-70.5 -15z" />
    <glyph glyph-name="summation" unicode="&#x2211;" horiz-adv-x="595" 
d="M35 663h514v-77h-393l317 -353v-34l-311 -352h400v-76h-523v44q0 10 2 15t10 14l331 372l-335 373q-8 9 -10 14t-2 16v44z" />
    <glyph glyph-name="product" unicode="&#x220f;" horiz-adv-x="747" 
d="M500 586h-253v-815h-91v815h-125v77h685v-77h-125v-815h-91v815z" />
    <glyph glyph-name="integral" unicode="&#x222b;" horiz-adv-x="630" 
d="M172 -162q20 -4 40.5 -6.5t39.5 -2.5q54 0 81 26t27 82q0 41 -12.5 85.5t-32 91t-41.5 94.5t-41.5 96t-32 95t-12.5 93q0 39 12 72t35 57.5t56 38t74 13.5q30 0 57 -7t53 -20l-15 -51q-20 4 -40.5 6.5t-39.5 2.5q-54 0 -81 -26t-27 -82q0 -42 12.5 -86.5t32 -91
t41.5 -94.5t41.5 -95.5t32 -95t12.5 -92.5q0 -39 -12 -72t-35 -57.5t-56 -38t-74 -13.5q-31 0 -57.5 6.5t-53.5 20.5z" />
    <glyph glyph-name="Ohm" unicode="&#x2126;" horiz-adv-x="725" 
d="M356 673q63 0 121 -22.5t102 -63t70.5 -96t26.5 -121.5q0 -40 -8.5 -74.5t-28.5 -69t-52.5 -71.5t-80.5 -82h159v-73h-254v48q0 13 1 16.5t9 11.5l61 72q42 48 70.5 99.5t28.5 112.5q0 54 -18.5 95.5t-49.5 70t-71.5 43t-85.5 14.5t-86 -15t-71.5 -43.5t-49 -70
t-18.5 -94.5q0 -61 29 -113t70 -99l62 -72q7 -8 8 -11.5t1 -16.5v-48h-253v73h163q-48 43 -81 79t-54 70.5t-30 70t-9 77.5q0 66 26 121.5t70.5 96t102 63t120.5 22.5z" />
    <glyph glyph-name="glyph161" unicode="&#x2206;" horiz-adv-x="673" 
d="M430 77q22 0 51.5 -0.5t50.5 -2.5q-4 7 -10 19.5t-12.5 28t-13.5 32t-13 31.5l-81 203q-9 22 -20 49t-21.5 53.5t-20 51t-15.5 41.5q-5 -17 -14.5 -42t-20 -52t-20.5 -53t-17 -45l-89 -232q-8 -20 -18 -45.5t-18 -39.5q21 2 50.5 2.5t51.5 0.5h200zM625 0h-588v49
q0 14 1.5 21.5t7.5 21.5l229 571h90q8 0 11.5 -2.5t5.5 -8.5l234 -559q6 -14 7.5 -21.5t1.5 -21.5v-50z" />
    <glyph glyph-name="litre" unicode="&#x2113;" horiz-adv-x="250" 
d="M243 14q-15 -7 -40 -12t-45 -5q-42 0 -66 24t-24 71v617h88v-637l87 -14v-44z" />
    <glyph glyph-name="estimated" unicode="&#x212e;" horiz-adv-x="873" 
d="M201 323q-8 0 -8 -6v-187q0 -7 3 -11t9 -10q44 -45 104.5 -71.5t129.5 -26.5q74 0 136.5 30t107.5 80h56q-54 -60 -132 -95.5t-169 -35.5q-79 0 -149 26.5t-122 72.5t-82 108.5t-30 133.5t30 133.5t82 109t122 73t149 26.5q78 0 147 -26.5t120.5 -73t82 -109t30.5 -133.5
v-8h-617zM679 537q0 6 -3.5 11t-9.5 11q-42 44 -101.5 69t-125.5 25q-69 0 -129 -26t-105 -71q-6 -6 -9 -11t-3 -13v-185q0 -5 8 -5h470q8 0 8 5v190z" />
    <glyph glyph-name="numero" unicode="&#x2116;" horiz-adv-x="1086" 
d="M1059 505q0 -39 -14 -69.5t-37 -52.5t-53.5 -33.5t-63.5 -11.5t-63.5 11.5t-53.5 33t-36.5 52.5t-13.5 70t13.5 70t37 53t53.5 33.5t63 11.5t63.5 -11.5t53.5 -33t37 -53t14 -70.5zM983 505q0 49 -25.5 72.5t-66.5 23.5q-42 0 -66.5 -23t-24.5 -73q0 -49 24.5 -72.5
t66.5 -23.5t67 23t25 73zM162 0h-89v663h64q8 0 12 -1.5t10 -8.5l286 -358q17 -21 34.5 -43t33.5 -43t29.5 -38.5t22.5 -29.5v522h89v-663h-63q-8 0 -12 1.5t-10 8.5l-286 358q-17 21 -34.5 43.5t-34 43.5t-30.5 39t-22 29v-523z" />
    <glyph glyph-name="fraction" unicode="&#x2044;" horiz-adv-x="390" 
d="M-10 0l329 663h81l-328 -663h-82z" />
    <glyph glyph-name="onesuperior" unicode="&#xb9;" horiz-adv-x="396" 
d="M173 392v208q-5 -4 -14.5 -8.5t-22.5 -9.5l-46 -15l-20 48l114 49q8 3 11.5 4t9.5 1h35v-277h74v-56h-231v56h90z" />
    <glyph glyph-name="twosuperior" unicode="&#xb2;" horiz-adv-x="396" 
d="M315 393v-57h-237v36q0 8 1 10t6 7l103 103q25 25 36.5 43t11.5 36q0 20 -13.5 31.5t-36.5 11.5q-17 0 -33.5 -4.5t-39.5 -12.5l-27 -10l-21 40q27 20 59.5 33t64.5 13q53 0 84.5 -28.5t31.5 -72.5q0 -32 -18.5 -59t-62.5 -67l-59 -53h150z" />
    <glyph glyph-name="threesuperior" unicode="&#xb3;" horiz-adv-x="396" 
d="M131 404q18 -7 34 -11t32 -4q27 0 42 13t15 39q0 16 -8 24q-7 7 -17 9t-27 2h-34q-9 0 -9 8v41h64q10 0 15 7q5 8 7.5 18.5t2.5 18.5q0 22 -13.5 33.5t-37.5 11.5q-16 0 -31 -3.5t-32 -10.5l-35 -13l-22 40q29 20 61 33t63 13q22 0 42.5 -6.5t36.5 -18.5t25 -29.5
t9 -39.5q0 -40 -33 -73q43 -22 43 -70q0 -51 -34.5 -78.5t-88.5 -27.5q-38 0 -74.5 15t-62.5 38l22 38z" />
    <glyph glyph-name="onehalf" unicode="&#xbd;" horiz-adv-x="880" 
d="M247 0l329 663h81l-328 -663h-82zM175 386v208q-5 -4 -14.5 -8.5t-22.5 -9.5l-46 -15l-20 48l114 49q8 3 11.5 4t9.5 1h35v-277h74v-56h-231v56h90zM800 57v-57h-237v36q0 8 1 10t6 7l103 103q25 25 36.5 43t11.5 36q0 20 -13.5 31.5t-36.5 11.5q-17 0 -33.5 -4.5
t-39.5 -12.5l-27 -10l-21 40q27 20 59.5 33t64.5 13q53 0 84.5 -28.5t31.5 -72.5q0 -32 -18.5 -59t-62.5 -67l-59 -53h150z" />
    <glyph glyph-name="onequarter" unicode="&#xbc;" horiz-adv-x="881" 
d="M501 112q0 8 1.5 11.5t6.5 11.5l154 187q6 8 9.5 9.5t11.5 1.5h59v-200h53v-55h-53v-78h-67v78h-175v34zM676 262q-4 -7 -11.5 -17.5t-15.5 -20.5l-47 -58q-7 -8 -15.5 -18t-13.5 -15h103v129zM249 0l329 663h81l-328 -663h-82zM175 386v208q-5 -4 -14.5 -8.5t-22.5 -9.5
l-46 -15l-20 48l114 49q8 3 11.5 4t9.5 1h35v-277h74v-56h-231v56h90z" />
    <glyph glyph-name="threequarters" unicode="&#xbe;" horiz-adv-x="881" 
d="M501 112q0 8 1.5 11.5t6.5 11.5l154 187q6 8 9.5 9.5t11.5 1.5h59v-200h53v-55h-53v-78h-67v78h-175v34zM676 262q-4 -7 -11.5 -17.5t-15.5 -20.5l-47 -58q-7 -8 -15.5 -18t-13.5 -15h103v129zM243 0l329 663h81l-328 -663h-82zM141 398q18 -7 34 -11t32 -4q27 0 42 13
t15 39q0 16 -8 24q-7 7 -17 9t-27 2h-34q-9 0 -9 8v41h64q10 0 15 7q5 8 7.5 18.5t2.5 18.5q0 22 -13.5 33.5t-37.5 11.5q-16 0 -31 -3.5t-32 -10.5l-35 -13l-22 40q29 20 61 33t63 13q22 0 42.5 -6.5t36.5 -18.5t25 -29.5t9 -39.5q0 -40 -33 -73q43 -22 43 -70
q0 -51 -34.5 -78.5t-88.5 -27.5q-38 0 -74.5 15t-62.5 38l22 38z" />
    <glyph glyph-name="grave" unicode="`" horiz-adv-x="398" 
d="M76 656l40 59q5 7 8.5 7.5t10.5 -4.5l187 -139l-30 -40z" />
    <glyph glyph-name="acute" unicode="&#xb4;" horiz-adv-x="398" 
d="M106 539l-30 40l187 139q7 5 10.5 4.5t8.5 -7.5l40 -59z" />
    <glyph glyph-name="dieresis" unicode="&#xa8;" horiz-adv-x="398" 
d="M153 571h-98v96h80q11 0 14.5 -3t3.5 -12v-81zM342 571h-98v96h80q11 0 14.5 -3t3.5 -12v-81z" />
    <glyph glyph-name="circumflex" unicode="&#x2c6;" horiz-adv-x="398" 
d="M328 541l-128 102h-1l-129 -102l-36 35l126 127q8 8 12 9.5t14 1.5h25q10 0 14 -1.5t12 -9.5l126 -127z" />
    <glyph glyph-name="tilde" unicode="&#x2dc;" horiz-adv-x="398" 
d="M368 665q-11 -44 -37 -72t-66 -28q-18 0 -35.5 7t-34 15t-31 15t-27.5 7q-19 0 -32.5 -10.5t-27.5 -35.5l-47 14q11 44 37 72t66 28q18 0 35.5 -7t34 -15t31 -15t27.5 -7q19 0 32.5 10.5t27.5 35.5z" />
    <glyph glyph-name="macron" unicode="&#xaf;" horiz-adv-x="398" 
d="M49 584v67h300v-67h-300z" />
    <glyph glyph-name="breve" unicode="&#x2d8;" horiz-adv-x="398" 
d="M199 553q-62 0 -103.5 37.5t-52.5 100.5l54 9q14 -36 39.5 -57t62.5 -21t62 21t39 57l54 -9q-11 -63 -52 -100.5t-103 -37.5z" />
    <glyph glyph-name="dotaccent" unicode="&#x2d9;" horiz-adv-x="398" 
d="M252 559h-106v101h88q11 0 14.5 -4t3.5 -13v-84z" />
    <glyph glyph-name="ring" unicode="&#x2da;" horiz-adv-x="398" 
d="M314 656q0 -26 -9.5 -46.5t-25 -34.5t-36.5 -22t-44 -8t-44 8t-37 22t-25 34.5t-9 46.5q0 25 9 46t25 35t37 22t44 8t44 -8t36.5 -22t25 -35t9.5 -46zM255 656q0 28 -15 41.5t-41 13.5t-41 -13.5t-15 -41.5t15 -41.5t41 -13.5t41 13.5t15 41.5z" />
    <glyph glyph-name="cedilla" unicode="&#xb8;" horiz-adv-x="398" 
d="M200 9q-10 -12 -16 -22.5t-6 -18.5q0 -11 17.5 -17t38.5 -14.5t38.5 -23.5t17.5 -45q0 -42 -42.5 -69t-130.5 -27l-10 50l62 12q23 5 32.5 11.5t9.5 15.5q0 10 -16 16.5t-35.5 14t-35.5 18.5t-16 30q0 17 14 37.5t34 39.5z" />
    <glyph glyph-name="hungarumlaut" unicode="&#x2dd;" horiz-adv-x="398" 
d="M212 706l-167 -144l-37 34l137 158q9 10 18 1zM390 706l-167 -144l-37 34l137 158q9 10 18 1z" />
    <glyph glyph-name="ogonek" unicode="&#x2db;" horiz-adv-x="398" 
d="M261 19q-15 -9 -31 -21.5t-29 -27.5t-21.5 -32t-8.5 -34q0 -21 13 -33t40 -12q8 0 19.5 1t22.5 3l23 4l15 -45q-21 -12 -46.5 -18.5t-48.5 -6.5q-51 0 -83.5 26t-32.5 68q0 44 36 82t90 68q11 -6 21 -11q8 -5 14.5 -8.5t6.5 -2.5z" />
    <glyph glyph-name="caron" unicode="&#x2c7;" horiz-adv-x="398" 
d="M363 685l-126 -127q-8 -8 -12 -9.5t-14 -1.5h-25q-10 0 -14 1.5t-12 9.5l-126 127l36 35l129 -102h1l128 102z" />
    <glyph glyph-name="commaaccent" unicode="&#xf6c3;" horiz-adv-x="398" 
d="M144 -260l27 202h62q8 0 12 -2t6 -11q1 -5 1.5 -11.5t0.5 -12.5q0 -8 -1.5 -16.5t-5 -19t-9.5 -25t-15 -35.5l-35 -78z" />
    <glyph glyph-name="grave.cap" horiz-adv-x="398" 
d="M76 836l40 59q5 7 8.5 7.5t10.5 -4.5l187 -139l-30 -40z" />
    <glyph glyph-name="acute.cap" horiz-adv-x="398" 
d="M106 719l-30 40l187 139q7 5 10.5 4.5t8.5 -7.5l40 -59z" />
    <glyph glyph-name="dieresis.cap" horiz-adv-x="398" 
d="M153 751h-98v96h80q11 0 14.5 -3t3.5 -12v-81zM342 751h-98v96h80q11 0 14.5 -3t3.5 -12v-81z" />
    <glyph glyph-name="circumflex.cap" horiz-adv-x="398" 
d="M328 721l-128 102h-1l-129 -102l-36 35l126 127q8 8 12 9.5t14 1.5h25q10 0 14 -1.5t12 -9.5l126 -127z" />
    <glyph glyph-name="tilde.cap" horiz-adv-x="398" 
d="M368 845q-11 -44 -37 -72t-66 -28q-18 0 -35.5 7t-34 15t-31 15t-27.5 7q-19 0 -32.5 -10.5t-27.5 -35.5l-47 14q11 44 37 72t66 28q18 0 35.5 -7t34 -15t31 -15t27.5 -7q19 0 32.5 10.5t27.5 35.5z" />
    <glyph glyph-name="macron.cap" horiz-adv-x="398" 
d="M49 764v67h300v-67h-300z" />
    <glyph glyph-name="breve.cap" horiz-adv-x="398" 
d="M199 733q-62 0 -103.5 37.5t-52.5 100.5l54 9q14 -36 39.5 -57t62.5 -21t62 21t39 57l54 -9q-11 -63 -52 -100.5t-103 -37.5z" />
    <glyph glyph-name="dotaccent.cap" horiz-adv-x="398" 
d="M252 739h-106v101h88q11 0 14.5 -4t3.5 -13v-84z" />
    <glyph glyph-name="ring.cap" horiz-adv-x="398" 
d="M314 836q0 -26 -9.5 -46.5t-25 -34.5t-36.5 -22t-44 -8t-44 8t-37 22t-25 34.5t-9 46.5q0 25 9 46t25 35t37 22t44 8t44 -8t36.5 -22t25 -35t9.5 -46zM255 836q0 28 -15 41.5t-41 13.5t-41 -13.5t-15 -41.5t15 -41.5t41 -13.5t41 13.5t15 41.5z" />
    <glyph glyph-name="hungarumlaut.cap" horiz-adv-x="398" 
d="M212 886l-167 -144l-37 34l137 158q9 10 18 1zM390 886l-167 -144l-37 34l137 158q9 10 18 1z" />
    <glyph glyph-name="caron.cap" horiz-adv-x="398" 
d="M363 865l-126 -127q-8 -8 -12 -9.5t-14 -1.5h-25q-10 0 -14 1.5t-12 9.5l-126 127l36 35l129 -102h1l128 102z" />
    <glyph glyph-name="Agrave" unicode="&#xc0;" horiz-adv-x="675" 
d="M500 156h-332l-56 -146q-2 -6 -5 -8t-11 -2h-82l266 663h91q8 0 11 -2t6 -9l273 -652h-85q-12 0 -16 10zM196 230h274l-55 138q-33 83 -53.5 134.5t-30.5 79.5h-1q-9 -26 -29 -79.5t-52 -134.5zM214 836l40 59q5 7 8.5 7.5t10.5 -4.5l187 -139l-30 -40z" />
    <glyph glyph-name="Aacute" unicode="&#xc1;" horiz-adv-x="675" 
d="M500 156h-332l-56 -146q-2 -6 -5 -8t-11 -2h-82l266 663h91q8 0 11 -2t6 -9l273 -652h-85q-12 0 -16 10zM196 230h274l-55 138q-33 83 -53.5 134.5t-30.5 79.5h-1q-9 -26 -29 -79.5t-52 -134.5zM244 719l-30 40l187 139q7 5 10.5 4.5t8.5 -7.5l40 -59z" />
    <glyph glyph-name="Acircumflex" unicode="&#xc2;" horiz-adv-x="675" 
d="M500 156h-332l-56 -146q-2 -6 -5 -8t-11 -2h-82l266 663h91q8 0 11 -2t6 -9l273 -652h-85q-12 0 -16 10zM196 230h274l-55 138q-33 83 -53.5 134.5t-30.5 79.5h-1q-9 -26 -29 -79.5t-52 -134.5zM461 721l-128 102h-1l-129 -102l-36 35l126 127q8 8 12 9.5t14 1.5h25
q10 0 14 -1.5t12 -9.5l126 -127z" />
    <glyph glyph-name="Atilde" unicode="&#xc3;" horiz-adv-x="675" 
d="M500 156h-332l-56 -146q-2 -6 -5 -8t-11 -2h-82l266 663h91q8 0 11 -2t6 -9l273 -652h-85q-12 0 -16 10zM196 230h274l-55 138q-33 83 -53.5 134.5t-30.5 79.5h-1q-9 -26 -29 -79.5t-52 -134.5zM499 845q-11 -44 -37 -72t-66 -28q-18 0 -35.5 7t-34 15t-31 15t-27.5 7
q-19 0 -32.5 -10.5t-27.5 -35.5l-47 14q11 44 37 72t66 28q18 0 35.5 -7t34 -15t31 -15t27.5 -7q19 0 32.5 10.5t27.5 35.5z" />
    <glyph glyph-name="Adieresis" unicode="&#xc4;" horiz-adv-x="675" 
d="M500 156h-332l-56 -146q-2 -6 -5 -8t-11 -2h-82l266 663h91q8 0 11 -2t6 -9l273 -652h-85q-12 0 -16 10zM196 230h274l-55 138q-33 83 -53.5 134.5t-30.5 79.5h-1q-9 -26 -29 -79.5t-52 -134.5zM286 751h-98v96h80q11 0 14.5 -3t3.5 -12v-81zM475 751h-98v96h80
q11 0 14.5 -3t3.5 -12v-81z" />
    <glyph glyph-name="Amacron" unicode="&#x100;" horiz-adv-x="675" 
d="M500 156h-332l-56 -146q-2 -6 -5 -8t-11 -2h-82l266 663h91q8 0 11 -2t6 -9l273 -652h-85q-12 0 -16 10zM196 230h274l-55 138q-33 83 -53.5 134.5t-30.5 79.5h-1q-9 -26 -29 -79.5t-52 -134.5zM181 764v67h300v-67h-300z" />
    <glyph glyph-name="Abreve" unicode="&#x102;" horiz-adv-x="675" 
d="M500 156h-332l-56 -146q-2 -6 -5 -8t-11 -2h-82l266 663h91q8 0 11 -2t6 -9l273 -652h-85q-12 0 -16 10zM196 230h274l-55 138q-33 83 -53.5 134.5t-30.5 79.5h-1q-9 -26 -29 -79.5t-52 -134.5zM332 733q-62 0 -103.5 37.5t-52.5 100.5l54 9q14 -36 39.5 -57t62.5 -21
t62 21t39 57l54 -9q-11 -63 -52 -100.5t-103 -37.5z" />
    <glyph glyph-name="Acaron" unicode="&#x1cd;" horiz-adv-x="675" 
d="M500 156h-332l-56 -146q-2 -6 -5 -8t-11 -2h-82l266 663h91q8 0 11 -2t6 -9l273 -652h-85q-12 0 -16 10zM196 230h274l-55 138q-33 83 -53.5 134.5t-30.5 79.5h-1q-9 -26 -29 -79.5t-52 -134.5zM495 865l-126 -127q-8 -8 -12 -9.5t-14 -1.5h-25q-10 0 -14 1.5t-12 9.5
l-126 127l36 35l129 -102h1l128 102z" />
    <glyph glyph-name="Aring" unicode="&#xc5;" horiz-adv-x="675" 
d="M661 0h-85q-12 0 -16 10l-60 146h-332l-56 -146q-2 -6 -5 -8t-11 -2h-82l261 650q-25 13 -39.5 37.5t-14.5 57.5q0 25 9 46t25 35t37 22t44 8t44 -8t36.5 -22t25 -35t9.5 -46q0 -35 -17 -60.5t-44 -37.5zM392 745q0 28 -15 41.5t-41 13.5t-41 -13.5t-15 -41.5t15 -41.5
t41 -13.5t41 13.5t15 41.5zM196 230h274l-55 138q-33 83 -53.5 134.5t-30.5 79.5h-1q-9 -26 -29 -79.5t-52 -134.5z" />
    <glyph glyph-name="Aringacute" unicode="&#x1fa;" horiz-adv-x="675" 
d="M248 865l-30 40l187 139q7 5 10.5 4.5t8.5 -7.5l40 -59zM661 0h-85q-12 0 -16 10l-60 146h-332l-56 -146q-2 -6 -5 -8t-11 -2h-82l261 650q-25 13 -39.5 37.5t-14.5 57.5q0 25 9 46t25 35t37 22t44 8t44 -8t36.5 -22t25 -35t9.5 -46q0 -35 -17 -60.5t-44 -37.5zM392 745
q0 28 -15 41.5t-41 13.5t-41 -13.5t-15 -41.5t15 -41.5t41 -13.5t41 13.5t15 41.5zM196 230h274l-55 138q-33 83 -53.5 134.5t-30.5 79.5h-1q-9 -26 -29 -79.5t-52 -134.5z" />
    <glyph glyph-name="Aogonek" unicode="&#x104;" horiz-adv-x="675" 
d="M500 156h-332l-56 -146q-2 -6 -5 -8t-11 -2h-82l266 663h91q8 0 11 -2t6 -9l273 -652h-29q-25 0 -41.5 -8t-33.5 -28q-11 -13 -17.5 -29.5t-6.5 -30.5q0 -21 13 -33t40 -12q8 0 19.5 1t22.5 3l23 4l15 -45q-21 -12 -46.5 -18.5t-48.5 -6.5q-51 0 -83.5 26t-32.5 68t29 74
t71 56zM196 230h274l-55 138q-33 83 -53.5 134.5t-30.5 79.5h-1q-9 -26 -29 -79.5t-52 -134.5z" />
    <glyph glyph-name="AE" unicode="&#xc6;" horiz-adv-x="955" 
d="M113 10q-4 -6 -7 -8t-11 -2h-91l419 663h471v-77h-343v-205h307v-76h-307v-228h354v-77h-447v156h-255zM458 577q-24 -46 -63.5 -110t-85.5 -138l-61 -99h210v347z" />
    <glyph glyph-name="AEacute" unicode="&#x1fc;" horiz-adv-x="955" 
d="M113 10q-4 -6 -7 -8t-11 -2h-91l419 663h471v-77h-343v-205h307v-76h-307v-228h354v-77h-447v156h-255zM458 577q-24 -46 -63.5 -110t-85.5 -138l-61 -99h210v347zM506 719l-30 40l187 139q7 5 10.5 4.5t8.5 -7.5l40 -59z" />
    <glyph glyph-name="Cacute" unicode="&#x106;" horiz-adv-x="672" 
d="M639 119q-54 -59 -130 -94t-157 -35q-69 0 -127 25t-99.5 70t-65 108t-23.5 139q0 70 23 132t65 108.5t100.5 73.5t129.5 27q95 0 165 -50.5t104 -133.5l-62 -37l-63 63q-35 35 -69 52.5t-81 17.5q-51 0 -91.5 -18.5t-68 -52.5t-42 -80.5t-14.5 -102.5
q0 -120 59.5 -186.5t171.5 -66.5q35 0 73.5 11.5t78.5 31.5l87 45zM261 719l-30 40l187 139q7 5 10.5 4.5t8.5 -7.5l40 -59z" />
    <glyph glyph-name="Ccedilla" unicode="&#xc7;" horiz-adv-x="672" 
d="M639 119q-53 -57 -126 -92t-152 -37q-8 -13 -8 -22q0 -11 17.5 -17t38.5 -14.5t38.5 -23.5t17.5 -45q0 -42 -42.5 -69t-130.5 -27l-10 50l62 12q23 5 32.5 11.5t9.5 15.5q0 10 -16 16.5t-35.5 14t-35.5 18.5t-16 30q0 12 7.5 25.5t18.5 27.5q-60 7 -110 34.5t-86 72
t-56 103.5t-20 129t23 132t65 108.5t100.5 73.5t129.5 27q95 0 165 -50.5t104 -133.5l-62 -37l-63 63q-35 35 -69 52.5t-81 17.5q-51 0 -91.5 -18.5t-68 -52.5t-42 -80.5t-14.5 -102.5q0 -120 59.5 -186.5t171.5 -66.5q35 0 73.5 11.5t78.5 31.5l87 45z" />
    <glyph glyph-name="Ccircumflex" unicode="&#x108;" horiz-adv-x="672" 
d="M639 119q-54 -59 -130 -94t-157 -35q-69 0 -127 25t-99.5 70t-65 108t-23.5 139q0 70 23 132t65 108.5t100.5 73.5t129.5 27q95 0 165 -50.5t104 -133.5l-62 -37l-63 63q-35 35 -69 52.5t-81 17.5q-51 0 -91.5 -18.5t-68 -52.5t-42 -80.5t-14.5 -102.5
q0 -120 59.5 -186.5t171.5 -66.5q35 0 73.5 11.5t78.5 31.5l87 45zM482 721l-128 102h-1l-129 -102l-36 35l126 127q8 8 12 9.5t14 1.5h25q10 0 14 -1.5t12 -9.5l126 -127z" />
    <glyph glyph-name="Ccaron" unicode="&#x10c;" horiz-adv-x="672" 
d="M639 119q-54 -59 -130 -94t-157 -35q-69 0 -127 25t-99.5 70t-65 108t-23.5 139q0 70 23 132t65 108.5t100.5 73.5t129.5 27q95 0 165 -50.5t104 -133.5l-62 -37l-63 63q-35 35 -69 52.5t-81 17.5q-51 0 -91.5 -18.5t-68 -52.5t-42 -80.5t-14.5 -102.5
q0 -120 59.5 -186.5t171.5 -66.5q35 0 73.5 11.5t78.5 31.5l87 45zM517 865l-126 -127q-8 -8 -12 -9.5t-14 -1.5h-25q-10 0 -14 1.5t-12 9.5l-126 127l36 35l129 -102h1l128 102z" />
    <glyph glyph-name="Cdotaccent" unicode="&#x10a;" horiz-adv-x="672" 
d="M639 119q-54 -59 -130 -94t-157 -35q-69 0 -127 25t-99.5 70t-65 108t-23.5 139q0 70 23 132t65 108.5t100.5 73.5t129.5 27q95 0 165 -50.5t104 -133.5l-62 -37l-63 63q-35 35 -69 52.5t-81 17.5q-51 0 -91.5 -18.5t-68 -52.5t-42 -80.5t-14.5 -102.5
q0 -120 59.5 -186.5t171.5 -66.5q35 0 73.5 11.5t78.5 31.5l87 45zM406 739h-106v101h88q11 0 14.5 -4t3.5 -13v-84z" />
    <glyph glyph-name="Dcaron" unicode="&#x10e;" horiz-adv-x="695" 
d="M253 78q83 0 145 13t101 51q30 29 46.5 76.5t16.5 113.5t-16.5 113t-46.5 76q-39 38 -101 51t-145 13h-86v-507h86zM74 0v663h197q100 0 173.5 -21t123.5 -67q44 -41 67 -101.5t23 -141.5t-23 -142t-67 -102q-50 -46 -123.5 -67t-173.5 -21h-197zM515 865l-126 -127
q-8 -8 -12 -9.5t-14 -1.5h-25q-10 0 -14 1.5t-12 9.5l-126 127l36 35l129 -102h1l128 102z" />
    <glyph glyph-name="Dcroat" unicode="&#x110;" horiz-adv-x="711" 
d="M90 375v288h197q100 0 173.5 -21t123.5 -67q44 -41 67 -101.5t23 -141.5t-23 -142t-67 -102q-50 -46 -123.5 -67t-173.5 -21h-197v304h-90v71h90zM270 78q83 0 144.5 13t100.5 51q30 29 46.5 76.5t16.5 113.5t-16.5 113t-46.5 76q-39 38 -100.5 51t-144.5 13h-87v-210
h160v-71h-160v-226h87z" />
    <glyph glyph-name="Eth" unicode="&#xd0;" horiz-adv-x="711" 
d="M90 375v288h197q100 0 173.5 -21t123.5 -67q44 -41 67 -101.5t23 -141.5t-23 -142t-67 -102q-50 -46 -123.5 -67t-173.5 -21h-197v304h-90v71h90zM270 78q83 0 144.5 13t100.5 51q30 29 46.5 76.5t16.5 113.5t-16.5 113t-46.5 76q-39 38 -100.5 51t-144.5 13h-87v-210
h160v-71h-160v-226h87z" />
    <glyph glyph-name="Egrave" unicode="&#xc8;" horiz-adv-x="571" 
d="M510 663v-77h-343v-205h307v-76h-307v-228h354v-77h-447v663h436zM175 836l40 59q5 7 8.5 7.5t10.5 -4.5l187 -139l-30 -40z" />
    <glyph glyph-name="Eacute" unicode="&#xc9;" horiz-adv-x="571" 
d="M510 663v-77h-343v-205h307v-76h-307v-228h354v-77h-447v663h436zM207 719l-30 40l187 139q7 5 10.5 4.5t8.5 -7.5l40 -59z" />
    <glyph glyph-name="Ecircumflex" unicode="&#xca;" horiz-adv-x="571" 
d="M510 663v-77h-343v-205h307v-76h-307v-228h354v-77h-447v663h436zM421 721l-128 102h-1l-129 -102l-36 35l126 127q8 8 12 9.5t14 1.5h25q10 0 14 -1.5t12 -9.5l126 -127z" />
    <glyph glyph-name="Ecaron" unicode="&#x11a;" horiz-adv-x="571" 
d="M510 663v-77h-343v-205h307v-76h-307v-228h354v-77h-447v663h436zM468 865l-126 -127q-8 -8 -12 -9.5t-14 -1.5h-25q-10 0 -14 1.5t-12 9.5l-126 127l36 35l129 -102h1l128 102z" />
    <glyph glyph-name="Edieresis" unicode="&#xcb;" horiz-adv-x="571" 
d="M510 663v-77h-343v-205h307v-76h-307v-228h354v-77h-447v663h436zM250 751h-98v96h80q11 0 14.5 -3t3.5 -12v-81zM439 751h-98v96h80q11 0 14.5 -3t3.5 -12v-81z" />
    <glyph glyph-name="Emacron" unicode="&#x112;" horiz-adv-x="571" 
d="M510 663v-77h-343v-205h307v-76h-307v-228h354v-77h-447v663h436zM144 764v67h300v-67h-300z" />
    <glyph glyph-name="Ebreve" unicode="&#x114;" horiz-adv-x="571" 
d="M510 663v-77h-343v-205h307v-76h-307v-228h354v-77h-447v663h436zM300 733q-62 0 -103.5 37.5t-52.5 100.5l54 9q14 -36 39.5 -57t62.5 -21t62 21t39 57l54 -9q-11 -63 -52 -100.5t-103 -37.5z" />
    <glyph glyph-name="Edotaccent" unicode="&#x116;" horiz-adv-x="571" 
d="M510 663v-77h-343v-205h307v-76h-307v-228h354v-77h-447v663h436zM354 739h-106v101h88q11 0 14.5 -4t3.5 -13v-84z" />
    <glyph glyph-name="Eogonek" unicode="&#x118;" horiz-adv-x="571" 
d="M510 663v-77h-343v-205h307v-76h-307v-228h354v-77h-32q-23 0 -39 -8.5t-32 -27.5q-11 -13 -17.5 -29.5t-6.5 -30.5q0 -21 13 -33t40 -12q8 0 19.5 1t22.5 3l23 4l15 -45q-21 -12 -46.5 -18.5t-48.5 -6.5q-51 0 -83.5 26t-32.5 68q0 31 18.5 59t46.5 50h-307v663h436z
" />
    <glyph glyph-name="Gcircumflex" unicode="&#x11c;" horiz-adv-x="727" 
d="M581 464l-66 57q-38 32 -72.5 48.5t-83.5 16.5q-54 0 -95.5 -18t-70.5 -51t-44 -80t-15 -105q0 -128 63 -191.5t170 -63.5q41 0 93.5 12.5t97.5 36.5q9 5 11 9t2 13v119h-129v71h203q10 0 13 -2.5t3 -10.5v-325h-66l-17 61l-56 -28q-44 -22 -83 -32.5t-86 -10.5
q-72 0 -130 26t-99.5 71.5t-63.5 108t-22 134.5q0 78 25.5 141t69.5 108t103 69.5t127 24.5q48 0 90.5 -13t78 -36t63 -53.5t45.5 -66.5zM491 721l-128 102h-1l-129 -102l-36 35l126 127q8 8 12 9.5t14 1.5h25q10 0 14 -1.5t12 -9.5l126 -127z" />
    <glyph glyph-name="Gbreve" unicode="&#x11e;" horiz-adv-x="727" 
d="M581 464l-66 57q-38 32 -72.5 48.5t-83.5 16.5q-54 0 -95.5 -18t-70.5 -51t-44 -80t-15 -105q0 -128 63 -191.5t170 -63.5q41 0 93.5 12.5t97.5 36.5q9 5 11 9t2 13v119h-129v71h203q10 0 13 -2.5t3 -10.5v-325h-66l-17 61l-56 -28q-44 -22 -83 -32.5t-86 -10.5
q-72 0 -130 26t-99.5 71.5t-63.5 108t-22 134.5q0 78 25.5 141t69.5 108t103 69.5t127 24.5q48 0 90.5 -13t78 -36t63 -53.5t45.5 -66.5zM362 733q-62 0 -103.5 37.5t-52.5 100.5l54 9q14 -36 39.5 -57t62.5 -21t62 21t39 57l54 -9q-11 -63 -52 -100.5t-103 -37.5z" />
    <glyph glyph-name="Gdotaccent" unicode="&#x120;" horiz-adv-x="727" 
d="M581 464l-66 57q-38 32 -72.5 48.5t-83.5 16.5q-54 0 -95.5 -18t-70.5 -51t-44 -80t-15 -105q0 -128 63 -191.5t170 -63.5q41 0 93.5 12.5t97.5 36.5q9 5 11 9t2 13v119h-129v71h203q10 0 13 -2.5t3 -10.5v-325h-66l-17 61l-56 -28q-44 -22 -83 -32.5t-86 -10.5
q-72 0 -130 26t-99.5 71.5t-63.5 108t-22 134.5q0 78 25.5 141t69.5 108t103 69.5t127 24.5q48 0 90.5 -13t78 -36t63 -53.5t45.5 -66.5zM416 739h-106v101h88q11 0 14.5 -4t3.5 -13v-84z" />
    <glyph glyph-name="Gcommaaccent" unicode="&#x122;" horiz-adv-x="727" 
d="M581 464l-66 57q-38 32 -72.5 48.5t-83.5 16.5q-54 0 -95.5 -18t-70.5 -51t-44 -80t-15 -105q0 -128 63 -191.5t170 -63.5q41 0 93.5 12.5t97.5 36.5q9 5 11 9t2 13v119h-129v71h203q10 0 13 -2.5t3 -10.5v-325h-66l-17 61l-56 -28q-44 -22 -83 -32.5t-86 -10.5
q-72 0 -130 26t-99.5 71.5t-63.5 108t-22 134.5q0 78 25.5 141t69.5 108t103 69.5t127 24.5q48 0 90.5 -13t78 -36t63 -53.5t45.5 -66.5zM307 -260l27 202h62q8 0 12 -2t6 -11q1 -5 1.5 -11.5t0.5 -12.5q0 -8 -1.5 -16.5t-5 -19t-9.5 -25t-15 -35.5l-35 -78z" />
    <glyph glyph-name="Hcircumflex" unicode="&#x124;" horiz-adv-x="700" 
d="M533 305h-366v-305h-93v663h93v-279h366v279h93v-663h-93v305zM479 721l-128 102h-1l-129 -102l-36 35l126 127q8 8 12 9.5t14 1.5h25q10 0 14 -1.5t12 -9.5l126 -127z" />
    <glyph glyph-name="Hbar" unicode="&#x126;" horiz-adv-x="716" 
d="M541 305h-366v-305h-93v493h-74v68h74v102h93v-102h366v102h93v-102h74v-68h-74v-493h-93v305zM541 384v109h-366v-109h366z" />
    <glyph glyph-name="Igrave" unicode="&#xcc;" horiz-adv-x="249" 
d="M74 663h93v-663h-93v663zM0 836l40 59q5 7 8.5 7.5t10.5 -4.5l187 -139l-30 -40z" />
    <glyph glyph-name="Iacute" unicode="&#xcd;" horiz-adv-x="249" 
d="M74 663h93v-663h-93v663zM30 719l-30 40l187 139q7 5 10.5 4.5t8.5 -7.5l40 -59z" />
    <glyph glyph-name="Icircumflex" unicode="&#xce;" horiz-adv-x="249" 
d="M78 663h93v-663h-93v663zM254 721l-128 102h-1l-129 -102l-36 35l126 127q8 8 12 9.5t14 1.5h25q10 0 14 -1.5t12 -9.5l126 -127z" />
    <glyph glyph-name="Itilde" unicode="&#x128;" horiz-adv-x="249" 
d="M78 663h93v-663h-93v663zM294 845q-11 -44 -37 -72t-66 -28q-18 0 -35.5 7t-34 15t-31 15t-27.5 7q-19 0 -32.5 -10.5t-27.5 -35.5l-47 14q11 44 37 72t66 28q18 0 35.5 -7t34 -15t31 -15t27.5 -7q19 0 32.5 10.5t27.5 35.5z" />
    <glyph glyph-name="Idieresis" unicode="&#xcf;" horiz-adv-x="249" 
d="M78 663h93v-663h-93v663zM79 751h-98v96h80q11 0 14.5 -3t3.5 -12v-81zM268 751h-98v96h80q11 0 14.5 -3t3.5 -12v-81z" />
    <glyph glyph-name="Imacron" unicode="&#x12a;" horiz-adv-x="249" 
d="M78 663h93v-663h-93v663zM-26 764v67h300v-67h-300z" />
    <glyph glyph-name="Ibreve" unicode="&#x12c;" horiz-adv-x="249" 
d="M78 663h93v-663h-93v663zM125 733q-62 0 -103.5 37.5t-52.5 100.5l54 9q14 -36 39.5 -57t62.5 -21t62 21t39 57l54 -9q-11 -63 -52 -100.5t-103 -37.5z" />
    <glyph glyph-name="Idotaccent" unicode="&#x130;" horiz-adv-x="249" 
d="M79 663h93v-663h-93v663zM178 739h-106v101h88q11 0 14.5 -4t3.5 -13v-84z" />
    <glyph glyph-name="Iogonek" unicode="&#x12e;" horiz-adv-x="249" 
d="M7 -109q0 39 21.5 68t49.5 43v661h93v-663q-42 -11 -64 -39t-22 -57q0 -21 13 -33t40 -12q8 0 19.5 1t22.5 3l23 4l15 -45q-21 -12 -46.5 -18.5t-48.5 -6.5q-51 0 -83.5 26t-32.5 68z" />
    <glyph glyph-name="IJ" unicode="&#x132;" horiz-adv-x="736" 
d="M78 663h93v-663h-93v663zM287 102l54 -13q72 -18 122 -18q59 0 85 29q14 15 19 38t5 57v468h93v-461q0 -57 -13 -95t-39 -65q-25 -25 -60.5 -38.5t-82.5 -13.5q-52 0 -105.5 15.5t-97.5 41.5z" />
    <glyph glyph-name="Jcircumflex" unicode="&#x134;" horiz-adv-x="486" 
d="M43 102l54 -13q72 -18 122 -18q59 0 85 29q14 15 19 38t5 57v468h93v-461q0 -57 -13 -95t-39 -65q-25 -25 -60.5 -38.5t-82.5 -13.5q-52 0 -105.5 15.5t-97.5 41.5zM504 721l-128 102h-1l-129 -102l-36 35l126 127q8 8 12 9.5t14 1.5h25q10 0 14 -1.5t12 -9.5l126 -127z
" />
    <glyph glyph-name="Kcommaaccent" unicode="&#x136;" horiz-adv-x="637" 
d="M279 338q-10 -9 -25 -21t-30.5 -24t-30.5 -22.5t-26 -16.5v-254h-93v663h93v-327l377 332l53 -57l-252 -218l280 -393h-92q-9 0 -13.5 2t-9.5 8zM258 -260l27 202h62q8 0 12 -2t6 -11q1 -5 1.5 -11.5t0.5 -12.5q0 -8 -1.5 -16.5t-5 -19t-9.5 -25t-15 -35.5l-35 -78z" />
    <glyph glyph-name="Lacute" unicode="&#x139;" horiz-adv-x="522" 
d="M74 663h93v-586h324v-77h-417v663zM70 719l-30 40l187 139q7 5 10.5 4.5t8.5 -7.5l40 -59z" />
    <glyph glyph-name="Lcaron" unicode="&#x13d;" horiz-adv-x="522" 
d="M74 663h93v-586h324v-77h-417v663zM269 461l27 202h62q8 0 12 -2t6 -11q1 -5 1.5 -11.5t0.5 -12.5q0 -8 -1.5 -16.5t-5 -19t-9.5 -25t-15 -35.5l-35 -78z" />
    <glyph glyph-name="Lcommaaccent" unicode="&#x13b;" horiz-adv-x="522" 
d="M74 663h93v-586h324v-77h-417v663zM235 -260l27 202h62q8 0 12 -2t6 -11q1 -5 1.5 -11.5t0.5 -12.5q0 -8 -1.5 -16.5t-5 -19t-9.5 -25t-15 -35.5l-35 -78z" />
    <glyph glyph-name="Lslash" unicode="&#x141;" horiz-adv-x="575" 
d="M379 508l42 -61l-201 -135v-235h324v-77h-417v263l-81 -54l-42 62l123 82v310h93v-261z" />
    <glyph glyph-name="Ldot" unicode="&#x13f;" horiz-adv-x="522" 
d="M74 663h93v-586h324v-77h-417v663zM424 299h-106v101h88q11 0 14.5 -4t3.5 -13v-84z" />
    <glyph glyph-name="Nacute" unicode="&#x143;" horiz-adv-x="729" 
d="M163 0h-89v663h64q8 0 12 -1.5t10 -8.5l286 -358q17 -21 34.5 -43t33.5 -43t29.5 -38.5t22.5 -29.5v522h89v-663h-63q-8 0 -12 1.5t-10 8.5l-286 358q-17 21 -34.5 43.5t-34 43.5t-30.5 39t-22 29v-523zM291 719l-30 40l187 139q7 5 10.5 4.5t8.5 -7.5l40 -59z" />
    <glyph glyph-name="Ncaron" unicode="&#x147;" horiz-adv-x="729" 
d="M163 0h-89v663h64q8 0 12 -1.5t10 -8.5l286 -358q17 -21 34.5 -43t33.5 -43t29.5 -38.5t22.5 -29.5v522h89v-663h-63q-8 0 -12 1.5t-10 8.5l-286 358q-17 21 -34.5 43.5t-34 43.5t-30.5 39t-22 29v-523zM529 865l-126 -127q-8 -8 -12 -9.5t-14 -1.5h-25q-10 0 -14 1.5
t-12 9.5l-126 127l36 35l129 -102h1l128 102z" />
    <glyph glyph-name="Ntilde" unicode="&#xd1;" horiz-adv-x="729" 
d="M163 0h-89v663h64q8 0 12 -1.5t10 -8.5l286 -358q17 -21 34.5 -43t33.5 -43t29.5 -38.5t22.5 -29.5v522h89v-663h-63q-8 0 -12 1.5t-10 8.5l-286 358q-17 21 -34.5 43.5t-34 43.5t-30.5 39t-22 29v-523zM533 845q-11 -44 -37 -72t-66 -28q-18 0 -35.5 7t-34 15t-31 15
t-27.5 7q-19 0 -32.5 -10.5t-27.5 -35.5l-47 14q11 44 37 72t66 28q18 0 35.5 -7t34 -15t31 -15t27.5 -7q19 0 32.5 10.5t27.5 35.5z" />
    <glyph glyph-name="Ncommaaccent" unicode="&#x145;" horiz-adv-x="729" 
d="M163 0h-89v663h64q8 0 12 -1.5t10 -8.5l286 -358q17 -21 34.5 -43t33.5 -43t29.5 -38.5t22.5 -29.5v522h89v-663h-63q-8 0 -12 1.5t-10 8.5l-286 358q-17 21 -34.5 43.5t-34 43.5t-30.5 39t-22 29v-523zM300 -260l27 202h62q8 0 12 -2t6 -11q1 -5 1.5 -11.5t0.5 -12.5
q0 -8 -1.5 -16.5t-5 -19t-9.5 -25t-15 -35.5l-35 -78z" />
    <glyph glyph-name="Eng" unicode="&#x14a;" horiz-adv-x="729" 
d="M284 368q-17 21 -34.5 43.5t-34 43.5t-30.5 39t-22 29v-523h-89v663h64q8 0 12 -1.5t10 -8.5l286 -358q17 -21 34.5 -43t33.5 -43t29.5 -38.5t22.5 -29.5v522h89v-688q0 -51 -11 -86.5t-34 -61.5q-44 -49 -128 -49q-33 0 -64 7.5t-52 19.5l14 56q20 -3 43.5 -4.5
t37.5 -1.5q59 0 82 26t23 88v46z" />
    <glyph glyph-name="Ograve" unicode="&#xd2;" horiz-adv-x="726" 
d="M689 331q0 -76 -26 -138.5t-71 -107.5t-104 -70t-125 -25t-125 25t-104 70t-71 107.5t-26 138.5t26 139t71 108t104 70t125 25t125 -25t104 -70t71 -108t26 -139zM593 331q0 61 -16.5 108t-47 79.5t-73 49t-93.5 16.5t-93.5 -16.5t-73 -49t-47 -79.5t-16.5 -108
t16.5 -108t47 -79t73 -48.5t93.5 -16.5t93.5 16.5t73 48.5t47 79t16.5 108zM250 836l40 59q5 7 8.5 7.5t10.5 -4.5l187 -139l-30 -40z" />
    <glyph glyph-name="Oacute" unicode="&#xd3;" horiz-adv-x="726" 
d="M689 331q0 -76 -26 -138.5t-71 -107.5t-104 -70t-125 -25t-125 25t-104 70t-71 107.5t-26 138.5t26 139t71 108t104 70t125 25t125 -25t104 -70t71 -108t26 -139zM593 331q0 61 -16.5 108t-47 79.5t-73 49t-93.5 16.5t-93.5 -16.5t-73 -49t-47 -79.5t-16.5 -108
t16.5 -108t47 -79t73 -48.5t93.5 -16.5t93.5 16.5t73 48.5t47 79t16.5 108zM280 719l-30 40l187 139q7 5 10.5 4.5t8.5 -7.5l40 -59z" />
    <glyph glyph-name="Ocircumflex" unicode="&#xd4;" horiz-adv-x="726" 
d="M689 331q0 -76 -26 -138.5t-71 -107.5t-104 -70t-125 -25t-125 25t-104 70t-71 107.5t-26 138.5t26 139t71 108t104 70t125 25t125 -25t104 -70t71 -108t26 -139zM593 331q0 61 -16.5 108t-47 79.5t-73 49t-93.5 16.5t-93.5 -16.5t-73 -49t-47 -79.5t-16.5 -108
t16.5 -108t47 -79t73 -48.5t93.5 -16.5t93.5 16.5t73 48.5t47 79t16.5 108zM492 721l-128 102h-1l-129 -102l-36 35l126 127q8 8 12 9.5t14 1.5h25q10 0 14 -1.5t12 -9.5l126 -127z" />
    <glyph glyph-name="Otilde" unicode="&#xd5;" horiz-adv-x="726" 
d="M689 331q0 -76 -26 -138.5t-71 -107.5t-104 -70t-125 -25t-125 25t-104 70t-71 107.5t-26 138.5t26 139t71 108t104 70t125 25t125 -25t104 -70t71 -108t26 -139zM593 331q0 61 -16.5 108t-47 79.5t-73 49t-93.5 16.5t-93.5 -16.5t-73 -49t-47 -79.5t-16.5 -108
t16.5 -108t47 -79t73 -48.5t93.5 -16.5t93.5 16.5t73 48.5t47 79t16.5 108zM532 845q-11 -44 -37 -72t-66 -28q-18 0 -35.5 7t-34 15t-31 15t-27.5 7q-19 0 -32.5 -10.5t-27.5 -35.5l-47 14q11 44 37 72t66 28q18 0 35.5 -7t34 -15t31 -15t27.5 -7q19 0 32.5 10.5t27.5 35.5
z" />
    <glyph glyph-name="Odieresis" unicode="&#xd6;" horiz-adv-x="726" 
d="M689 331q0 -76 -26 -138.5t-71 -107.5t-104 -70t-125 -25t-125 25t-104 70t-71 107.5t-26 138.5t26 139t71 108t104 70t125 25t125 -25t104 -70t71 -108t26 -139zM593 331q0 61 -16.5 108t-47 79.5t-73 49t-93.5 16.5t-93.5 -16.5t-73 -49t-47 -79.5t-16.5 -108
t16.5 -108t47 -79t73 -48.5t93.5 -16.5t93.5 16.5t73 48.5t47 79t16.5 108zM317 751h-98v96h80q11 0 14.5 -3t3.5 -12v-81zM506 751h-98v96h80q11 0 14.5 -3t3.5 -12v-81z" />
    <glyph glyph-name="Omacron" unicode="&#x14c;" horiz-adv-x="726" 
d="M689 331q0 -76 -26 -138.5t-71 -107.5t-104 -70t-125 -25t-125 25t-104 70t-71 107.5t-26 138.5t26 139t71 108t104 70t125 25t125 -25t104 -70t71 -108t26 -139zM593 331q0 61 -16.5 108t-47 79.5t-73 49t-93.5 16.5t-93.5 -16.5t-73 -49t-47 -79.5t-16.5 -108
t16.5 -108t47 -79t73 -48.5t93.5 -16.5t93.5 16.5t73 48.5t47 79t16.5 108zM213 764v67h300v-67h-300z" />
    <glyph glyph-name="Obreve" unicode="&#x14e;" horiz-adv-x="726" 
d="M689 331q0 -76 -26 -138.5t-71 -107.5t-104 -70t-125 -25t-125 25t-104 70t-71 107.5t-26 138.5t26 139t71 108t104 70t125 25t125 -25t104 -70t71 -108t26 -139zM593 331q0 61 -16.5 108t-47 79.5t-73 49t-93.5 16.5t-93.5 -16.5t-73 -49t-47 -79.5t-16.5 -108
t16.5 -108t47 -79t73 -48.5t93.5 -16.5t93.5 16.5t73 48.5t47 79t16.5 108zM363 733q-62 0 -103.5 37.5t-52.5 100.5l54 9q14 -36 39.5 -57t62.5 -21t62 21t39 57l54 -9q-11 -63 -52 -100.5t-103 -37.5z" />
    <glyph glyph-name="Ohungarumlaut" unicode="&#x150;" horiz-adv-x="726" 
d="M689 331q0 -76 -26 -138.5t-71 -107.5t-104 -70t-125 -25t-125 25t-104 70t-71 107.5t-26 138.5t26 139t71 108t104 70t125 25t125 -25t104 -70t71 -108t26 -139zM593 331q0 61 -16.5 108t-47 79.5t-73 49t-93.5 16.5t-93.5 -16.5t-73 -49t-47 -79.5t-16.5 -108
t16.5 -108t47 -79t73 -48.5t93.5 -16.5t93.5 16.5t73 48.5t47 79t16.5 108zM386 886l-167 -144l-37 34l137 158q9 10 18 1zM564 886l-167 -144l-37 34l137 158q9 10 18 1z" />
    <glyph glyph-name="Oslash" unicode="&#xd8;" horiz-adv-x="726" 
d="M130 88q-43 45 -68 106.5t-25 136.5q0 76 26 139t71 108t104 70t125 25q94 0 171 -49l65 87l59 -41l-68 -90q45 -46 72 -109t27 -140q0 -76 -26 -138.5t-71 -107.5t-104 -70t-125 -25q-98 0 -178 52l-66 -88l-59 41zM593 331q0 58 -14.5 102.5t-40.5 76.5l-300 -399
q52 -32 125 -32q51 0 93.5 16.5t73 48.5t47 79t16.5 108zM133 331q0 -55 13.5 -97.5t37.5 -74.5l298 397q-21 13 -53.5 20.5t-65.5 7.5q-51 0 -93.5 -16.5t-73 -49t-47 -79.5t-16.5 -108z" />
    <glyph glyph-name="Oslashacute" unicode="&#x1fe;" horiz-adv-x="726" 
d="M130 88q-43 45 -68 106.5t-25 136.5q0 76 26 139t71 108t104 70t125 25q94 0 171 -49l65 87l59 -41l-68 -90q45 -46 72 -109t27 -140q0 -76 -26 -138.5t-71 -107.5t-104 -70t-125 -25q-98 0 -178 52l-66 -88l-59 41zM593 331q0 58 -14.5 102.5t-40.5 76.5l-300 -399
q52 -32 125 -32q51 0 93.5 16.5t73 48.5t47 79t16.5 108zM133 331q0 -55 13.5 -97.5t37.5 -74.5l298 397q-21 13 -53.5 20.5t-65.5 7.5q-51 0 -93.5 -16.5t-73 -49t-47 -79.5t-16.5 -108zM278 719l-30 40l187 139q7 5 10.5 4.5t8.5 -7.5l40 -59z" />
    <glyph glyph-name="OE" unicode="&#x152;" horiz-adv-x="1084" 
d="M1023 663v-77h-343v-205h313v-76h-313v-228h354v-77h-447v103q-35 -49 -93.5 -81t-130.5 -32q-66 0 -125 25t-104 70t-71 107.5t-26 138.5t26 139t71 108t104 70t125 25q72 0 130.5 -32.5t93.5 -80.5v103h436zM593 331q0 61 -16.5 108t-47 79.5t-73 49t-93.5 16.5
t-93.5 -16.5t-73 -49t-47 -79.5t-16.5 -108t16.5 -108t47 -79t73 -48.5t93.5 -16.5t93.5 16.5t73 48.5t47 79t16.5 108z" />
    <glyph glyph-name="Thorn" unicode="&#xde;" horiz-adv-x="613" 
d="M167 0h-93v663h93v-110h149q65 0 115 -13.5t85 -47.5q26 -25 40.5 -63.5t14.5 -87.5q0 -54 -16.5 -99t-48.5 -76q-25 -24 -55.5 -36t-83.5 -12h-200v-118zM167 196h220q21 0 33 5t21 16q17 20 26.5 53t9.5 70q0 34 -8 57.5t-23 39.5q-20 21 -53.5 29.5t-78.5 8.5h-147
v-279z" />
    <glyph glyph-name="Racute" unicode="&#x154;" horiz-adv-x="641" 
d="M374 233q-4 7 -7.5 8.5t-11.5 1.5h-188v-243h-93v663h240q73 0 121.5 -14.5t81.5 -47.5q25 -26 39.5 -62t14.5 -81q0 -69 -33 -120t-81 -80l153 -258h-87q-9 0 -13 2.5t-8 8.5zM167 319h219q20 0 32 5.5t21 15.5q17 19 27.5 52t10.5 62q0 32 -8.5 55.5t-23.5 39.5
q-20 20 -49.5 28.5t-75.5 8.5h-153v-267zM243 719l-30 40l187 139q7 5 10.5 4.5t8.5 -7.5l40 -59z" />
    <glyph glyph-name="Rcaron" unicode="&#x158;" horiz-adv-x="641" 
d="M374 233q-4 7 -7.5 8.5t-11.5 1.5h-188v-243h-93v663h240q73 0 121.5 -14.5t81.5 -47.5q25 -26 39.5 -62t14.5 -81q0 -69 -33 -120t-81 -80l153 -258h-87q-9 0 -13 2.5t-8 8.5zM167 319h219q20 0 32 5.5t21 15.5q17 19 27.5 52t10.5 62q0 32 -8.5 55.5t-23.5 39.5
q-20 20 -49.5 28.5t-75.5 8.5h-153v-267zM486 865l-126 -127q-8 -8 -12 -9.5t-14 -1.5h-25q-10 0 -14 1.5t-12 9.5l-126 127l36 35l129 -102h1l128 102z" />
    <glyph glyph-name="Rcommaaccent" unicode="&#x156;" horiz-adv-x="641" 
d="M374 233q-4 7 -7.5 8.5t-11.5 1.5h-188v-243h-93v663h240q73 0 121.5 -14.5t81.5 -47.5q25 -26 39.5 -62t14.5 -81q0 -69 -33 -120t-81 -80l153 -258h-87q-9 0 -13 2.5t-8 8.5zM167 319h219q20 0 32 5.5t21 15.5q17 19 27.5 52t10.5 62q0 32 -8.5 55.5t-23.5 39.5
q-20 20 -49.5 28.5t-75.5 8.5h-153v-267zM263 -260l27 202h62q8 0 12 -2t6 -11q1 -5 1.5 -11.5t0.5 -12.5q0 -8 -1.5 -16.5t-5 -19t-9.5 -25t-15 -35.5l-35 -78z" />
    <glyph glyph-name="Sacute" unicode="&#x15a;" horiz-adv-x="569" 
d="M133 96q45 -11 82.5 -17.5t71.5 -6.5q72 0 111 30t39 85q0 22 -6 38t-20.5 29.5t-38 25t-57.5 23.5l-77 27q-43 15 -77 31.5t-57 37.5t-35.5 47.5t-12.5 61.5q0 40 17.5 71t49 52t74.5 31.5t93 10.5q48 0 102 -10.5t102 -30.5l-15 -59l-60 8q-34 5 -68 7.5t-60 2.5
q-72 0 -110.5 -18t-38.5 -62q0 -18 6.5 -31.5t21 -25t38 -22.5t57.5 -23l74 -26q45 -16 79.5 -33t58 -39.5t36 -52.5t12.5 -70q0 -45 -17 -81.5t-48 -62.5t-75 -40t-99 -14q-31 0 -63.5 5t-64 14t-60.5 21t-53 26l23 56zM209 719l-30 40l187 139q7 5 10.5 4.5t8.5 -7.5
l40 -59z" />
    <glyph glyph-name="Scircumflex" unicode="&#x15c;" horiz-adv-x="569" 
d="M133 96q45 -11 82.5 -17.5t71.5 -6.5q72 0 111 30t39 85q0 22 -6 38t-20.5 29.5t-38 25t-57.5 23.5l-77 27q-43 15 -77 31.5t-57 37.5t-35.5 47.5t-12.5 61.5q0 40 17.5 71t49 52t74.5 31.5t93 10.5q48 0 102 -10.5t102 -30.5l-15 -59l-60 8q-34 5 -68 7.5t-60 2.5
q-72 0 -110.5 -18t-38.5 -62q0 -18 6.5 -31.5t21 -25t38 -22.5t57.5 -23l74 -26q45 -16 79.5 -33t58 -39.5t36 -52.5t12.5 -70q0 -45 -17 -81.5t-48 -62.5t-75 -40t-99 -14q-31 0 -63.5 5t-64 14t-60.5 21t-53 26l23 56zM420 721l-128 102h-1l-129 -102l-36 35l126 127
q8 8 12 9.5t14 1.5h25q10 0 14 -1.5t12 -9.5l126 -127z" />
    <glyph glyph-name="Scaron" unicode="&#x160;" horiz-adv-x="569" 
d="M133 96q45 -11 82.5 -17.5t71.5 -6.5q72 0 111 30t39 85q0 22 -6 38t-20.5 29.5t-38 25t-57.5 23.5l-77 27q-43 15 -77 31.5t-57 37.5t-35.5 47.5t-12.5 61.5q0 40 17.5 71t49 52t74.5 31.5t93 10.5q48 0 102 -10.5t102 -30.5l-15 -59l-60 8q-34 5 -68 7.5t-60 2.5
q-72 0 -110.5 -18t-38.5 -62q0 -18 6.5 -31.5t21 -25t38 -22.5t57.5 -23l74 -26q45 -16 79.5 -33t58 -39.5t36 -52.5t12.5 -70q0 -45 -17 -81.5t-48 -62.5t-75 -40t-99 -14q-31 0 -63.5 5t-64 14t-60.5 21t-53 26l23 56zM456 865l-126 -127q-8 -8 -12 -9.5t-14 -1.5h-25
q-10 0 -14 1.5t-12 9.5l-126 127l36 35l129 -102h1l128 102z" />
    <glyph glyph-name="Scedilla" unicode="&#x15e;" horiz-adv-x="569" 
d="M133 96q45 -11 82.5 -17.5t71.5 -6.5q72 0 111 30t39 85q0 22 -6.5 38t-21 29.5t-38.5 25t-58 23.5l-77 27q-43 15 -77 31.5t-57 37.5t-35.5 47.5t-12.5 61.5q0 40 17.5 71t49 52t74.5 31.5t93 10.5q48 0 102 -10.5t102 -30.5l-15 -59l-60 8q-34 5 -68 7.5t-60 2.5
q-72 0 -110.5 -18t-38.5 -62q0 -18 6.5 -31.5t21 -25t38 -22.5t57.5 -23l74 -26q45 -16 80 -33t59 -39.5t36.5 -52.5t12.5 -70q0 -43 -15.5 -78t-44 -61t-69.5 -41t-92 -17q-8 -14 -8 -23q0 -11 17.5 -17t38.5 -14.5t38.5 -23.5t17.5 -45q0 -42 -42.5 -69t-130.5 -27l-10 50
l62 12q23 5 32.5 11.5t9.5 15.5q0 10 -16 16.5t-35.5 14t-35.5 18.5t-16 30q0 12 6.5 25t17.5 27q-55 5 -109.5 23t-95.5 42l23 55z" />
    <glyph glyph-name="Scommaaccent" unicode="&#x218;" horiz-adv-x="569" 
d="M133 96q45 -11 82.5 -17.5t71.5 -6.5q72 0 111 30t39 85q0 22 -6 38t-20.5 29.5t-38 25t-57.5 23.5l-77 27q-43 15 -77 31.5t-57 37.5t-35.5 47.5t-12.5 61.5q0 40 17.5 71t49 52t74.5 31.5t93 10.5q48 0 102 -10.5t102 -30.5l-15 -59l-60 8q-34 5 -68 7.5t-60 2.5
q-72 0 -110.5 -18t-38.5 -62q0 -18 6.5 -31.5t21 -25t38 -22.5t57.5 -23l74 -26q45 -16 79.5 -33t58 -39.5t36 -52.5t12.5 -70q0 -45 -17 -81.5t-48 -62.5t-75 -40t-99 -14q-31 0 -63.5 5t-64 14t-60.5 21t-53 26l23 56zM233 -260l27 202h62q8 0 12 -2t6 -11q1 -5 1.5 -11.5
t0.5 -12.5q0 -8 -1.5 -16.5t-5 -19t-9.5 -25t-15 -35.5l-35 -78z" />
    <glyph glyph-name="Tcaron" unicode="&#x164;" horiz-adv-x="585" 
d="M246 586h-225v77h543v-77h-225v-586h-93v586zM457 865l-126 -127q-8 -8 -12 -9.5t-14 -1.5h-25q-10 0 -14 1.5t-12 9.5l-126 127l36 35l129 -102h1l128 102z" />
    <glyph glyph-name="Tcommaaccent" unicode="&#x162;" horiz-adv-x="585" 
d="M246 586h-225v77h543v-77h-225v-586h-93v586zM225 -260l27 202h62q8 0 12 -2t6 -11q1 -5 1.5 -11.5t0.5 -12.5q0 -8 -1.5 -16.5t-5 -19t-9.5 -25t-15 -35.5l-35 -78z" />
    <glyph glyph-name="uni021A" unicode="&#x21a;" horiz-adv-x="585" 
d="M246 586h-225v77h543v-77h-225v-586h-93v586zM225 -260l27 202h62q8 0 12 -2t6 -11q1 -5 1.5 -11.5t0.5 -12.5q0 -8 -1.5 -16.5t-5 -19t-9.5 -25t-15 -35.5l-35 -78z" />
    <glyph glyph-name="Tbar" unicode="&#x166;" horiz-adv-x="585" 
d="M246 586h-225v77h543v-77h-225v-218h152v-71h-152v-297h-93v297h-152v71h152v218z" />
    <glyph glyph-name="Ugrave" unicode="&#xd9;" horiz-adv-x="691" 
d="M621 253q0 -122 -65 -186q-35 -35 -89.5 -56t-120.5 -21t-121 20.5t-90 55.5q-33 32 -49 77.5t-16 108.5v411h93v-409q0 -45 9 -75t29 -52q22 -23 59 -36t86 -13t86 13t59 36q20 22 29.5 52t9.5 75v409h91v-410zM206 836l40 59q5 7 8.5 7.5t10.5 -4.5l187 -139l-30 -40z
" />
    <glyph glyph-name="Uacute" unicode="&#xda;" horiz-adv-x="691" 
d="M621 253q0 -122 -65 -186q-35 -35 -89.5 -56t-120.5 -21t-121 20.5t-90 55.5q-33 32 -49 77.5t-16 108.5v411h93v-409q0 -45 9 -75t29 -52q22 -23 59 -36t86 -13t86 13t59 36q20 22 29.5 52t9.5 75v409h91v-410zM279 719l-30 40l187 139q7 5 10.5 4.5t8.5 -7.5l40 -59z
" />
    <glyph glyph-name="Ucircumflex" unicode="&#xdb;" horiz-adv-x="691" 
d="M621 253q0 -122 -65 -186q-35 -35 -89.5 -56t-120.5 -21t-121 20.5t-90 55.5q-33 32 -49 77.5t-16 108.5v411h93v-409q0 -45 9 -75t29 -52q22 -23 59 -36t86 -13t86 13t59 36q20 22 29.5 52t9.5 75v409h91v-410zM476 721l-128 102h-1l-129 -102l-36 35l126 127
q8 8 12 9.5t14 1.5h25q10 0 14 -1.5t12 -9.5l126 -127z" />
    <glyph glyph-name="Utilde" unicode="&#x168;" horiz-adv-x="691" 
d="M621 253q0 -122 -65 -186q-35 -35 -89.5 -56t-120.5 -21t-121 20.5t-90 55.5q-33 32 -49 77.5t-16 108.5v411h93v-409q0 -45 9 -75t29 -52q22 -23 59 -36t86 -13t86 13t59 36q20 22 29.5 52t9.5 75v409h91v-410zM516 845q-11 -44 -37 -72t-66 -28q-18 0 -35.5 7t-34 15
t-31 15t-27.5 7q-19 0 -32.5 -10.5t-27.5 -35.5l-47 14q11 44 37 72t66 28q18 0 35.5 -7t34 -15t31 -15t27.5 -7q19 0 32.5 10.5t27.5 35.5z" />
    <glyph glyph-name="Udieresis" unicode="&#xdc;" horiz-adv-x="691" 
d="M621 253q0 -122 -65 -186q-35 -35 -89.5 -56t-120.5 -21t-121 20.5t-90 55.5q-33 32 -49 77.5t-16 108.5v411h93v-409q0 -45 9 -75t29 -52q22 -23 59 -36t86 -13t86 13t59 36q20 22 29.5 52t9.5 75v409h91v-410zM301 751h-98v96h80q11 0 14.5 -3t3.5 -12v-81zM490 751
h-98v96h80q11 0 14.5 -3t3.5 -12v-81z" />
    <glyph glyph-name="Umacron" unicode="&#x16a;" horiz-adv-x="691" 
d="M621 253q0 -122 -65 -186q-35 -35 -89.5 -56t-120.5 -21t-121 20.5t-90 55.5q-33 32 -49 77.5t-16 108.5v411h93v-409q0 -45 9 -75t29 -52q22 -23 59 -36t86 -13t86 13t59 36q20 22 29.5 52t9.5 75v409h91v-410zM196 764v67h300v-67h-300z" />
    <glyph glyph-name="Ubreve" unicode="&#x16c;" horiz-adv-x="691" 
d="M621 253q0 -122 -65 -186q-35 -35 -89.5 -56t-120.5 -21t-121 20.5t-90 55.5q-33 32 -49 77.5t-16 108.5v411h93v-409q0 -45 9 -75t29 -52q22 -23 59 -36t86 -13t86 13t59 36q20 22 29.5 52t9.5 75v409h91v-410zM347 733q-62 0 -103.5 37.5t-52.5 100.5l54 9
q14 -36 39.5 -57t62.5 -21t62 21t39 57l54 -9q-11 -63 -52 -100.5t-103 -37.5z" />
    <glyph glyph-name="Uring" unicode="&#x16e;" horiz-adv-x="691" 
d="M621 253q0 -122 -65 -186q-35 -35 -89.5 -56t-120.5 -21t-121 20.5t-90 55.5q-33 32 -49 77.5t-16 108.5v411h93v-409q0 -45 9 -75t29 -52q22 -23 59 -36t86 -13t86 13t59 36q20 22 29.5 52t9.5 75v409h91v-410zM461 836q0 -26 -9.5 -46.5t-25 -34.5t-36.5 -22t-44 -8
t-44 8t-37 22t-25 34.5t-9 46.5q0 25 9 46t25 35t37 22t44 8t44 -8t36.5 -22t25 -35t9.5 -46zM402 836q0 28 -15 41.5t-41 13.5t-41 -13.5t-15 -41.5t15 -41.5t41 -13.5t41 13.5t15 41.5z" />
    <glyph glyph-name="Uhungarumlaut" unicode="&#x170;" horiz-adv-x="691" 
d="M621 253q0 -122 -65 -186q-35 -35 -89.5 -56t-120.5 -21t-121 20.5t-90 55.5q-33 32 -49 77.5t-16 108.5v411h93v-409q0 -45 9 -75t29 -52q22 -23 59 -36t86 -13t86 13t59 36q20 22 29.5 52t9.5 75v409h91v-410zM391 886l-167 -144l-37 34l137 158q9 10 18 1zM569 886
l-167 -144l-37 34l137 158q9 10 18 1z" />
    <glyph glyph-name="Uogonek" unicode="&#x172;" horiz-adv-x="691" 
d="M621 663v-406q0 -72 -20 -116.5t-52 -74.5q-23 -22 -54 -40t-59.5 -36.5t-48.5 -38.5t-20 -46q0 -20 13.5 -32.5t40.5 -12.5q8 0 19 1t22 3l23 4l15 -45q-21 -12 -46.5 -18.5t-48.5 -6.5q-51 0 -83.5 26t-32.5 68q0 28 16 55t42 44q-66 1 -121.5 21t-90.5 55
q-33 32 -49 77.5t-16 108.5v410h93v-409q0 -45 9 -75t29 -52q22 -23 59 -36t86 -13t86 13t59 36q20 22 29.5 52t9.5 75v409h91z" />
    <glyph glyph-name="Wgrave" unicode="&#x1e80;" horiz-adv-x="993" 
d="M647 320q9 -27 18 -58t18 -61.5t17 -59t14 -50.5h2q9 43 26.5 102t37.5 123l108 338q2 6 5 7.5t9 1.5h81l-217 -663h-93q-14 0 -18 11l-96 303q-10 31 -20 64.5t-19 64.5t-16 58t-11 46h-2q-5 -19 -12 -47t-15.5 -60.5t-17.5 -66t-18 -63.5l-90 -310h-94q-14 0 -18 11
l-216 652h83q7 0 10 -1.5t5 -7.5l107 -333q10 -33 20.5 -66t19.5 -63t16.5 -56t11.5 -45h2q3 18 9.5 44l14 56t17 62t18.5 64l102 346h79q8 0 11.5 -1.5t5.5 -9.5zM373 836l40 59q5 7 8.5 7.5t10.5 -4.5l187 -139l-30 -40z" />
    <glyph glyph-name="Wacute" unicode="&#x1e82;" horiz-adv-x="993" 
d="M647 320q9 -27 18 -58t18 -61.5t17 -59t14 -50.5h2q9 43 26.5 102t37.5 123l108 338q2 6 5 7.5t9 1.5h81l-217 -663h-93q-14 0 -18 11l-96 303q-10 31 -20 64.5t-19 64.5t-16 58t-11 46h-2q-5 -19 -12 -47t-15.5 -60.5t-17.5 -66t-18 -63.5l-90 -310h-94q-14 0 -18 11
l-216 652h83q7 0 10 -1.5t5 -7.5l107 -333q10 -33 20.5 -66t19.5 -63t16.5 -56t11.5 -45h2q3 18 9.5 44l14 56t17 62t18.5 64l102 346h79q8 0 11.5 -1.5t5.5 -9.5zM403 719l-30 40l187 139q7 5 10.5 4.5t8.5 -7.5l40 -59z" />
    <glyph glyph-name="Wcircumflex" unicode="&#x174;" horiz-adv-x="993" 
d="M647 320q9 -27 18 -58t18 -61.5t17 -59t14 -50.5h2q9 43 26.5 102t37.5 123l108 338q2 6 5 7.5t9 1.5h81l-217 -663h-93q-14 0 -18 11l-96 303q-10 31 -20 64.5t-19 64.5t-16 58t-11 46h-2q-5 -19 -12 -47t-15.5 -60.5t-17.5 -66t-18 -63.5l-90 -310h-94q-14 0 -18 11
l-216 652h83q7 0 10 -1.5t5 -7.5l107 -333q10 -33 20.5 -66t19.5 -63t16.5 -56t11.5 -45h2q3 18 9.5 44l14 56t17 62t18.5 64l102 346h79q8 0 11.5 -1.5t5.5 -9.5zM626 721l-128 102h-1l-129 -102l-36 35l126 127q8 8 12 9.5t14 1.5h25q10 0 14 -1.5t12 -9.5l126 -127z" />
    <glyph glyph-name="Wdieresis" unicode="&#x1e84;" horiz-adv-x="993" 
d="M647 320q9 -27 18 -58t18 -61.5t17 -59t14 -50.5h2q9 43 26.5 102t37.5 123l108 338q2 6 5 7.5t9 1.5h81l-217 -663h-93q-14 0 -18 11l-96 303q-10 31 -20 64.5t-19 64.5t-16 58t-11 46h-2q-5 -19 -12 -47t-15.5 -60.5t-17.5 -66t-18 -63.5l-90 -310h-94q-14 0 -18 11
l-216 652h83q7 0 10 -1.5t5 -7.5l107 -333q10 -33 20.5 -66t19.5 -63t16.5 -56t11.5 -45h2q3 18 9.5 44l14 56t17 62t18.5 64l102 346h79q8 0 11.5 -1.5t5.5 -9.5zM451 751h-98v96h80q11 0 14.5 -3t3.5 -12v-81zM640 751h-98v96h80q11 0 14.5 -3t3.5 -12v-81z" />
    <glyph glyph-name="Ygrave" unicode="&#x1ef2;" horiz-adv-x="621" 
d="M358 217v-217h-93v217l-263 446h90q6 0 9 -1.5t7 -7.5l104 -181q35 -61 60.5 -107.5t39.5 -75.5h2q14 29 39.5 76t59.5 107l103 181q5 9 17 9h86zM153 836l40 59q5 7 8.5 7.5t10.5 -4.5l187 -139l-30 -40z" />
    <glyph glyph-name="Yacute" unicode="&#xdd;" horiz-adv-x="621" 
d="M358 217v-217h-93v217l-263 446h90q6 0 9 -1.5t7 -7.5l104 -181q35 -61 60.5 -107.5t39.5 -75.5h2q14 29 39.5 76t59.5 107l103 181q5 9 17 9h86zM244 719l-30 40l187 139q7 5 10.5 4.5t8.5 -7.5l40 -59z" />
    <glyph glyph-name="Ycircumflex" unicode="&#x176;" horiz-adv-x="621" 
d="M358 217v-217h-93v217l-263 446h90q6 0 9 -1.5t7 -7.5l104 -181q35 -61 60.5 -107.5t39.5 -75.5h2q14 29 39.5 76t59.5 107l103 181q5 9 17 9h86zM442 721l-128 102h-1l-129 -102l-36 35l126 127q8 8 12 9.5t14 1.5h25q10 0 14 -1.5t12 -9.5l126 -127z" />
    <glyph glyph-name="Ydieresis" unicode="&#x178;" horiz-adv-x="621" 
d="M358 217v-217h-93v217l-263 446h90q6 0 9 -1.5t7 -7.5l104 -181q35 -61 60.5 -107.5t39.5 -75.5h2q14 29 39.5 76t59.5 107l103 181q5 9 17 9h86zM265 751h-98v96h80q11 0 14.5 -3t3.5 -12v-81zM454 751h-98v96h80q11 0 14.5 -3t3.5 -12v-81z" />
    <glyph glyph-name="Zacute" unicode="&#x179;" horiz-adv-x="575" 
d="M43 586v77h485v-46q0 -13 -11 -29l-253 -362q-38 -54 -67.5 -93t-41.5 -56h378v-77h-491v45q0 8 2.5 14t8.5 15l254 362q37 52 64.5 89.5t44.5 60.5h-373zM204 719l-30 40l187 139q7 5 10.5 4.5t8.5 -7.5l40 -59z" />
    <glyph glyph-name="Zcaron" unicode="&#x17d;" horiz-adv-x="575" 
d="M43 586v77h485v-46q0 -13 -11 -29l-253 -362q-38 -54 -67.5 -93t-41.5 -56h378v-77h-491v45q0 8 2.5 14t8.5 15l254 362q37 52 64.5 89.5t44.5 60.5h-373zM456 865l-126 -127q-8 -8 -12 -9.5t-14 -1.5h-25q-10 0 -14 1.5t-12 9.5l-126 127l36 35l129 -102h1l128 102z" />
    <glyph glyph-name="Zdotaccent" unicode="&#x17b;" horiz-adv-x="575" 
d="M43 586v77h485v-46q0 -13 -11 -29l-253 -362q-38 -54 -67.5 -93t-41.5 -56h378v-77h-491v45q0 8 2.5 14t8.5 15l254 362q37 52 64.5 89.5t44.5 60.5h-373zM340 739h-106v101h88q11 0 14.5 -4t3.5 -13v-84z" />
    <glyph glyph-name="agrave" unicode="&#xe0;" horiz-adv-x="536" 
d="M365 313q0 29 -5 45.5t-16 28.5q-14 16 -37.5 23t-53.5 7q-27 0 -56.5 -6t-58.5 -17l-50 -18l-28 48q50 36 100.5 54t100.5 18q44 0 82.5 -13.5t65.5 -42.5q21 -23 32.5 -53t11.5 -77v-238l71 -13v-45q-15 -7 -35 -11.5t-39 -4.5q-26 0 -45.5 12t-30.5 33l-33 -17
q-28 -14 -61 -24t-66 -10q-42 0 -75 13t-57 36q-23 22 -36 51t-13 62q0 64 43.5 98t123.5 34h8q15 0 34.5 -1t41 -2.5t42.5 -4t39 -4.5v39zM365 207q0 5 -2 7.5t-10 2.5h-170q-18 0 -29 -3.5t-18 -10.5q-15 -15 -15 -46q0 -38 27 -64t79 -26q32 0 67.5 9.5t61.5 23.5
q9 5 9 16v91zM135 656l40 59q5 7 8.5 7.5t10.5 -4.5l187 -139l-30 -40z" />
    <glyph glyph-name="aacute" unicode="&#xe1;" horiz-adv-x="536" 
d="M365 313q0 29 -5 45.5t-16 28.5q-14 16 -37.5 23t-53.5 7q-27 0 -56.5 -6t-58.5 -17l-50 -18l-28 48q50 36 100.5 54t100.5 18q44 0 82.5 -13.5t65.5 -42.5q21 -23 32.5 -53t11.5 -77v-238l71 -13v-45q-15 -7 -35 -11.5t-39 -4.5q-26 0 -45.5 12t-30.5 33l-33 -17
q-28 -14 -61 -24t-66 -10q-42 0 -75 13t-57 36q-23 22 -36 51t-13 62q0 64 43.5 98t123.5 34h8q15 0 34.5 -1t41 -2.5t42.5 -4t39 -4.5v39zM365 207q0 5 -2 7.5t-10 2.5h-170q-18 0 -29 -3.5t-18 -10.5q-15 -15 -15 -46q0 -38 27 -64t79 -26q32 0 67.5 9.5t61.5 23.5
q9 5 9 16v91zM175 539l-30 40l187 139q7 5 10.5 4.5t8.5 -7.5l40 -59z" />
    <glyph glyph-name="acircumflex" unicode="&#xe2;" horiz-adv-x="536" 
d="M365 313q0 29 -5 45.5t-16 28.5q-14 16 -37.5 23t-53.5 7q-27 0 -56.5 -6t-58.5 -17l-50 -18l-28 48q50 36 100.5 54t100.5 18q44 0 82.5 -13.5t65.5 -42.5q21 -23 32.5 -53t11.5 -77v-238l71 -13v-45q-15 -7 -35 -11.5t-39 -4.5q-26 0 -45.5 12t-30.5 33l-33 -17
q-28 -14 -61 -24t-66 -10q-42 0 -75 13t-57 36q-23 22 -36 51t-13 62q0 64 43.5 98t123.5 34h8q15 0 34.5 -1t41 -2.5t42.5 -4t39 -4.5v39zM365 207q0 5 -2 7.5t-10 2.5h-170q-18 0 -29 -3.5t-18 -10.5q-15 -15 -15 -46q0 -38 27 -64t79 -26q32 0 67.5 9.5t61.5 23.5
q9 5 9 16v91zM392 541l-128 102h-1l-129 -102l-36 35l126 127q8 8 12 9.5t14 1.5h25q10 0 14 -1.5t12 -9.5l126 -127z" />
    <glyph glyph-name="atilde" unicode="&#xe3;" horiz-adv-x="536" 
d="M365 313q0 29 -5 45.5t-16 28.5q-14 16 -37.5 23t-53.5 7q-27 0 -56.5 -6t-58.5 -17l-50 -18l-28 48q50 36 100.5 54t100.5 18q44 0 82.5 -13.5t65.5 -42.5q21 -23 32.5 -53t11.5 -77v-238l71 -13v-45q-15 -7 -35 -11.5t-39 -4.5q-26 0 -45.5 12t-30.5 33l-33 -17
q-28 -14 -61 -24t-66 -10q-42 0 -75 13t-57 36q-23 22 -36 51t-13 62q0 64 43.5 98t123.5 34h8q15 0 34.5 -1t41 -2.5t42.5 -4t39 -4.5v39zM365 207q0 5 -2 7.5t-10 2.5h-170q-18 0 -29 -3.5t-18 -10.5q-15 -15 -15 -46q0 -38 27 -64t79 -26q32 0 67.5 9.5t61.5 23.5
q9 5 9 16v91zM430 665q-11 -44 -37 -72t-66 -28q-18 0 -35.5 7t-34 15t-31 15t-27.5 7q-19 0 -32.5 -10.5t-27.5 -35.5l-47 14q11 44 37 72t66 28q18 0 35.5 -7t34 -15t31 -15t27.5 -7q19 0 32.5 10.5t27.5 35.5z" />
    <glyph glyph-name="adieresis" unicode="&#xe4;" horiz-adv-x="536" 
d="M365 313q0 29 -5 45.5t-16 28.5q-14 16 -37.5 23t-53.5 7q-27 0 -56.5 -6t-58.5 -17l-50 -18l-28 48q50 36 100.5 54t100.5 18q44 0 82.5 -13.5t65.5 -42.5q21 -23 32.5 -53t11.5 -77v-238l71 -13v-45q-15 -7 -35 -11.5t-39 -4.5q-26 0 -45.5 12t-30.5 33l-33 -17
q-28 -14 -61 -24t-66 -10q-42 0 -75 13t-57 36q-23 22 -36 51t-13 62q0 64 43.5 98t123.5 34h8q15 0 34.5 -1t41 -2.5t42.5 -4t39 -4.5v39zM365 207q0 5 -2 7.5t-10 2.5h-170q-18 0 -29 -3.5t-18 -10.5q-15 -15 -15 -46q0 -38 27 -64t79 -26q32 0 67.5 9.5t61.5 23.5
q9 5 9 16v91zM216 571h-98v96h80q11 0 14.5 -3t3.5 -12v-81zM405 571h-98v96h80q11 0 14.5 -3t3.5 -12v-81z" />
    <glyph glyph-name="amacron" unicode="&#x101;" horiz-adv-x="536" 
d="M365 313q0 29 -5 45.5t-16 28.5q-14 16 -37.5 23t-53.5 7q-27 0 -56.5 -6t-58.5 -17l-50 -18l-28 48q50 36 100.5 54t100.5 18q44 0 82.5 -13.5t65.5 -42.5q21 -23 32.5 -53t11.5 -77v-238l71 -13v-45q-15 -7 -35 -11.5t-39 -4.5q-26 0 -45.5 12t-30.5 33l-33 -17
q-28 -14 -61 -24t-66 -10q-42 0 -75 13t-57 36q-23 22 -36 51t-13 62q0 64 43.5 98t123.5 34h8q15 0 34.5 -1t41 -2.5t42.5 -4t39 -4.5v39zM365 207q0 5 -2 7.5t-10 2.5h-170q-18 0 -29 -3.5t-18 -10.5q-15 -15 -15 -46q0 -38 27 -64t79 -26q32 0 67.5 9.5t61.5 23.5
q9 5 9 16v91zM111 584v67h300v-67h-300z" />
    <glyph glyph-name="abreve" unicode="&#x103;" horiz-adv-x="536" 
d="M365 313q0 29 -5 45.5t-16 28.5q-14 16 -37.5 23t-53.5 7q-27 0 -56.5 -6t-58.5 -17l-50 -18l-28 48q50 36 100.5 54t100.5 18q44 0 82.5 -13.5t65.5 -42.5q21 -23 32.5 -53t11.5 -77v-238l71 -13v-45q-15 -7 -35 -11.5t-39 -4.5q-26 0 -45.5 12t-30.5 33l-33 -17
q-28 -14 -61 -24t-66 -10q-42 0 -75 13t-57 36q-23 22 -36 51t-13 62q0 64 43.5 98t123.5 34h8q15 0 34.5 -1t41 -2.5t42.5 -4t39 -4.5v39zM365 207q0 5 -2 7.5t-10 2.5h-170q-18 0 -29 -3.5t-18 -10.5q-15 -15 -15 -46q0 -38 27 -64t79 -26q32 0 67.5 9.5t61.5 23.5
q9 5 9 16v91zM262 553q-62 0 -103.5 37.5t-52.5 100.5l54 9q14 -36 39.5 -57t62.5 -21t62 21t39 57l54 -9q-11 -63 -52 -100.5t-103 -37.5z" />
    <glyph glyph-name="acaron" unicode="&#x1ce;" horiz-adv-x="536" 
d="M365 313q0 29 -5 45.5t-16 28.5q-14 16 -37.5 23t-53.5 7q-27 0 -56.5 -6t-58.5 -17l-50 -18l-28 48q50 36 100.5 54t100.5 18q44 0 82.5 -13.5t65.5 -42.5q21 -23 32.5 -53t11.5 -77v-238l71 -13v-45q-15 -7 -35 -11.5t-39 -4.5q-26 0 -45.5 12t-30.5 33l-33 -17
q-28 -14 -61 -24t-66 -10q-42 0 -75 13t-57 36q-23 22 -36 51t-13 62q0 64 43.5 98t123.5 34h8q15 0 34.5 -1t41 -2.5t42.5 -4t39 -4.5v39zM365 207q0 5 -2 7.5t-10 2.5h-170q-18 0 -29 -3.5t-18 -10.5q-15 -15 -15 -46q0 -38 27 -64t79 -26q32 0 67.5 9.5t61.5 23.5
q9 5 9 16v91zM426 685l-126 -127q-8 -8 -12 -9.5t-14 -1.5h-25q-10 0 -14 1.5t-12 9.5l-126 127l36 35l129 -102h1l128 102z" />
    <glyph glyph-name="aring" unicode="&#xe5;" horiz-adv-x="536" 
d="M365 313q0 29 -5 45.5t-16 28.5q-14 16 -37.5 23t-53.5 7q-27 0 -56.5 -6t-58.5 -17l-50 -18l-28 48q50 36 100.5 54t100.5 18q44 0 82.5 -13.5t65.5 -42.5q21 -23 32.5 -53t11.5 -77v-238l71 -13v-45q-15 -7 -35 -11.5t-39 -4.5q-26 0 -45.5 12t-30.5 33l-33 -17
q-28 -14 -61 -24t-66 -10q-42 0 -75 13t-57 36q-23 22 -36 51t-13 62q0 64 43.5 98t123.5 34h8q15 0 34.5 -1t41 -2.5t42.5 -4t39 -4.5v39zM365 207q0 5 -2 7.5t-10 2.5h-170q-18 0 -29 -3.5t-18 -10.5q-15 -15 -15 -46q0 -38 27 -64t79 -26q32 0 67.5 9.5t61.5 23.5
q9 5 9 16v91zM376 656q0 -26 -9.5 -46.5t-25 -34.5t-36.5 -22t-44 -8t-44 8t-37 22t-25 34.5t-9 46.5q0 25 9 46t25 35t37 22t44 8t44 -8t36.5 -22t25 -35t9.5 -46zM317 656q0 28 -15 41.5t-41 13.5t-41 -13.5t-15 -41.5t15 -41.5t41 -13.5t41 13.5t15 41.5z" />
    <glyph glyph-name="aringacute" unicode="&#x1fb;" horiz-adv-x="536" 
d="M365 313q0 29 -5 45.5t-16 28.5q-14 16 -37.5 23t-53.5 7q-27 0 -56.5 -6t-58.5 -17l-50 -18l-28 48q50 36 100.5 54t100.5 18q44 0 82.5 -13.5t65.5 -42.5q21 -23 32.5 -53t11.5 -77v-238l71 -13v-45q-15 -7 -35 -11.5t-39 -4.5q-26 0 -45.5 12t-30.5 33l-33 -17
q-28 -14 -61 -24t-66 -10q-42 0 -75 13t-57 36q-23 22 -36 51t-13 62q0 64 43.5 98t123.5 34h8q15 0 34.5 -1t41 -2.5t42.5 -4t39 -4.5v39zM365 207q0 5 -2 7.5t-10 2.5h-170q-18 0 -29 -3.5t-18 -10.5q-15 -15 -15 -46q0 -38 27 -64t79 -26q32 0 67.5 9.5t61.5 23.5
q9 5 9 16v91zM376 642q0 -26 -9.5 -46.5t-25 -34.5t-36.5 -22t-44 -8t-44 8t-37 22t-25 34.5t-9 46.5q0 25 9 46t25 35t37 22t44 8t44 -8t36.5 -22t25 -35t9.5 -46zM317 642q0 28 -15 41.5t-41 13.5t-41 -13.5t-15 -41.5t15 -41.5t41 -13.5t41 13.5t15 41.5zM168 762l-30 40
l187 139q7 5 10.5 4.5t8.5 -7.5l40 -59z" />
    <glyph glyph-name="aogonek" unicode="&#x105;" horiz-adv-x="536" 
d="M365 313q0 29 -5 45.5t-16 28.5q-14 16 -37.5 23t-53.5 7q-27 0 -56.5 -6t-58.5 -17l-50 -18l-28 48q50 36 100.5 54t100.5 18q44 0 82.5 -13.5t65.5 -42.5q21 -23 32.5 -53t11.5 -77v-238l71 -13v-45l-6 -3q-57 -26 -89.5 -52t-32.5 -58q0 -42 54 -42q8 0 19 1t22 3
l23 4l15 -45q-21 -12 -46.5 -18.5t-48.5 -6.5q-51 0 -83.5 26t-32.5 68q0 38 25.5 65t72.5 48q-28 10 -42 39l-33 -17q-28 -14 -61 -24t-66 -10q-42 0 -75 13t-57 36q-23 22 -36 51t-13 62q0 64 43.5 98t123.5 34h8q15 0 34.5 -1t41 -2.5t42.5 -4t39 -4.5v39zM365 207
q0 5 -2 7.5t-10 2.5h-170q-18 0 -29 -3.5t-18 -10.5q-15 -15 -15 -46q0 -38 27 -64t79 -26q32 0 67.5 9.5t61.5 23.5q9 5 9 16v91z" />
    <glyph glyph-name="ae" unicode="&#xe6;" horiz-adv-x="859" 
d="M811 73q-46 -36 -101 -58.5t-109 -22.5q-57 0 -101.5 19t-76.5 54l-33 -20q-38 -23 -80 -38t-93 -15q-35 0 -67.5 12t-58 33.5t-40.5 52t-15 68.5q0 64 43.5 98t123.5 34h8q29 0 71.5 -3.5t77.5 -8.5v35q0 29 -5 45.5t-16 28.5q-14 16 -37.5 23t-53.5 7q-27 0 -55.5 -6
t-57.5 -17l-49 -18l-29 48q99 72 199 72q48 0 92 -18t72 -60q32 37 76.5 57.5t97.5 20.5q50 0 92 -18t72 -49.5t46.5 -73.5t16.5 -90q0 -25 -5.5 -34.5t-16.5 -9.5h-349q5 -66 43.5 -107.5t114.5 -41.5q29 0 60.5 7.5t59.5 18.5l54 21zM230 67q42 0 85.5 15.5t70.5 36.5
q-11 22 -17.5 48.5t-8.5 53.5h-174q-18 0 -29 -3.5t-18 -10.5q-15 -15 -15 -46q0 -38 27 -66t79 -28zM734 289q-4 57 -40.5 92.5t-99.5 35.5q-62 0 -100 -33.5t-44 -94.5h284z" />
    <glyph glyph-name="aeacute" unicode="&#x1fd;" horiz-adv-x="859" 
d="M811 73q-46 -36 -101 -58.5t-109 -22.5q-57 0 -101.5 19t-76.5 54l-33 -20q-38 -23 -80 -38t-93 -15q-35 0 -67.5 12t-58 33.5t-40.5 52t-15 68.5q0 64 43.5 98t123.5 34h8q29 0 71.5 -3.5t77.5 -8.5v35q0 29 -5 45.5t-16 28.5q-14 16 -37.5 23t-53.5 7q-27 0 -55.5 -6
t-57.5 -17l-49 -18l-29 48q99 72 199 72q48 0 92 -18t72 -60q32 37 76.5 57.5t97.5 20.5q50 0 92 -18t72 -49.5t46.5 -73.5t16.5 -90q0 -25 -5.5 -34.5t-16.5 -9.5h-349q5 -66 43.5 -107.5t114.5 -41.5q29 0 60.5 7.5t59.5 18.5l54 21zM230 67q42 0 85.5 15.5t70.5 36.5
q-11 22 -17.5 48.5t-8.5 53.5h-174q-18 0 -29 -3.5t-18 -10.5q-15 -15 -15 -46q0 -38 27 -66t79 -28zM734 289q-4 57 -40.5 92.5t-99.5 35.5q-62 0 -100 -33.5t-44 -94.5h284zM371 539l-30 40l187 139q7 5 10.5 4.5t8.5 -7.5l40 -59z" />
    <glyph glyph-name="cacute" unicode="&#x107;" horiz-adv-x="512" 
d="M486 83q-45 -40 -101 -65.5t-112 -25.5q-54 0 -98 19t-74.5 53t-47.5 80.5t-17 101.5q0 54 18 100t49.5 79t75 52t93.5 19q36 0 69 -10.5t60 -30t46.5 -46t29.5 -58.5l-56 -29l-35 33q-35 33 -61 48t-61 15q-60 0 -98.5 -44.5t-38.5 -125.5q0 -88 40.5 -132t115.5 -44
q50 0 118 31l55 25zM184 539l-30 40l187 139q7 5 10.5 4.5t8.5 -7.5l40 -59z" />
    <glyph glyph-name="ccedilla" unicode="&#xe7;" horiz-adv-x="512" 
d="M486 83q-45 -39 -99 -64t-109 -27q-9 -14 -9 -24q0 -11 17.5 -17t38.5 -14.5t38.5 -23.5t17.5 -45q0 -42 -42.5 -69t-130.5 -27l-10 50l62 12q23 5 32.5 11.5t9.5 15.5q0 10 -16 16.5t-35.5 14t-35.5 18.5t-16 30q0 13 7.5 27.5t20.5 28.5q-44 7 -79.5 29t-60.5 55
t-38 75t-13 91q0 54 18 100t50 79t75 52t93 19q36 0 69 -10.5t60 -30t46.5 -46t29.5 -58.5l-56 -29l-35 33q-35 33 -61 48t-61 15q-59 0 -98 -44.5t-39 -125.5q0 -88 40.5 -132t115.5 -44q50 0 118 31l55 25z" />
    <glyph glyph-name="ccircumflex" unicode="&#x109;" horiz-adv-x="512" 
d="M486 83q-45 -40 -101 -65.5t-112 -25.5q-54 0 -98 19t-74.5 53t-47.5 80.5t-17 101.5q0 54 18 100t49.5 79t75 52t93.5 19q36 0 69 -10.5t60 -30t46.5 -46t29.5 -58.5l-56 -29l-35 33q-35 33 -61 48t-61 15q-60 0 -98.5 -44.5t-38.5 -125.5q0 -88 40.5 -132t115.5 -44
q50 0 118 31l55 25zM400 541l-128 102h-1l-129 -102l-36 35l126 127q8 8 12 9.5t14 1.5h25q10 0 14 -1.5t12 -9.5l126 -127z" />
    <glyph glyph-name="ccaron" unicode="&#x10d;" horiz-adv-x="512" 
d="M486 83q-45 -40 -101 -65.5t-112 -25.5q-54 0 -98 19t-74.5 53t-47.5 80.5t-17 101.5q0 54 18 100t49.5 79t75 52t93.5 19q36 0 69 -10.5t60 -30t46.5 -46t29.5 -58.5l-56 -29l-35 33q-35 33 -61 48t-61 15q-60 0 -98.5 -44.5t-38.5 -125.5q0 -88 40.5 -132t115.5 -44
q50 0 118 31l55 25zM436 685l-126 -127q-8 -8 -12 -9.5t-14 -1.5h-25q-10 0 -14 1.5t-12 9.5l-126 127l36 35l129 -102h1l128 102z" />
    <glyph glyph-name="cdotaccent" unicode="&#x10b;" horiz-adv-x="512" 
d="M486 83q-45 -40 -101 -65.5t-112 -25.5q-54 0 -98 19t-74.5 53t-47.5 80.5t-17 101.5q0 54 18 100t49.5 79t75 52t93.5 19q36 0 69 -10.5t60 -30t46.5 -46t29.5 -58.5l-56 -29l-35 33q-35 33 -61 48t-61 15q-60 0 -98.5 -44.5t-38.5 -125.5q0 -88 40.5 -132t115.5 -44
q50 0 118 31l55 25zM323 559h-106v101h88q11 0 14.5 -4t3.5 -13v-84z" />
    <glyph glyph-name="dcaron" unicode="&#x10f;" horiz-adv-x="666" 
d="M413 709h88v-709h-64l-17 48l-35 -19q-37 -20 -67.5 -28.5t-63.5 -8.5q-48 0 -88 18t-68.5 51t-44.5 79t-16 102q0 61 19 108t50 79.5t71 49.5t81 17q34 0 66 -10t64 -27l25 -13v263zM413 361q0 9 -2 13t-10 8q-29 15 -62.5 24t-64.5 9q-69 0 -107.5 -42t-38.5 -130
q0 -91 37.5 -130.5t103.5 -39.5q33 0 70 10t63 24q7 4 9 8t2 12v234zM553 507l27 202h62q8 0 12 -2t6 -11q1 -5 1.5 -11.5t0.5 -12.5q0 -8 -1.5 -16.5t-5 -19t-9.5 -25t-15 -35.5l-35 -78z" />
    <glyph glyph-name="dcroat" unicode="&#x111;" horiz-adv-x="569" 
d="M413 572h-189v60h189v77h88v-78l78 -14v-45h-78v-572h-64l-17 48l-35 -19q-37 -20 -67.5 -28.5t-63.5 -8.5q-48 0 -88 18t-68.5 51t-44.5 79t-16 102q0 61 19 108t50 79.5t70.5 49.5t80.5 17q35 0 67 -10t64 -27l25 -13v126zM413 360q0 9 -2 13t-10 8q-29 15 -62.5 24
t-64.5 9q-69 0 -107.5 -41.5t-38.5 -129.5q0 -91 37.5 -130.5t103.5 -39.5q33 0 70 10t63 24q7 4 9 8t2 12v233z" />
    <glyph glyph-name="eth" unicode="&#xf0;" horiz-adv-x="557" 
d="M137 569l107 49q-25 17 -52 32.5t-55 31.5l27 47q44 -16 81.5 -36t69.5 -43l125 57l27 -51l-100 -46q73 -66 109.5 -150.5t36.5 -180.5q0 -64 -16.5 -117t-48 -91t-76 -59t-100.5 -21h-3q-51 0 -94 18.5t-73.5 51.5t-47.5 78t-17 97q0 53 18 95.5t48.5 72.5t71 46
t85.5 16q35 0 70 -10t70 -28q-14 44 -42 83.5t-62 66.5l-132 -60zM425 269q0 21 -0.5 39.5t-3.5 33.5q-2 9 -6 13.5t-14 9.5q-58 26 -125 26q-72 0 -111.5 -38t-39.5 -117q0 -75 38 -121t111 -46q40 0 68.5 15t47 41.5t27 63t8.5 80.5z" />
    <glyph glyph-name="egrave" unicode="&#xe8;" horiz-adv-x="536" 
d="M490 73q-46 -36 -101.5 -58.5t-109.5 -22.5q-56 0 -100.5 19t-76.5 53t-49 80t-17 100q0 56 18 102.5t49.5 79.5t74.5 51.5t93 18.5t91.5 -18t71.5 -49.5t47 -73.5t17 -90q0 -25 -6 -34.5t-18 -9.5h-347q5 -66 43.5 -107.5t115.5 -41.5q29 0 61 8t60 19l54 21zM411 289
q-4 57 -40 92.5t-99 35.5q-62 0 -100.5 -33.5t-44.5 -94.5h284zM151 656l40 59q5 7 8.5 7.5t10.5 -4.5l187 -139l-30 -40z" />
    <glyph glyph-name="eacute" unicode="&#xe9;" horiz-adv-x="536" 
d="M490 73q-46 -36 -101.5 -58.5t-109.5 -22.5q-56 0 -100.5 19t-76.5 53t-49 80t-17 100q0 56 18 102.5t49.5 79.5t74.5 51.5t93 18.5t91.5 -18t71.5 -49.5t47 -73.5t17 -90q0 -25 -6 -34.5t-18 -9.5h-347q5 -66 43.5 -107.5t115.5 -41.5q29 0 61 8t60 19l54 21zM411 289
q-4 57 -40 92.5t-99 35.5q-62 0 -100.5 -33.5t-44.5 -94.5h284zM186 539l-30 40l187 139q7 5 10.5 4.5t8.5 -7.5l40 -59z" />
    <glyph glyph-name="ecircumflex" unicode="&#xea;" horiz-adv-x="536" 
d="M490 73q-46 -36 -101.5 -58.5t-109.5 -22.5q-56 0 -100.5 19t-76.5 53t-49 80t-17 100q0 56 18 102.5t49.5 79.5t74.5 51.5t93 18.5t91.5 -18t71.5 -49.5t47 -73.5t17 -90q0 -25 -6 -34.5t-18 -9.5h-347q5 -66 43.5 -107.5t115.5 -41.5q29 0 61 8t60 19l54 21zM411 289
q-4 57 -40 92.5t-99 35.5q-62 0 -100.5 -33.5t-44.5 -94.5h284zM403 541l-128 102h-1l-129 -102l-36 35l126 127q8 8 12 9.5t14 1.5h25q10 0 14 -1.5t12 -9.5l126 -127z" />
    <glyph glyph-name="ecaron" unicode="&#x11b;" horiz-adv-x="536" 
d="M490 73q-46 -36 -101.5 -58.5t-109.5 -22.5q-56 0 -100.5 19t-76.5 53t-49 80t-17 100q0 56 18 102.5t49.5 79.5t74.5 51.5t93 18.5t91.5 -18t71.5 -49.5t47 -73.5t17 -90q0 -25 -6 -34.5t-18 -9.5h-347q5 -66 43.5 -107.5t115.5 -41.5q29 0 61 8t60 19l54 21zM411 289
q-4 57 -40 92.5t-99 35.5q-62 0 -100.5 -33.5t-44.5 -94.5h284zM436 685l-126 -127q-8 -8 -12 -9.5t-14 -1.5h-25q-10 0 -14 1.5t-12 9.5l-126 127l36 35l129 -102h1l128 102z" />
    <glyph glyph-name="edieresis" unicode="&#xeb;" horiz-adv-x="536" 
d="M490 73q-46 -36 -101.5 -58.5t-109.5 -22.5q-56 0 -100.5 19t-76.5 53t-49 80t-17 100q0 56 18 102.5t49.5 79.5t74.5 51.5t93 18.5t91.5 -18t71.5 -49.5t47 -73.5t17 -90q0 -25 -6 -34.5t-18 -9.5h-347q5 -66 43.5 -107.5t115.5 -41.5q29 0 61 8t60 19l54 21zM411 289
q-4 57 -40 92.5t-99 35.5q-62 0 -100.5 -33.5t-44.5 -94.5h284zM227 571h-98v96h80q11 0 14.5 -3t3.5 -12v-81zM416 571h-98v96h80q11 0 14.5 -3t3.5 -12v-81z" />
    <glyph glyph-name="emacron" unicode="&#x113;" horiz-adv-x="536" 
d="M490 73q-46 -36 -101.5 -58.5t-109.5 -22.5q-56 0 -100.5 19t-76.5 53t-49 80t-17 100q0 56 18 102.5t49.5 79.5t74.5 51.5t93 18.5t91.5 -18t71.5 -49.5t47 -73.5t17 -90q0 -25 -6 -34.5t-18 -9.5h-347q5 -66 43.5 -107.5t115.5 -41.5q29 0 61 8t60 19l54 21zM411 289
q-4 57 -40 92.5t-99 35.5q-62 0 -100.5 -33.5t-44.5 -94.5h284zM122 584v67h300v-67h-300z" />
    <glyph glyph-name="ebreve" unicode="&#x115;" horiz-adv-x="536" 
d="M490 73q-46 -36 -101.5 -58.5t-109.5 -22.5q-56 0 -100.5 19t-76.5 53t-49 80t-17 100q0 56 18 102.5t49.5 79.5t74.5 51.5t93 18.5t91.5 -18t71.5 -49.5t47 -73.5t17 -90q0 -25 -6 -34.5t-18 -9.5h-347q5 -66 43.5 -107.5t115.5 -41.5q29 0 61 8t60 19l54 21zM411 289
q-4 57 -40 92.5t-99 35.5q-62 0 -100.5 -33.5t-44.5 -94.5h284zM273 553q-62 0 -103.5 37.5t-52.5 100.5l54 9q14 -36 39.5 -57t62.5 -21t62 21t39 57l54 -9q-11 -63 -52 -100.5t-103 -37.5z" />
    <glyph glyph-name="edotaccent" unicode="&#x117;" horiz-adv-x="536" 
d="M490 73q-46 -36 -101.5 -58.5t-109.5 -22.5q-56 0 -100.5 19t-76.5 53t-49 80t-17 100q0 56 18 102.5t49.5 79.5t74.5 51.5t93 18.5t91.5 -18t71.5 -49.5t47 -73.5t17 -90q0 -25 -6 -34.5t-18 -9.5h-347q5 -66 43.5 -107.5t115.5 -41.5q29 0 61 8t60 19l54 21zM411 289
q-4 57 -40 92.5t-99 35.5q-62 0 -100.5 -33.5t-44.5 -94.5h284zM326 559h-106v101h88q11 0 14.5 -4t3.5 -13v-84z" />
    <glyph glyph-name="eogonek" unicode="&#x119;" horiz-adv-x="536" 
d="M344 1q-15 -4 -33 -6.5t-32 -2.5q-56 0 -101 19t-76.5 53t-48.5 80t-17 100q0 55 18 101.5t49.5 80t74 52t92.5 18.5t92 -18.5t72 -50t47 -73.5t17 -90q0 -25 -5.5 -34t-16.5 -9h-349q5 -66 44 -107.5t115 -41.5q29 0 61 8t60 19l54 21l29 -47q-63 -44 -98 -87.5
t-35 -81.5q0 -20 13.5 -32.5t40.5 -12.5q8 0 19 1t22 3l23 4l15 -45q-21 -12 -46.5 -18.5t-48.5 -6.5q-51 0 -83.5 26t-32.5 68q0 32 18 59.5t47 50.5zM411 289q-4 57 -40 92.5t-99 35.5q-62 0 -100.5 -33.5t-44.5 -94.5h284z" />
    <glyph glyph-name="gcircumflex" unicode="&#x11d;" horiz-adv-x="540" 
d="M538 438l-97 -22q-10 -3 -5 -11q14 -22 22 -46t8 -52q0 -41 -16 -75.5t-44 -60t-65.5 -39.5t-80.5 -14q-24 0 -43 3.5t-31 8.5q-5 2 -7.5 1t-4.5 -5l-18 -31q-8 -13 -8 -19q0 -5 6 -8.5t23 -3.5h147q54 0 89 -11t57 -33q17 -17 25 -40t8 -50q0 -38 -18 -70.5t-50.5 -55.5
t-77.5 -36t-99 -13t-98.5 12.5t-76 35t-49 52.5t-17.5 66q0 34 16.5 58t43.5 39q-17 19 -17 39q0 14 7.5 27.5t21.5 30.5l38 47q-32 26 -52.5 63t-20.5 82q0 41 16 75.5t44 60t65.5 39.5t80.5 14q37 0 71 -11.5t60 -31.5q38 29 59 41t39 12q13 0 25.5 -5t23.5 -13v-50z
M381 307q0 58 -33 86.5t-88 28.5t-88 -28.5t-33 -86.5t33 -86.5t88 -28.5t88 28.5t33 86.5zM158 -12q-29 0 -42 -12q-16 -15 -16 -45q0 -46 41.5 -74.5t116.5 -28.5q71 0 116 26t45 75q0 28 -16 42q-11 10 -31 13.5t-48 3.5h-166zM391 541l-128 102h-1l-129 -102l-36 35
l126 127q8 8 12 9.5t14 1.5h25q10 0 14 -1.5t12 -9.5l126 -127z" />
    <glyph glyph-name="gbreve" unicode="&#x11f;" horiz-adv-x="540" 
d="M538 438l-97 -22q-10 -3 -5 -11q14 -22 22 -46t8 -52q0 -41 -16 -75.5t-44 -60t-65.5 -39.5t-80.5 -14q-24 0 -43 3.5t-31 8.5q-5 2 -7.5 1t-4.5 -5l-18 -31q-8 -13 -8 -19q0 -5 6 -8.5t23 -3.5h147q54 0 89 -11t57 -33q17 -17 25 -40t8 -50q0 -38 -18 -70.5t-50.5 -55.5
t-77.5 -36t-99 -13t-98.5 12.5t-76 35t-49 52.5t-17.5 66q0 34 16.5 58t43.5 39q-17 19 -17 39q0 14 7.5 27.5t21.5 30.5l38 47q-32 26 -52.5 63t-20.5 82q0 41 16 75.5t44 60t65.5 39.5t80.5 14q37 0 71 -11.5t60 -31.5q38 29 59 41t39 12q13 0 25.5 -5t23.5 -13v-50z
M381 307q0 58 -33 86.5t-88 28.5t-88 -28.5t-33 -86.5t33 -86.5t88 -28.5t88 28.5t33 86.5zM158 -12q-29 0 -42 -12q-16 -15 -16 -45q0 -46 41.5 -74.5t116.5 -28.5q71 0 116 26t45 75q0 28 -16 42q-11 10 -31 13.5t-48 3.5h-166zM263 553q-62 0 -103.5 37.5t-52.5 100.5
l54 9q14 -36 39.5 -57t62.5 -21t62 21t39 57l54 -9q-11 -63 -52 -100.5t-103 -37.5z" />
    <glyph glyph-name="gdotaccent" unicode="&#x121;" horiz-adv-x="540" 
d="M538 438l-97 -22q-10 -3 -5 -11q14 -22 22 -46t8 -52q0 -41 -16 -75.5t-44 -60t-65.5 -39.5t-80.5 -14q-24 0 -43 3.5t-31 8.5q-5 2 -7.5 1t-4.5 -5l-18 -31q-8 -13 -8 -19q0 -5 6 -8.5t23 -3.5h147q54 0 89 -11t57 -33q17 -17 25 -40t8 -50q0 -38 -18 -70.5t-50.5 -55.5
t-77.5 -36t-99 -13t-98.5 12.5t-76 35t-49 52.5t-17.5 66q0 34 16.5 58t43.5 39q-17 19 -17 39q0 14 7.5 27.5t21.5 30.5l38 47q-32 26 -52.5 63t-20.5 82q0 41 16 75.5t44 60t65.5 39.5t80.5 14q37 0 71 -11.5t60 -31.5q38 29 59 41t39 12q13 0 25.5 -5t23.5 -13v-50z
M381 307q0 58 -33 86.5t-88 28.5t-88 -28.5t-33 -86.5t33 -86.5t88 -28.5t88 28.5t33 86.5zM158 -12q-29 0 -42 -12q-16 -15 -16 -45q0 -46 41.5 -74.5t116.5 -28.5q71 0 116 26t45 75q0 28 -16 42q-11 10 -31 13.5t-48 3.5h-166zM316 559h-106v101h88q11 0 14.5 -4t3.5 -13
v-84z" />
    <glyph glyph-name="gcommaaccent" unicode="&#x123;" horiz-adv-x="540" 
d="M324 748l-27 -202h-62q-8 0 -12 2t-6 11q-1 5 -1.5 11.5t-0.5 12.5q0 16 6 35.5t25 60.5l35 78zM538 438l-97 -22q-10 -3 -5 -11q14 -22 22 -46t8 -52q0 -41 -16 -75.5t-44 -60t-65.5 -39.5t-80.5 -14q-24 0 -43 3.5t-31 8.5q-5 2 -7.5 1t-4.5 -5l-18 -31q-8 -13 -8 -19
q0 -5 6 -8.5t23 -3.5h147q54 0 89 -11t57 -33q17 -17 25 -40t8 -50q0 -38 -18 -70.5t-50.5 -55.5t-77.5 -36t-99 -13t-98.5 12.5t-76 35t-49 52.5t-17.5 66q0 34 16.5 58t43.5 39q-17 19 -17 39q0 14 7.5 27.5t21.5 30.5l38 47q-32 26 -52.5 63t-20.5 82q0 41 16 75.5t44 60
t65.5 39.5t80.5 14q37 0 71 -11.5t60 -31.5q38 29 59 41t39 12q13 0 25.5 -5t23.5 -13v-50zM381 307q0 58 -33 86.5t-88 28.5t-88 -28.5t-33 -86.5t33 -86.5t88 -28.5t88 28.5t33 86.5zM158 -12q-29 0 -42 -12q-16 -15 -16 -45q0 -46 41.5 -74.5t116.5 -28.5q71 0 116 26
t45 75q0 28 -16 42q-11 10 -31 13.5t-48 3.5h-166z" />
    <glyph glyph-name="hcircumflex" unicode="&#x125;" horiz-adv-x="549" 
d="M172 461q29 14 62.5 24.5t65.5 10.5q44 0 80.5 -13.5t61.5 -37.5q23 -23 35.5 -55t12.5 -82v-308h-88v304q0 34 -6 52t-19 31q-14 14 -38.5 20t-53.5 6h-1q-32 0 -67 -8t-58 -19q-6 -3 -7.5 -6.5t-1.5 -9.5v-370h-88v709h88v-259zM236 712l-128 102h-1l-129 -102l-36 35
l126 127q8 8 12 9.5t14 1.5h25q10 0 14 -1.5t12 -9.5l126 -127z" />
    <glyph glyph-name="hbar" unicode="&#x127;" horiz-adv-x="555" 
d="M178 461q29 14 62.5 24.5t65.5 10.5q44 0 80.5 -13.5t61.5 -37.5q23 -23 35.5 -55t12.5 -82v-308h-88v304q0 34 -6 52t-19 31q-14 14 -38.5 20t-53.5 6h-1q-32 0 -67 -8t-58 -19q-6 -3 -7.5 -6.5t-1.5 -9.5v-370h-88v572h-78v45l78 14v78h88v-77h189v-60h-189v-122z" />
    <glyph glyph-name="dotlessi" unicode="&#x131;" horiz-adv-x="224" 
d="M68 488h88v-488h-88v488z" />
    <glyph glyph-name="igrave" unicode="&#xec;" horiz-adv-x="216" 
d="M64 488h88v-488h-88v488zM-15 656l40 59q5 7 8.5 7.5t10.5 -4.5l187 -139l-30 -40z" />
    <glyph glyph-name="iacute" unicode="&#xed;" horiz-adv-x="216" 
d="M64 488h88v-488h-88v488zM15 539l-30 40l187 139q7 5 10.5 4.5t8.5 -7.5l40 -59z" />
    <glyph glyph-name="icircumflex" unicode="&#xee;" horiz-adv-x="214" 
d="M63 488h88v-488h-88v488zM237 541l-128 102h-1l-129 -102l-36 35l126 127q8 8 12 9.5t14 1.5h25q10 0 14 -1.5t12 -9.5l126 -127z" />
    <glyph glyph-name="itilde" unicode="&#x129;" horiz-adv-x="212" 
d="M62 488h88v-488h-88v488zM275 665q-11 -44 -37 -72t-66 -28q-18 0 -35.5 7t-34 15t-31 15t-27.5 7q-19 0 -32.5 -10.5t-27.5 -35.5l-47 14q11 44 37 72t66 28q18 0 35.5 -7t34 -15t31 -15t27.5 -7q19 0 32.5 10.5t27.5 35.5z" />
    <glyph glyph-name="idieresis" unicode="&#xef;" horiz-adv-x="214" 
d="M63 488h88v-488h-88v488zM62 571h-98v96h80q11 0 14.5 -3t3.5 -12v-81zM251 571h-98v96h80q11 0 14.5 -3t3.5 -12v-81z" />
    <glyph glyph-name="imacron" unicode="&#x12b;" horiz-adv-x="212" 
d="M62 488h88v-488h-88v488zM-44 584v67h300v-67h-300z" />
    <glyph glyph-name="ibreve" unicode="&#x12d;" horiz-adv-x="212" 
d="M62 488h88v-488h-88v488zM107 553q-62 0 -103.5 37.5t-52.5 100.5l54 9q14 -36 39.5 -57t62.5 -21t62 21t39 57l54 -9q-11 -63 -52 -100.5t-103 -37.5z" />
    <glyph glyph-name="iogonek" unicode="&#x12f;" horiz-adv-x="216" 
d="M152 0q-15 -6 -29 -16t-25.5 -22.5t-18.5 -27t-7 -30.5q0 -21 13 -33t40 -12q8 0 19.5 1t22.5 3l23 4l15 -45q-21 -12 -46.5 -18.5t-48.5 -6.5q-51 0 -83.5 26t-32.5 68q0 32 19 58t51 49v490h88v-488zM62 675h74q11 0 14.5 -3.5t3.5 -12.5v-78h-92v94z" />
    <glyph glyph-name="ij" unicode="&#x133;" horiz-adv-x="440" 
d="M68 488h88v-488h-88v488zM66 675h74q11 0 14.5 -3.5t3.5 -12.5v-78h-92v94zM372 -74q0 -40 -8.5 -70.5t-29.5 -52.5q-36 -36 -105 -36q-17 0 -38 2.5t-35 6.5v46l50 9q23 5 38 10t24 14q9 10 12.5 25t3.5 41v567h88v-562zM282 675h74q11 0 14.5 -3.5t3.5 -12.5v-78h-92
v94z" />
    <glyph glyph-name="jcircumflex" unicode="&#x135;" horiz-adv-x="213" 
d="M150 -74q0 -40 -8.5 -70.5t-29.5 -52.5q-36 -36 -105 -36q-17 0 -38 2.5t-35 6.5v46l50 9q23 5 38 10t24 14q9 10 12.5 25t3.5 41v567h88v-562zM236 541l-128 102h-1l-129 -102l-36 35l126 127q8 8 12 9.5t14 1.5h25q10 0 14 -1.5t12 -9.5l126 -127z" />
    <glyph glyph-name="kcommaaccent" unicode="&#x137;" horiz-adv-x="532" 
d="M257 249q-23 -19 -50 -38t-52 -34v-177h-88v709h88v-454l290 243l48 -55l-173 -144l204 -299h-86q-9 0 -13 2t-9 8zM213 -260l27 202h62q8 0 12 -2t6 -11q1 -5 1.5 -11.5t0.5 -12.5q0 -8 -1.5 -16.5t-5 -19t-9.5 -25t-15 -35.5l-35 -78z" />
    <glyph glyph-name="kgreenlandic" unicode="&#x138;" horiz-adv-x="532" 
d="M257 249q-23 -19 -50 -38t-52 -34v-177h-88v488h88v-233l290 243l48 -55l-173 -144l204 -299h-86q-9 0 -13 2t-9 8z" />
    <glyph glyph-name="lacute" unicode="&#x13a;" horiz-adv-x="246" 
d="M239 14q-15 -7 -40 -12t-45 -5q-42 0 -66 24t-24 71v617h88v-637l87 -14v-44zM30 747l-30 40l187 139q7 5 10.5 4.5t8.5 -7.5l40 -59z" />
    <glyph glyph-name="lcaron" unicode="&#x13e;" horiz-adv-x="321" 
d="M243 14q-15 -7 -40 -12t-45 -5q-42 0 -66 24t-24 71v617h88v-637l87 -14v-44zM208 507l27 202h62q8 0 12 -2t6 -11q1 -5 1.5 -11.5t0.5 -12.5q0 -8 -1.5 -16.5t-5 -19t-9.5 -25t-15 -35.5l-35 -78z" />
    <glyph glyph-name="lcommaaccent" unicode="&#x13c;" horiz-adv-x="250" 
d="M243 14q-15 -7 -40 -12t-45 -5q-42 0 -66 24t-24 71v617h88v-637l87 -14v-44zM85 -260l27 202h62q8 0 12 -2t6 -11q1 -5 1.5 -11.5t0.5 -12.5q0 -8 -1.5 -16.5t-5 -19t-9.5 -25t-15 -35.5l-35 -78z" />
    <glyph glyph-name="lslash" unicode="&#x142;" horiz-adv-x="350" 
d="M300 14q-15 -7 -40 -12t-45 -5q-42 0 -66 24t-24 71v203l-87 -55l-38 54l125 82v333h88v-287l99 65l38 -54l-137 -90v-271l87 -14v-44z" />
    <glyph glyph-name="longs" unicode="&#x17f;" horiz-adv-x="298" 
d="M2 420v50l89 16q-5 17 -7.5 37.5t-2.5 39.5q0 39 14 68t37 48t53 28.5t63 9.5q37 0 78 -12t74 -32l-20 -51l-38 8q-21 5 -42.5 8t-41.5 3q-43 0 -66.5 -20t-23.5 -66q0 -35 7 -73.5t7 -95.5v-386h-88v420h-92z" />
    <glyph glyph-name="ldot" unicode="&#x140;" horiz-adv-x="344" 
d="M243 14q-15 -7 -40 -12t-45 -5q-42 0 -66 24t-24 71v617h88v-637l87 -14v-44zM332 338h-106v101h88q11 0 14.5 -4t3.5 -13v-84z" />
    <glyph glyph-name="nacute" unicode="&#x144;" horiz-adv-x="554" 
d="M131 488l15 -42l31 15q29 14 62.5 24.5t65.5 10.5q44 0 80.5 -13.5t61.5 -37.5q23 -23 35.5 -55t12.5 -82v-308h-88v304q0 34 -6 52t-19 31q-14 14 -38.5 20t-53.5 6h-1q-32 0 -67 -8t-58 -19q-6 -3 -7.5 -6.5t-1.5 -9.5v-370h-88v488h64zM207 539l-30 40l187 139
q7 5 10.5 4.5t8.5 -7.5l40 -59z" />
    <glyph glyph-name="ncaron" unicode="&#x148;" horiz-adv-x="554" 
d="M131 488l15 -42l31 15q29 14 62.5 24.5t65.5 10.5q44 0 80.5 -13.5t61.5 -37.5q23 -23 35.5 -55t12.5 -82v-308h-88v304q0 34 -6 52t-19 31q-14 14 -38.5 20t-53.5 6h-1q-32 0 -67 -8t-58 -19q-6 -3 -7.5 -6.5t-1.5 -9.5v-370h-88v488h64zM462 685l-126 -127
q-8 -8 -12 -9.5t-14 -1.5h-25q-10 0 -14 1.5t-12 9.5l-126 127l36 35l129 -102h1l128 102z" />
    <glyph glyph-name="ntilde" unicode="&#xf1;" horiz-adv-x="554" 
d="M131 488l15 -42l31 15q29 14 62.5 24.5t65.5 10.5q44 0 80.5 -13.5t61.5 -37.5q23 -23 35.5 -55t12.5 -82v-308h-88v304q0 34 -6 52t-19 31q-14 14 -38.5 20t-53.5 6h-1q-32 0 -67 -8t-58 -19q-6 -3 -7.5 -6.5t-1.5 -9.5v-370h-88v488h64zM463 665q-11 -44 -37 -72
t-66 -28q-18 0 -35.5 7t-34 15t-31 15t-27.5 7q-19 0 -32.5 -10.5t-27.5 -35.5l-47 14q11 44 37 72t66 28q18 0 35.5 -7t34 -15t31 -15t27.5 -7q19 0 32.5 10.5t27.5 35.5z" />
    <glyph glyph-name="ncommaaccent" unicode="&#x146;" horiz-adv-x="554" 
d="M131 488l15 -42l31 15q29 14 62.5 24.5t65.5 10.5q44 0 80.5 -13.5t61.5 -37.5q23 -23 35.5 -55t12.5 -82v-308h-88v304q0 34 -6 52t-19 31q-14 14 -38.5 20t-53.5 6h-1q-32 0 -67 -8t-58 -19q-6 -3 -7.5 -6.5t-1.5 -9.5v-370h-88v488h64zM214 -260l27 202h62q8 0 12 -2
t6 -11q1 -5 1.5 -11.5t0.5 -12.5q0 -8 -1.5 -16.5t-5 -19t-9.5 -25t-15 -35.5l-35 -78z" />
    <glyph glyph-name="napostrophe" unicode="&#x149;" horiz-adv-x="687" 
d="M264 488l15 -42l31 15q29 14 62.5 24.5t65.5 10.5q44 0 80.5 -13.5t61.5 -37.5q23 -23 35.5 -55t12.5 -82v-308h-88v304q0 34 -6 52t-19 31q-14 14 -38.5 20t-53.5 6h-1q-32 0 -67 -8t-58 -19q-6 -3 -7.5 -6.5t-1.5 -9.5v-370h-88v488h64zM167 590q0 -22 -4 -39.5
t-15 -37t-31 -43.5t-53 -58l-31 24l61 109q4 7 3 9.5t-6 5.5l-14 9q-8 5 -10 9.5t-2 12.5v72h82q12 0 16 -3.5t4 -13.5v-56z" />
    <glyph glyph-name="eng" unicode="&#x14b;" horiz-adv-x="554" 
d="M131 488l15 -42l31 15q29 14 62.5 24.5t65.5 10.5q44 0 80.5 -13.5t61.5 -37.5q23 -23 35.5 -55t12.5 -82v-334q0 -40 -8.5 -70.5t-29.5 -52.5q-36 -36 -105 -36q-17 0 -38 2.5t-35 6.5v46l50 9q23 5 38 10t24 14q9 10 12.5 25t3.5 41v335q0 34 -6 52t-19 31
q-14 14 -38.5 20t-53.5 6h-1q-32 0 -67 -8t-58 -19q-6 -3 -7.5 -6.5t-1.5 -9.5v-370h-88v488h64z" />
    <glyph glyph-name="ograve" unicode="&#xf2;" horiz-adv-x="553" 
d="M517 244q0 -58 -19 -104.5t-51.5 -79.5t-76 -50.5t-92.5 -17.5h-3q-49 0 -92.5 17.5t-76 50.5t-51.5 79.5t-19 104.5t19 104.5t51.5 79.5t76 50.5t92.5 17.5h3q49 0 92.5 -17.5t76 -50.5t51.5 -79.5t19 -104.5zM426 244q0 83 -38 126.5t-110 43.5h-3q-72 0 -110 -43.5
t-38 -126.5t38 -126.5t110 -43.5h3q72 0 110 43.5t38 126.5zM153 656l40 59q5 7 8.5 7.5t10.5 -4.5l187 -139l-30 -40z" />
    <glyph glyph-name="oacute" unicode="&#xf3;" horiz-adv-x="553" 
d="M517 244q0 -58 -19 -104.5t-51.5 -79.5t-76 -50.5t-92.5 -17.5h-3q-49 0 -92.5 17.5t-76 50.5t-51.5 79.5t-19 104.5t19 104.5t51.5 79.5t76 50.5t92.5 17.5h3q49 0 92.5 -17.5t76 -50.5t51.5 -79.5t19 -104.5zM426 244q0 83 -38 126.5t-110 43.5h-3q-72 0 -110 -43.5
t-38 -126.5t38 -126.5t110 -43.5h3q72 0 110 43.5t38 126.5zM183 539l-30 40l187 139q7 5 10.5 4.5t8.5 -7.5l40 -59z" />
    <glyph glyph-name="ocircumflex" unicode="&#xf4;" horiz-adv-x="553" 
d="M517 244q0 -58 -19 -104.5t-51.5 -79.5t-76 -50.5t-92.5 -17.5h-3q-49 0 -92.5 17.5t-76 50.5t-51.5 79.5t-19 104.5t19 104.5t51.5 79.5t76 50.5t92.5 17.5h3q49 0 92.5 -17.5t76 -50.5t51.5 -79.5t19 -104.5zM426 244q0 83 -38 126.5t-110 43.5h-3q-72 0 -110 -43.5
t-38 -126.5t38 -126.5t110 -43.5h3q72 0 110 43.5t38 126.5zM406 541l-128 102h-1l-129 -102l-36 35l126 127q8 8 12 9.5t14 1.5h25q10 0 14 -1.5t12 -9.5l126 -127z" />
    <glyph glyph-name="otilde" unicode="&#xf5;" horiz-adv-x="553" 
d="M517 244q0 -58 -19 -104.5t-51.5 -79.5t-76 -50.5t-92.5 -17.5h-3q-49 0 -92.5 17.5t-76 50.5t-51.5 79.5t-19 104.5t19 104.5t51.5 79.5t76 50.5t92.5 17.5h3q49 0 92.5 -17.5t76 -50.5t51.5 -79.5t19 -104.5zM426 244q0 83 -38 126.5t-110 43.5h-3q-72 0 -110 -43.5
t-38 -126.5t38 -126.5t110 -43.5h3q72 0 110 43.5t38 126.5zM445 665q-11 -44 -37 -72t-66 -28q-18 0 -35.5 7t-34 15t-31 15t-27.5 7q-19 0 -32.5 -10.5t-27.5 -35.5l-47 14q11 44 37 72t66 28q18 0 35.5 -7t34 -15t31 -15t27.5 -7q19 0 32.5 10.5t27.5 35.5z" />
    <glyph glyph-name="odieresis" unicode="&#xf6;" horiz-adv-x="553" 
d="M517 244q0 -58 -19 -104.5t-51.5 -79.5t-76 -50.5t-92.5 -17.5h-3q-49 0 -92.5 17.5t-76 50.5t-51.5 79.5t-19 104.5t19 104.5t51.5 79.5t76 50.5t92.5 17.5h3q49 0 92.5 -17.5t76 -50.5t51.5 -79.5t19 -104.5zM426 244q0 83 -38 126.5t-110 43.5h-3q-72 0 -110 -43.5
t-38 -126.5t38 -126.5t110 -43.5h3q72 0 110 43.5t38 126.5zM231 571h-98v96h80q11 0 14.5 -3t3.5 -12v-81zM420 571h-98v96h80q11 0 14.5 -3t3.5 -12v-81z" />
    <glyph glyph-name="omacron" unicode="&#x14d;" horiz-adv-x="553" 
d="M517 244q0 -58 -19 -104.5t-51.5 -79.5t-76 -50.5t-92.5 -17.5h-3q-49 0 -92.5 17.5t-76 50.5t-51.5 79.5t-19 104.5t19 104.5t51.5 79.5t76 50.5t92.5 17.5h3q49 0 92.5 -17.5t76 -50.5t51.5 -79.5t19 -104.5zM426 244q0 83 -38 126.5t-110 43.5h-3q-72 0 -110 -43.5
t-38 -126.5t38 -126.5t110 -43.5h3q72 0 110 43.5t38 126.5zM126 584v67h300v-67h-300z" />
    <glyph glyph-name="obreve" unicode="&#x14f;" horiz-adv-x="553" 
d="M517 244q0 -58 -19 -104.5t-51.5 -79.5t-76 -50.5t-92.5 -17.5h-3q-49 0 -92.5 17.5t-76 50.5t-51.5 79.5t-19 104.5t19 104.5t51.5 79.5t76 50.5t92.5 17.5h3q49 0 92.5 -17.5t76 -50.5t51.5 -79.5t19 -104.5zM426 244q0 83 -38 126.5t-110 43.5h-3q-72 0 -110 -43.5
t-38 -126.5t38 -126.5t110 -43.5h3q72 0 110 43.5t38 126.5zM277 553q-62 0 -103.5 37.5t-52.5 100.5l54 9q14 -36 39.5 -57t62.5 -21t62 21t39 57l54 -9q-11 -63 -52 -100.5t-103 -37.5z" />
    <glyph glyph-name="ohungarumlaut" unicode="&#x151;" horiz-adv-x="553" 
d="M517 244q0 -58 -19 -104.5t-51.5 -79.5t-76 -50.5t-92.5 -17.5h-3q-49 0 -92.5 17.5t-76 50.5t-51.5 79.5t-19 104.5t19 104.5t51.5 79.5t76 50.5t92.5 17.5h3q49 0 92.5 -17.5t76 -50.5t51.5 -79.5t19 -104.5zM426 244q0 83 -38 126.5t-110 43.5h-3q-72 0 -110 -43.5
t-38 -126.5t38 -126.5t110 -43.5h3q72 0 110 43.5t38 126.5zM298 706l-167 -144l-37 34l137 158q9 10 18 1zM476 706l-167 -144l-37 34l137 158q9 10 18 1z" />
    <glyph glyph-name="oslash" unicode="&#xf8;" horiz-adv-x="553" 
d="M106 61q-32 32 -51 78.5t-19 104.5t19 104.5t51.5 79.5t76 50.5t92.5 17.5h3q64 0 120 -31l63 87l53 -35l-66 -91q32 -33 50.5 -79t18.5 -103q0 -58 -19 -104.5t-51.5 -79.5t-76 -50.5t-92.5 -17.5h-3q-67 0 -119 30l-62 -87l-53 36zM127 244q0 -71 29 -114l194 269
q-30 15 -72 15h-3q-72 0 -110 -43.5t-38 -126.5zM426 244q0 68 -28 112l-194 -268q31 -14 71 -14h3q72 0 110 43.5t38 126.5z" />
    <glyph glyph-name="oslashacute" unicode="&#x1ff;" horiz-adv-x="553" 
d="M106 61q-32 32 -51 78.5t-19 104.5t19 104.5t51.5 79.5t76 50.5t92.5 17.5h3q64 0 120 -31l63 87l53 -35l-66 -91q32 -33 50.5 -79t18.5 -103q0 -58 -19 -104.5t-51.5 -79.5t-76 -50.5t-92.5 -17.5h-3q-67 0 -119 30l-62 -87l-53 36zM127 244q0 -71 29 -114l194 269
q-30 15 -72 15h-3q-72 0 -110 -43.5t-38 -126.5zM426 244q0 68 -28 112l-194 -268q31 -14 71 -14h3q72 0 110 43.5t38 126.5zM193 539l-30 40l187 139q7 5 10.5 4.5t8.5 -7.5l40 -59z" />
    <glyph glyph-name="oe" unicode="&#x153;" horiz-adv-x="927" 
d="M881 73q-46 -36 -101.5 -58.5t-109.5 -22.5q-66 0 -116.5 26t-82.5 72q-32 -48 -82.5 -73t-110.5 -25h-3q-49 0 -92.5 17.5t-76 50.5t-51.5 79.5t-19 104.5t19 104.5t51.5 79.5t76 50.5t92.5 17.5h3q60 0 110 -25.5t83 -73.5q32 47 81 73t109 26q50 0 92 -18t72 -49.5
t47 -73.5t17 -90q0 -25 -6.5 -34.5t-17.5 -9.5h-347q5 -66 44 -107.5t115 -41.5q29 0 61 8t60 19l54 21zM426 244q0 83 -38 126.5t-110 43.5h-3q-72 0 -110 -43.5t-38 -126.5t38 -126.5t110 -43.5h3q72 0 110 43.5t38 126.5zM802 289q-4 57 -40 92.5t-99 35.5
q-62 0 -100.5 -33.5t-44.5 -94.5h284z" />
    <glyph glyph-name="thorn" unicode="&#xfe;" horiz-adv-x="566" 
d="M67 709h88v-267l26 14q36 20 69 30t65 10q45 0 84.5 -18t68 -51t45 -79.5t16.5 -103.5t-15.5 -103.5t-44 -79.5t-68.5 -51t-88 -18q-32 0 -63.5 9t-66.5 28l-28 15v-273h-88v938zM155 127q0 -9 3 -12.5t8 -6.5q26 -14 61.5 -24.5t69.5 -10.5q30 0 56 8t44.5 28t29.5 52.5
t11 82.5q0 48 -10.5 81t-29.5 52.5t-44 28t-55 8.5q-34 0 -70.5 -10.5t-62.5 -24.5q-5 -3 -8 -6.5t-3 -12.5v-233z" />
    <glyph glyph-name="racute" unicode="&#x155;" horiz-adv-x="363" 
d="M149 422q64 42 99 58t60 16q13 0 25.5 -3.5t23.5 -8.5v-58q-33 -7 -85 -22.5t-107 -36.5q-10 -4 -10 -15v-352h-88v488h63zM141 539l-30 40l187 139q7 5 10.5 4.5t8.5 -7.5l40 -59z" />
    <glyph glyph-name="rcaron" unicode="&#x159;" horiz-adv-x="361" 
d="M148 422q64 42 99 58t60 16q13 0 25.5 -3.5t23.5 -8.5v-58q-33 -7 -85 -22.5t-107 -36.5q-10 -4 -10 -15v-352h-88v488h63zM388 685l-126 -127q-8 -8 -12 -9.5t-14 -1.5h-25q-10 0 -14 1.5t-12 9.5l-126 127l36 35l129 -102h1l128 102z" />
    <glyph glyph-name="rcommaaccent" unicode="&#x157;" horiz-adv-x="361" 
d="M147 422q64 42 99 58t60 16q13 0 25.5 -3.5t23.5 -8.5v-58q-33 -7 -85 -22.5t-107 -36.5q-10 -4 -10 -15v-352h-88v488h63zM43 -260l27 202h62q8 0 12 -2t6 -11q1 -5 1.5 -11.5t0.5 -12.5q0 -8 -1.5 -16.5t-5 -19t-9.5 -25t-15 -35.5l-35 -78z" />
    <glyph glyph-name="sacute" unicode="&#x15b;" horiz-adv-x="464" 
d="M392 408l-46 6q-23 3 -53 5.5t-53 2.5q-53 0 -83 -12t-30 -43q0 -26 23 -38t62 -24l69 -21q39 -12 66 -24t44 -27q37 -33 37 -91q0 -35 -13.5 -63t-38.5 -47.5t-59 -29.5t-74 -10q-50 0 -106 15t-101 41l22 51l43 -11q51 -13 84 -17.5t58 -4.5q103 0 103 76
q0 26 -18 39.5t-64 27.5l-72 22q-76 23 -111 52.5t-35 82.5q0 32 14.5 56t38.5 40q27 18 64 26t76 8q42 0 85.5 -8.5t82.5 -24.5zM149 539l-30 40l187 139q7 5 10.5 4.5t8.5 -7.5l40 -59z" />
    <glyph glyph-name="scircumflex" unicode="&#x15d;" horiz-adv-x="464" 
d="M392 408l-46 6q-23 3 -53 5.5t-53 2.5q-53 0 -83 -12t-30 -43q0 -26 23 -38t62 -24l69 -21q39 -12 66 -24t44 -27q37 -33 37 -91q0 -35 -13.5 -63t-38.5 -47.5t-59 -29.5t-74 -10q-50 0 -106 15t-101 41l22 51l43 -11q51 -13 84 -17.5t58 -4.5q103 0 103 76
q0 26 -18 39.5t-64 27.5l-72 22q-76 23 -111 52.5t-35 82.5q0 32 14.5 56t38.5 40q27 18 64 26t76 8q42 0 85.5 -8.5t82.5 -24.5zM368 541l-128 102h-1l-129 -102l-36 35l126 127q8 8 12 9.5t14 1.5h25q10 0 14 -1.5t12 -9.5l126 -127z" />
    <glyph glyph-name="scaron" unicode="&#x161;" horiz-adv-x="464" 
d="M392 408l-46 6q-23 3 -53 5.5t-53 2.5q-53 0 -83 -12t-30 -43q0 -26 23 -38t62 -24l69 -21q39 -12 66 -24t44 -27q37 -33 37 -91q0 -35 -13.5 -63t-38.5 -47.5t-59 -29.5t-74 -10q-50 0 -106 15t-101 41l22 51l43 -11q51 -13 84 -17.5t58 -4.5q103 0 103 76
q0 26 -18 39.5t-64 27.5l-72 22q-76 23 -111 52.5t-35 82.5q0 32 14.5 56t38.5 40q27 18 64 26t76 8q42 0 85.5 -8.5t82.5 -24.5zM400 685l-126 -127q-8 -8 -12 -9.5t-14 -1.5h-25q-10 0 -14 1.5t-12 9.5l-126 127l36 35l129 -102h1l128 102z" />
    <glyph glyph-name="scedilla" unicode="&#x15f;" horiz-adv-x="464" 
d="M392 408l-46 6q-23 3 -53 5.5t-53 2.5q-53 0 -83 -12t-30 -43q0 -26 23 -38t62 -24l69 -21q39 -12 66 -24t44 -27q37 -33 37 -91q0 -34 -13 -61t-36 -46.5t-55 -30.5t-71 -12q-9 -14 -9 -24q0 -11 17.5 -17t38.5 -14.5t38.5 -23.5t17.5 -45q0 -42 -42.5 -69t-130.5 -27
l-10 50l62 12q23 5 32.5 11.5t9.5 15.5q0 10 -16 16.5t-35.5 14t-35.5 18.5t-16 30q0 13 7.5 27t19.5 28q-42 5 -86 19t-79 34l22 51l43 -11q51 -13 84 -17.5t58 -4.5q103 0 103 76q0 26 -18 39.5t-64 27.5l-72 22q-76 23 -111 52.5t-35 82.5q0 32 14.5 56t38.5 40
q27 18 64 26t76 8q41 0 85 -8.5t83 -24.5z" />
    <glyph glyph-name="scommaaccent" unicode="&#x219;" horiz-adv-x="464" 
d="M392 408l-46 6q-23 3 -53 5.5t-53 2.5q-53 0 -83 -12t-30 -43q0 -26 23 -38t62 -24l69 -21q39 -12 66 -24t44 -27q37 -33 37 -91q0 -35 -13.5 -63t-38.5 -47.5t-59 -29.5t-74 -10q-50 0 -106 15t-101 41l22 51l43 -11q51 -13 84 -17.5t58 -4.5q103 0 103 76
q0 26 -18 39.5t-64 27.5l-72 22q-76 23 -111 52.5t-35 82.5q0 32 14.5 56t38.5 40q27 18 64 26t76 8q42 0 85.5 -8.5t82.5 -24.5zM172 -260l27 202h62q8 0 12 -2t6 -11q1 -5 1.5 -11.5t0.5 -12.5q0 -8 -1.5 -16.5t-5 -19t-9.5 -25t-15 -35.5l-35 -78z" />
    <glyph glyph-name="germandbls" unicode="&#xdf;" horiz-adv-x="640" 
d="M266 95l40 -11q66 -18 112 -18q52 0 79 20t27 53q0 29 -22.5 45.5t-67.5 31.5l-56 19q-61 20 -91 45t-30 65q0 34 22.5 57.5t67.5 56.5l42 31q32 24 46.5 42.5t14.5 39.5q0 32 -29 51.5t-83 19.5q-38 0 -68 -11.5t-50 -31.5t-29 -49t-9 -74v-477h-88v420h-92v50l92 16
q0 52 18 94.5t50.5 73t78.5 47.5t103 17q39 0 74 -10.5t60.5 -29.5t40.5 -46t15 -60q0 -42 -22 -72t-64 -57l-49 -31q-35 -23 -47.5 -33t-12.5 -23t14.5 -23t55.5 -24l53 -18q75 -26 111 -59.5t36 -87.5q0 -32 -12.5 -59.5t-36.5 -48.5t-58 -33t-77 -12q-51 0 -97.5 14.5
t-83.5 38.5z" />
    <glyph glyph-name="tcaron" unicode="&#x165;" horiz-adv-x="402" 
d="M386 46q-32 -23 -74.5 -38.5t-80.5 -15.5q-33 0 -59 10t-44 27q-39 37 -39 111v280h-92v50l92 17v142h88v-141h174v-68h-174v-277q0 -40 17 -57t52 -17q15 0 35.5 4t48.5 12l35 9zM239 544l27 202h62q8 0 12 -2t6 -11q1 -5 1.5 -11.5t0.5 -12.5q0 -8 -1.5 -16.5t-5 -19
t-9.5 -25t-15 -35.5l-35 -78z" />
    <glyph glyph-name="tcommaaccent" unicode="&#x163;" horiz-adv-x="402" 
d="M386 46q-32 -23 -74.5 -38.5t-80.5 -15.5q-33 0 -59 10t-44 27q-39 37 -39 111v280h-92v50l92 17v142h88v-141h174v-68h-174v-277q0 -40 17 -57t52 -17q15 0 35.5 4t48.5 12l35 9zM169 -260l27 202h62q8 0 12 -2t6 -11q1 -5 1.5 -11.5t0.5 -12.5q0 -8 -1.5 -16.5t-5 -19
t-9.5 -25t-15 -35.5l-35 -78z" />
    <glyph glyph-name="uni021B" unicode="&#x21b;" horiz-adv-x="402" 
d="M386 46q-32 -23 -74.5 -38.5t-80.5 -15.5q-33 0 -59 10t-44 27q-39 37 -39 111v280h-92v50l92 17v142h88v-141h174v-68h-174v-277q0 -40 17 -57t52 -17q15 0 35.5 4t48.5 12l35 9zM169 -260l27 202h62q8 0 12 -2t6 -11q1 -5 1.5 -11.5t0.5 -12.5q0 -8 -1.5 -16.5t-5 -19
t-9.5 -25t-15 -35.5l-35 -78z" />
    <glyph glyph-name="tbar" unicode="&#x167;" horiz-adv-x="409" 
d="M391 46q-32 -23 -74.5 -38.5t-80.5 -15.5q-33 0 -59 10t-44 27q-39 37 -39 111v83h-78v45l78 14v138h-92v50l92 17v142h88v-141h174v-68h-174v-137h158v-60h-158v-80q0 -40 17 -57t52 -17q15 0 35.5 4t48.5 12l35 9z" />
    <glyph glyph-name="ugrave" unicode="&#xf9;" horiz-adv-x="550" 
d="M419 0l-15 42l-31 -15q-29 -14 -61 -24.5t-64 -10.5q-44 0 -80 13.5t-61 37.5q-23 23 -35.5 55t-12.5 82v308h88v-304q0 -34 6 -52t19 -31q14 -14 38 -20t53 -6h1q32 0 65.5 8t56.5 19q6 3 7.5 6.5t1.5 9.5v370h88v-488h-64zM121 656l40 59q5 7 8.5 7.5t10.5 -4.5
l187 -139l-30 -40z" />
    <glyph glyph-name="uacute" unicode="&#xfa;" horiz-adv-x="550" 
d="M419 0l-15 42l-31 -15q-29 -14 -61 -24.5t-64 -10.5q-44 0 -80 13.5t-61 37.5q-23 23 -35.5 55t-12.5 82v308h88v-304q0 -34 6 -52t19 -31q14 -14 38 -20t53 -6h1q32 0 65.5 8t56.5 19q6 3 7.5 6.5t1.5 9.5v370h88v-488h-64zM221 539l-30 40l187 139q7 5 10.5 4.5
t8.5 -7.5l40 -59z" />
    <glyph glyph-name="ucircumflex" unicode="&#xfb;" horiz-adv-x="550" 
d="M419 0l-15 42l-31 -15q-29 -14 -61 -24.5t-64 -10.5q-44 0 -80 13.5t-61 37.5q-23 23 -35.5 55t-12.5 82v308h88v-304q0 -34 6 -52t19 -31q14 -14 38 -20t53 -6h1q32 0 65.5 8t56.5 19q6 3 7.5 6.5t1.5 9.5v370h88v-488h-64zM404 541l-128 102h-1l-129 -102l-36 35
l126 127q8 8 12 9.5t14 1.5h25q10 0 14 -1.5t12 -9.5l126 -127z" />
    <glyph glyph-name="utilde" unicode="&#x169;" horiz-adv-x="550" 
d="M419 0l-15 42l-31 -15q-29 -14 -61 -24.5t-64 -10.5q-44 0 -80 13.5t-61 37.5q-23 23 -35.5 55t-12.5 82v308h88v-304q0 -34 6 -52t19 -31q14 -14 38 -20t53 -6h1q32 0 65.5 8t56.5 19q6 3 7.5 6.5t1.5 9.5v370h88v-488h-64zM443 665q-11 -44 -37 -72t-66 -28
q-18 0 -35.5 7t-34 15t-31 15t-27.5 7q-19 0 -32.5 -10.5t-27.5 -35.5l-47 14q11 44 37 72t66 28q18 0 35.5 -7t34 -15t31 -15t27.5 -7q19 0 32.5 10.5t27.5 35.5z" />
    <glyph glyph-name="udieresis" unicode="&#xfc;" horiz-adv-x="550" 
d="M419 0l-15 42l-31 -15q-29 -14 -61 -24.5t-64 -10.5q-44 0 -80 13.5t-61 37.5q-23 23 -35.5 55t-12.5 82v308h88v-304q0 -34 6 -52t19 -31q14 -14 38 -20t53 -6h1q32 0 65.5 8t56.5 19q6 3 7.5 6.5t1.5 9.5v370h88v-488h-64zM229 571h-98v96h80q11 0 14.5 -3t3.5 -12v-81
zM418 571h-98v96h80q11 0 14.5 -3t3.5 -12v-81z" />
    <glyph glyph-name="umacron" unicode="&#x16b;" horiz-adv-x="550" 
d="M419 0l-15 42l-31 -15q-29 -14 -61 -24.5t-64 -10.5q-44 0 -80 13.5t-61 37.5q-23 23 -35.5 55t-12.5 82v308h88v-304q0 -34 6 -52t19 -31q14 -14 38 -20t53 -6h1q32 0 65.5 8t56.5 19q6 3 7.5 6.5t1.5 9.5v370h88v-488h-64zM124 584v67h300v-67h-300z" />
    <glyph glyph-name="ubreve" unicode="&#x16d;" horiz-adv-x="550" 
d="M419 0l-15 42l-31 -15q-29 -14 -61 -24.5t-64 -10.5q-44 0 -80 13.5t-61 37.5q-23 23 -35.5 55t-12.5 82v308h88v-304q0 -34 6 -52t19 -31q14 -14 38 -20t53 -6h1q32 0 65.5 8t56.5 19q6 3 7.5 6.5t1.5 9.5v370h88v-488h-64zM275 553q-62 0 -103.5 37.5t-52.5 100.5l54 9
q14 -36 39.5 -57t62.5 -21t62 21t39 57l54 -9q-11 -63 -52 -100.5t-103 -37.5z" />
    <glyph glyph-name="uring" unicode="&#x16f;" horiz-adv-x="550" 
d="M419 0l-15 42l-31 -15q-29 -14 -61 -24.5t-64 -10.5q-44 0 -80 13.5t-61 37.5q-23 23 -35.5 55t-12.5 82v308h88v-304q0 -34 6 -52t19 -31q14 -14 38 -20t53 -6h1q32 0 65.5 8t56.5 19q6 3 7.5 6.5t1.5 9.5v370h88v-488h-64zM389 656q0 -26 -9.5 -46.5t-25 -34.5
t-36.5 -22t-44 -8t-44 8t-37 22t-25 34.5t-9 46.5q0 25 9 46t25 35t37 22t44 8t44 -8t36.5 -22t25 -35t9.5 -46zM330 656q0 28 -15 41.5t-41 13.5t-41 -13.5t-15 -41.5t15 -41.5t41 -13.5t41 13.5t15 41.5z" />
    <glyph glyph-name="uhungarumlaut" unicode="&#x171;" horiz-adv-x="550" 
d="M419 0l-15 42l-31 -15q-29 -14 -61 -24.5t-64 -10.5q-44 0 -80 13.5t-61 37.5q-23 23 -35.5 55t-12.5 82v308h88v-304q0 -34 6 -52t19 -31q14 -14 38 -20t53 -6h1q32 0 65.5 8t56.5 19q6 3 7.5 6.5t1.5 9.5v370h88v-488h-64zM322 706l-167 -144l-37 34l137 158q9 10 18 1
zM500 706l-167 -144l-37 34l137 158q9 10 18 1z" />
    <glyph glyph-name="uogonek" unicode="&#x173;" horiz-adv-x="546" 
d="M373 27q-29 -14 -61 -24.5t-64 -10.5q-44 0 -80 13.5t-61 37.5q-23 23 -35.5 55t-12.5 82v308h88v-304q0 -34 6 -52t19 -31q14 -14 38 -20t53 -6h1q32 0 65.5 8t56.5 19q6 3 7.5 6.5t1.5 9.5v370h88v-488q-15 -6 -29 -16t-25.5 -22.5t-18.5 -27t-7 -30.5q0 -21 13 -33
t40 -12q8 0 19.5 1t22.5 3l23 4l15 -45q-21 -12 -46.5 -18.5t-48.5 -6.5q-51 0 -83.5 26t-32.5 68q0 33 18.5 58.5t53.5 50.5l17 12l-10 30z" />
    <glyph glyph-name="wgrave" unicode="&#x1e81;" horiz-adv-x="800" 
d="M706 478q2 6 5 8t11 2h71l-169 -488h-81q-14 0 -17 10l-69 207q-18 54 -33 100.5t-24 78.5q-8 -34 -21.5 -81t-27.5 -95l-66 -220h-82q-8 0 -11.5 2.5t-5.5 7.5l-179 478h79q8 0 10.5 -2t4.5 -8l79 -219q20 -56 34 -97.5t23 -70.5q6 25 17.5 68t27.5 94l73 235h80
q7 0 10 -1.5t5 -7.5l76 -220q18 -53 32.5 -97t22.5 -71q6 25 20 70.5t31 96.5zM277 656l40 59q5 7 8.5 7.5t10.5 -4.5l187 -139l-30 -40z" />
    <glyph glyph-name="wacute" unicode="&#x1e83;" horiz-adv-x="800" 
d="M706 478q2 6 5 8t11 2h71l-169 -488h-81q-14 0 -17 10l-69 207q-18 54 -33 100.5t-24 78.5q-8 -34 -21.5 -81t-27.5 -95l-66 -220h-82q-8 0 -11.5 2.5t-5.5 7.5l-179 478h79q8 0 10.5 -2t4.5 -8l79 -219q20 -56 34 -97.5t23 -70.5q6 25 17.5 68t27.5 94l73 235h80
q7 0 10 -1.5t5 -7.5l76 -220q18 -53 32.5 -97t22.5 -71q6 25 20 70.5t31 96.5zM317 539l-30 40l187 139q7 5 10.5 4.5t8.5 -7.5l40 -59z" />
    <glyph glyph-name="wcircumflex" unicode="&#x175;" horiz-adv-x="800" 
d="M706 478q2 6 5 8t11 2h71l-169 -488h-81q-14 0 -17 10l-69 207q-18 54 -33 100.5t-24 78.5q-8 -34 -21.5 -81t-27.5 -95l-66 -220h-82q-8 0 -11.5 2.5t-5.5 7.5l-179 478h79q8 0 10.5 -2t4.5 -8l79 -219q20 -56 34 -97.5t23 -70.5q6 25 17.5 68t27.5 94l73 235h80
q7 0 10 -1.5t5 -7.5l76 -220q18 -53 32.5 -97t22.5 -71q6 25 20 70.5t31 96.5zM529 541l-128 102h-1l-129 -102l-36 35l126 127q8 8 12 9.5t14 1.5h25q10 0 14 -1.5t12 -9.5l126 -127z" />
    <glyph glyph-name="wdieresis" unicode="&#x1e85;" horiz-adv-x="800" 
d="M706 478q2 6 5 8t11 2h71l-169 -488h-81q-14 0 -17 10l-69 207q-18 54 -33 100.5t-24 78.5q-8 -34 -21.5 -81t-27.5 -95l-66 -220h-82q-8 0 -11.5 2.5t-5.5 7.5l-179 478h79q8 0 10.5 -2t4.5 -8l79 -219q20 -56 34 -97.5t23 -70.5q6 25 17.5 68t27.5 94l73 235h80
q7 0 10 -1.5t5 -7.5l76 -220q18 -53 32.5 -97t22.5 -71q6 25 20 70.5t31 96.5zM354 571h-98v96h80q11 0 14.5 -3t3.5 -12v-81zM543 571h-98v96h80q11 0 14.5 -3t3.5 -12v-81z" />
    <glyph glyph-name="ygrave" unicode="&#x1ef3;" horiz-adv-x="514" 
d="M85 488q7 0 9.5 -1.5t5.5 -8.5l96 -223q9 -21 18.5 -45t18.5 -46.5t16.5 -43t12.5 -33.5h1q8 25 26 71t39 97l90 223q3 7 5.5 8.5t10.5 1.5h76l-300 -719l-81 18l91 208l-215 493h80zM101 656l40 59q5 7 8.5 7.5t10.5 -4.5l187 -139l-30 -40z" />
    <glyph glyph-name="yacute" unicode="&#xfd;" horiz-adv-x="514" 
d="M85 488q7 0 9.5 -1.5t5.5 -8.5l96 -223q9 -21 18.5 -45t18.5 -46.5t16.5 -43t12.5 -33.5h1q8 25 26 71t39 97l90 223q3 7 5.5 8.5t10.5 1.5h76l-300 -719l-81 18l91 208l-215 493h80zM198 539l-30 40l187 139q7 5 10.5 4.5t8.5 -7.5l40 -59z" />
    <glyph glyph-name="ycircumflex" unicode="&#x177;" horiz-adv-x="514" 
d="M85 488q7 0 9.5 -1.5t5.5 -8.5l96 -223q9 -21 18.5 -45t18.5 -46.5t16.5 -43t12.5 -33.5h1q8 25 26 71t39 97l90 223q3 7 5.5 8.5t10.5 1.5h76l-300 -719l-81 18l91 208l-215 493h80zM391 541l-128 102h-1l-129 -102l-36 35l126 127q8 8 12 9.5t14 1.5h25q10 0 14 -1.5
t12 -9.5l126 -127z" />
    <glyph glyph-name="ydieresis" unicode="&#xff;" horiz-adv-x="514" 
d="M85 488q7 0 9.5 -1.5t5.5 -8.5l96 -223q9 -21 18.5 -45t18.5 -46.5t16.5 -43t12.5 -33.5h1q8 25 26 71t39 97l90 223q3 7 5.5 8.5t10.5 1.5h76l-300 -719l-81 18l91 208l-215 493h80zM215 571h-98v96h80q11 0 14.5 -3t3.5 -12v-81zM404 571h-98v96h80q11 0 14.5 -3
t3.5 -12v-81z" />
    <glyph glyph-name="zacute" unicode="&#x17a;" horiz-adv-x="473" 
d="M52 420v68h384v-36q0 -9 -2 -13.5t-7 -12.5l-171 -228q-29 -39 -55 -71.5l-46 -57.5h285v-69h-396v36q0 9 2 13.5t7 12.5l173 228q12 15 25.5 33t27.5 35.5t27 33.5t23 28h-277zM166 539l-30 40l187 139q7 5 10.5 4.5t8.5 -7.5l40 -59z" />
    <glyph glyph-name="zcaron" unicode="&#x17e;" horiz-adv-x="473" 
d="M52 420v68h384v-36q0 -9 -2 -13.5t-7 -12.5l-171 -228q-29 -39 -55 -71.5l-46 -57.5h285v-69h-396v36q0 9 2 13.5t7 12.5l173 228q12 15 25.5 33t27.5 35.5t27 33.5t23 28h-277zM419 685l-126 -127q-8 -8 -12 -9.5t-14 -1.5h-25q-10 0 -14 1.5t-12 9.5l-126 127l36 35
l129 -102h1l128 102z" />
    <glyph glyph-name="zdotaccent" unicode="&#x17c;" horiz-adv-x="473" 
d="M52 420v68h384v-36q0 -9 -2 -13.5t-7 -12.5l-171 -228q-29 -39 -55 -71.5l-46 -57.5h285v-69h-396v36q0 9 2 13.5t7 12.5l173 228q12 15 25.5 33t27.5 35.5t27 33.5t23 28h-277zM304 559h-106v101h88q11 0 14.5 -4t3.5 -13v-84z" />
    <glyph glyph-name="afii10017" unicode="&#x410;" horiz-adv-x="675" 
d="M500 156h-332l-56 -146q-2 -6 -5 -8t-11 -2h-82l266 663h91q8 0 11 -2t6 -9l273 -652h-85q-12 0 -16 10zM196 230h274l-55 138q-33 83 -53.5 134.5t-30.5 79.5h-1q-9 -26 -29 -79.5t-52 -134.5z" />
    <glyph glyph-name="afii10018" unicode="&#x411;" horiz-adv-x="629" 
d="M167 586v-204h181q113 0 172 -47.5t59 -143.5q0 -49 -16 -85t-46.5 -59.5t-74 -35t-98.5 -11.5h-270v663h432v-77h-339zM167 78h174q74 0 109.5 26t35.5 88q0 61 -34 86.5t-106 25.5h-179v-226z" />
    <glyph glyph-name="afii10019" unicode="&#x412;" horiz-adv-x="620" 
d="M74 663h249q109 0 160 -41q51 -40 51 -120q0 -43 -18 -81.5t-49 -70.5q48 -17 79.5 -56t31.5 -103q0 -85 -53 -135q-29 -27 -72 -41.5t-103 -14.5h-276v663zM167 77h178q81 0 112 34q26 28 26 81t-23 77q-14 15 -39 22.5t-65 7.5h-189v-222zM369 373q16 0 24.5 4t16.5 13
q14 17 23.5 44.5t9.5 57.5q0 47 -21 68q-25 26 -95 26h-160v-213h202z" />
    <glyph glyph-name="afii10020" unicode="&#x413;" horiz-adv-x="532" 
d="M167 586v-586h-93v663h428v-77h-335z" />
    <glyph glyph-name="afii10021" unicode="&#x414;" horiz-adv-x="742" 
d="M720 77v-191q0 -16 -17 -16h-58l-13 130h-522l-13 -130h-58q-17 0 -17 16v191h68q11 0 15 3.5t6 12.5l135 550q4 12 9.5 16t17.5 4h361v-586h86zM200 77h341v506h-217z" />
    <glyph glyph-name="afii10022" unicode="&#x415;" horiz-adv-x="571" 
d="M510 663v-77h-343v-205h307v-76h-307v-228h354v-77h-447v663h436z" />
    <glyph glyph-name="afii10024" unicode="&#x416;" horiz-adv-x="1007" 
d="M36 0l210 349q-12 11 -22 23t-21 28l-158 229l71 45l162 -239q11 -16 21 -26.5t22 -16.5t27 -8.5t36 -2.5h73v282h93v-282h73q21 0 36 2.5t27 8.5t22 16.5t21 26.5l162 239l71 -45l-158 -229q-11 -16 -21 -28t-22 -23l210 -349h-91q-10 0 -14.5 2.5t-8.5 8.5l-174 297
q-23 -4 -54 -4h-79v-304h-93v304h-79q-31 0 -54 4l-174 -297q-4 -6 -8.5 -8.5t-14.5 -2.5h-91z" />
    <glyph glyph-name="afii10025" unicode="&#x417;" horiz-adv-x="602" 
d="M300 673q51 0 92.5 -13t71.5 -37.5t46.5 -59t16.5 -76.5q0 -41 -16 -76t-49 -63q94 -45 94 -147q0 -47 -19 -85.5t-53 -66.5t-81.5 -43.5t-103.5 -15.5q-70 0 -142 23.5t-129 67.5l30 58l63 -26q45 -18 88 -27t84 -9q78 0 122.5 32.5t44.5 92.5q0 25 -7.5 42.5
t-20.5 29.5q-29 26 -92 26h-157q-15 0 -15 14v63h193q21 0 30.5 4t17.5 15q13 17 20 39t7 44q0 49 -36 77t-108 28q-34 0 -69.5 -6.5t-71.5 -17.5l-67 -21l-27 67q61 33 123.5 50t119.5 17z" />
    <glyph glyph-name="afii10026" unicode="&#x418;" horiz-adv-x="729" 
d="M566 0v523q-8 -11 -22 -29t-30.5 -39t-34.5 -43.5t-34 -43.5l-286 -358q-6 -7 -10 -8.5t-12 -1.5h-63v663h89v-522q9 12 22.5 29.5t29.5 38.5t33.5 43t34.5 43l286 358q6 7 10 8.5t12 1.5h64v-663h-89z" />
    <glyph glyph-name="afii10027" unicode="&#x419;" horiz-adv-x="729" 
d="M566 0v523q-8 -11 -22 -29t-30.5 -39t-34.5 -43.5t-34 -43.5l-286 -358q-6 -7 -10 -8.5t-12 -1.5h-63v663h89v-522q9 12 22.5 29.5t29.5 38.5t33.5 43t34.5 43l286 358q6 7 10 8.5t12 1.5h64v-663h-89zM365 733q-62 0 -103.5 37.5t-52.5 100.5l54 9q14 -36 39.5 -57
t62.5 -21t62 21t39 57l54 -9q-11 -63 -52 -100.5t-103 -37.5z" />
    <glyph glyph-name="afii10028" unicode="&#x41a;" horiz-adv-x="640" 
d="M167 305v-305h-93v663h93v-282h60q23 0 39.5 2.5t30 8.5t25.5 16.5t25 26.5l193 237l63 -52l-196 -236q-9 -11 -17.5 -20t-18.5 -17l239 -347h-93q-10 0 -14 2t-9 9l-203 299q-13 -2 -26.5 -3.5t-29.5 -1.5h-68z" />
    <glyph glyph-name="afii10029" unicode="&#x41b;" horiz-adv-x="706" 
d="M539 0v586h-224l-120 -504q-9 -39 -32 -63.5t-71 -24.5q-21 0 -41.5 4.5t-34.5 12.5v50l62 10q14 2 19.5 8t8.5 19l130 545q3 13 8 16.5t19 3.5h369v-663h-93z" />
    <glyph glyph-name="afii10030" unicode="&#x41c;" horiz-adv-x="833" 
d="M759 0h-90v521h-1q-6 -10 -17 -25t-23.5 -32t-25.5 -34t-25 -32l-129 -163h-52q-8 0 -11.5 2.5t-8.5 7.5l-122 153q-11 14 -24 31t-25 33.5t-22.5 31.5t-17.5 27h-1v-521h-90v663h69q8 0 12 -1.5t10 -9.5l254 -325h1l252 325q5 7 9.5 9t12.5 2h65v-663z" />
    <glyph glyph-name="afii10031" unicode="&#x41d;" horiz-adv-x="700" 
d="M533 305h-366v-305h-93v663h93v-279h366v279h93v-663h-93v305z" />
    <glyph glyph-name="afii10032" unicode="&#x41e;" horiz-adv-x="726" 
d="M689 331q0 -76 -26 -138.5t-71 -107.5t-104 -70t-125 -25t-125 25t-104 70t-71 107.5t-26 138.5t26 139t71 108t104 70t125 25t125 -25t104 -70t71 -108t26 -139zM593 331q0 61 -16.5 108t-47 79.5t-73 49t-93.5 16.5t-93.5 -16.5t-73 -49t-47 -79.5t-16.5 -108
t16.5 -108t47 -79t73 -48.5t93.5 -16.5t93.5 16.5t73 48.5t47 79t16.5 108z" />
    <glyph glyph-name="afii10033" unicode="&#x41f;" horiz-adv-x="691" 
d="M524 0v586h-357v-586h-93v663h543v-663h-93z" />
    <glyph glyph-name="afii10034" unicode="&#x420;" horiz-adv-x="613" 
d="M167 0h-93v663h242q65 0 115 -13.5t85 -47.5q26 -25 40.5 -63.5t14.5 -87.5q0 -54 -16.5 -99t-48.5 -76q-25 -24 -55.5 -36t-83.5 -12h-200v-228zM167 304h220q21 0 33 5t21 16q17 20 26.5 54t9.5 71q0 65 -31 98q-20 21 -53.5 29.5t-78.5 8.5h-147v-282z" />
    <glyph glyph-name="afii10035" unicode="&#x421;" horiz-adv-x="672" 
d="M639 119q-54 -59 -130 -94t-157 -35q-69 0 -127 25t-99.5 70t-65 108t-23.5 139q0 70 23 132t65 108.5t100.5 73.5t129.5 27q95 0 165 -50.5t104 -133.5l-62 -37l-63 63q-35 35 -69 52.5t-81 17.5q-51 0 -91.5 -18.5t-68 -52.5t-42 -80.5t-14.5 -102.5
q0 -120 59.5 -186.5t171.5 -66.5q35 0 73.5 11.5t78.5 31.5l87 45z" />
    <glyph glyph-name="afii10036" unicode="&#x422;" horiz-adv-x="585" 
d="M246 586h-225v77h543v-77h-225v-586h-93v586z" />
    <glyph glyph-name="afii10037" unicode="&#x423;" horiz-adv-x="620" 
d="M324 100q-31 -59 -67 -84.5t-88 -25.5q-29 0 -54.5 5.5t-43.5 15.5l5 51l63 7q23 2 39.5 6t29 12t23 21t21.5 34l34 65l-260 456h91q7 0 10 -1.5t7 -7.5l141 -255q16 -29 28.5 -54t28.5 -59q15 34 26.5 58.5t26.5 54.5l130 254q3 6 6.5 8t11.5 2h85z" />
    <glyph glyph-name="afii10038" unicode="&#x424;" horiz-adv-x="768" 
d="M431 611q67 -4 122 -24.5t94.5 -55.5t61.5 -83t22 -107t-22 -107.5t-61.5 -83.5t-94.5 -55.5t-122 -24.5v-80h-93v80q-67 4 -122.5 25t-95 56t-61.5 83t-22 107t22 107t61.5 83t95 55.5t122.5 24.5v67h93v-67zM338 531q-103 -7 -155 -56t-52 -134t52 -134.5t155 -56.5
v381zM431 150q103 8 154.5 57t51.5 134t-52.5 134t-153.5 56v-381z" />
    <glyph glyph-name="afii10039" unicode="&#x425;" horiz-adv-x="646" 
d="M8 0l257 346l-243 317h90q9 0 12.5 -1.5t8.5 -7.5l187 -243l179 243q5 6 8.5 7.5t12.5 1.5h84l-232 -315l266 -348h-89q-8 0 -11.5 2t-8.5 7l-211 275l-202 -275q-4 -5 -8 -7t-14 -2h-86z" />
    <glyph glyph-name="afii10040" unicode="&#x426;" horiz-adv-x="725" 
d="M703 77v-191q0 -16 -17 -16h-53l-18 130h-541v663h93v-586h357v586h93v-586h86z" />
    <glyph glyph-name="afii10041" unicode="&#x427;" horiz-adv-x="618" 
d="M451 0v262l-37 -10q-35 -10 -67 -15.5t-67 -5.5q-107 0 -166 56q-26 25 -41 62.5t-15 97.5v216h93v-215q0 -38 8 -61.5t25 -40.5t45 -26t71 -9q24 0 51 3t60 9l27 5q13 3 13 15v320h93v-663h-93z" />
    <glyph glyph-name="afii10042" unicode="&#x428;" horiz-adv-x="999" 
d="M74 0v663h93v-586h286v586h93v-586h286v586h93v-663h-851z" />
    <glyph glyph-name="afii10043" unicode="&#x429;" horiz-adv-x="1034" 
d="M1012 78v-192q0 -16 -18 -16h-52l-18 130h-850v663h93v-585h286v585h93v-585h286v585h93v-585h87z" />
    <glyph glyph-name="afii10044" unicode="&#x42a;" horiz-adv-x="704" 
d="M439 382q113 0 172 -47.5t59 -143.5q0 -49 -16 -85t-46.5 -59.5t-74 -35t-98.5 -11.5h-270v585h-153v78h246v-281h181zM432 78q74 0 109.5 26t35.5 88q0 61 -34 86.5t-106 25.5h-179v-226h174z" />
    <glyph glyph-name="afii10045" unicode="&#x42b;" horiz-adv-x="843" 
d="M676 0v663h93v-663h-93zM348 382q113 0 172 -47.5t59 -143.5q0 -49 -16 -85t-46.5 -59.5t-74 -35t-98.5 -11.5h-270v663h93v-281h181zM341 78q74 0 109.5 26t35.5 88q0 61 -34 86.5t-106 25.5h-179v-226h174z" />
    <glyph glyph-name="afii10046" unicode="&#x42c;" horiz-adv-x="613" 
d="M348 382q113 0 172 -47.5t59 -143.5q0 -49 -16 -85t-46.5 -59.5t-74 -35t-98.5 -11.5h-270v663h93v-281h181zM341 78q74 0 109.5 26t35.5 88q0 61 -34 86.5t-106 25.5h-179v-226h174z" />
    <glyph glyph-name="afii10047" unicode="&#x42d;" horiz-adv-x="658" 
d="M308 673q67 0 124 -23.5t99 -68t66 -107.5t24 -141q0 -75 -22.5 -138t-64 -108.5t-100 -71t-130.5 -25.5q-82 0 -155.5 32.5t-128.5 92.5l37 49l70 -37q42 -22 84.5 -35.5t90.5 -13.5q50 0 90 16t68 45.5t44.5 70.5t19.5 92h-317v79h315q-11 92 -65 147.5t-149 55.5
q-45 0 -87.5 -14t-87.5 -43l-51 -34l-44 50q51 64 121 97t149 33z" />
    <glyph glyph-name="afii10048" unicode="&#x42e;" horiz-adv-x="954" 
d="M609 673q63 0 119 -25t98 -70t66.5 -108t24.5 -139t-24.5 -138.5t-66.5 -107.5t-98 -70t-119 -25q-60 0 -113.5 22.5t-95 63.5t-67.5 98t-31 127h-135v-301h-93v663h93v-286h136q7 66 34 120.5t68 93.5t93.5 60.5t110.5 21.5zM609 79q48 0 87 16.5t66.5 48.5t43 79
t15.5 108t-15.5 108t-43 79.5t-66.5 49t-87 16.5t-87 -16.5t-66.5 -49t-43 -79.5t-15.5 -108t15.5 -108t43 -79t66.5 -48.5t87 -16.5z" />
    <glyph glyph-name="afii10049" unicode="&#x42f;" horiz-adv-x="642" 
d="M140 11q-4 -6 -8 -8.5t-13 -2.5h-87l153 258q-48 29 -81 80t-33 120q0 45 14.5 81t39.5 62q33 33 81.5 47.5t121.5 14.5h240v-663h-93v243h-188q-8 0 -11.5 -1.5t-7.5 -8.5zM475 319v267h-153q-46 0 -75.5 -8.5t-49.5 -28.5q-15 -16 -23.5 -39.5t-8.5 -55.5
q0 -29 10.5 -62t27.5 -52q9 -10 21 -15.5t32 -5.5h219z" />
    <glyph glyph-name="afii10052" unicode="&#x403;" horiz-adv-x="532" 
d="M167 586v-586h-93v663h428v-77h-335zM216 719l-30 40l187 139q7 5 10.5 4.5t8.5 -7.5l40 -59z" />
    <glyph glyph-name="afii10050" unicode="&#x490;" horiz-adv-x="532" 
d="M485 790q17 0 17 -16v-188h-335v-586h-93v663h342l17 127h52z" />
    <glyph glyph-name="afii10051" unicode="&#x402;" horiz-adv-x="683" 
d="M240 390l37 9q33 8 60.5 13.5t58.5 5.5q52 0 95.5 -16.5t75 -49t49 -79.5t17.5 -107q0 -220 -238 -273l-22 53l49 26q65 35 91.5 81t26.5 110q0 78 -37.5 125t-123.5 47q-29 0 -62.5 -5t-62.5 -10q-14 -3 -14 -17v-303h-93v586h-147v77h536v-77h-296v-196z" />
    <glyph glyph-name="afii10053" unicode="&#x404;" horiz-adv-x="660" 
d="M354 673q75 0 143 -31.5t123 -98.5l-44 -50l-51 34q-42 29 -86.5 43t-89.5 14q-95 0 -148 -54.5t-65 -148.5h315v-79h-317q3 -51 19.5 -92.5t45 -70.5t68.5 -45t90 -16q49 0 91.5 14t84.5 37l70 37l37 -48q-55 -60 -128 -94t-158 -34q-72 0 -130.5 25.5t-100 71t-64 108
t-22.5 136.5q0 76 23.5 139t65.5 108t100.5 70t127.5 25z" />
    <glyph glyph-name="afii10054" unicode="&#x405;" horiz-adv-x="569" 
d="M133 96q45 -11 82.5 -17.5t71.5 -6.5q72 0 111 30t39 85q0 22 -6 38t-20.5 29.5t-38 25t-57.5 23.5l-77 27q-43 15 -77 31.5t-57 37.5t-35.5 47.5t-12.5 61.5q0 40 17.5 71t49 52t74.5 31.5t93 10.5q48 0 102 -10.5t102 -30.5l-15 -59l-60 8q-34 5 -68 7.5t-60 2.5
q-72 0 -110.5 -18t-38.5 -62q0 -18 6.5 -31.5t21 -25t38 -22.5t57.5 -23l74 -26q45 -16 79.5 -33t58 -39.5t36 -52.5t12.5 -70q0 -45 -17 -81.5t-48 -62.5t-75 -40t-99 -14q-31 0 -63.5 5t-64 14t-60.5 21t-53 26l23 56z" />
    <glyph glyph-name="uni0400" unicode="&#x400;" horiz-adv-x="571" 
d="M510 663v-77h-343v-205h307v-76h-307v-228h354v-77h-447v663h436zM175 836l40 59q5 7 8.5 7.5t10.5 -4.5l187 -139l-30 -40z" />
    <glyph glyph-name="afii10023" unicode="&#x401;" horiz-adv-x="571" 
d="M510 663v-77h-343v-205h307v-76h-307v-228h354v-77h-447v663h436zM250 751h-98v96h80q11 0 14.5 -3t3.5 -12v-81zM439 751h-98v96h80q11 0 14.5 -3t3.5 -12v-81z" />
    <glyph glyph-name="afii10055" unicode="&#x406;" horiz-adv-x="249" 
d="M78 663h93v-663h-93v663z" />
    <glyph glyph-name="afii10056" unicode="&#x407;" horiz-adv-x="249" 
d="M78 663h93v-663h-93v663zM79 751h-98v96h80q11 0 14.5 -3t3.5 -12v-81zM268 751h-98v96h80q11 0 14.5 -3t3.5 -12v-81z" />
    <glyph glyph-name="afii10057" unicode="&#x408;" horiz-adv-x="492" 
d="M43 102l54 -13q72 -18 122 -18q59 0 85 29q14 15 19 38t5 57v468h93v-461q0 -57 -13 -95t-39 -65q-25 -25 -60.5 -38.5t-82.5 -13.5q-52 0 -105.5 15.5t-97.5 41.5z" />
    <glyph glyph-name="uni040D" unicode="&#x40d;" horiz-adv-x="729" 
d="M566 0v523q-8 -11 -22 -29t-30.5 -39t-34.5 -43.5t-34 -43.5l-286 -358q-6 -7 -10 -8.5t-12 -1.5h-63v663h89v-522q9 12 22.5 29.5t29.5 38.5t33.5 43t34.5 43l286 358q6 7 10 8.5t12 1.5h64v-663h-89zM241 836l40 59q5 7 8.5 7.5t10.5 -4.5l187 -139l-30 -40z" />
    <glyph glyph-name="afii10061" unicode="&#x40c;" horiz-adv-x="640" 
d="M167 305v-305h-93v663h93v-282h60q23 0 39.5 2.5t30 8.5t25.5 16.5t25 26.5l193 237l63 -52l-196 -236q-9 -11 -17.5 -20t-18.5 -17l239 -347h-93q-10 0 -14 2t-9 9l-203 299q-13 -2 -26.5 -3.5t-29.5 -1.5h-68zM267 719l-30 40l187 139q7 5 10.5 4.5t8.5 -7.5l40 -59z
" />
    <glyph glyph-name="afii10058" unicode="&#x409;" horiz-adv-x="1078" 
d="M813 382q113 0 172 -47.5t59 -143.5q0 -49 -16 -85t-46.5 -59.5t-74 -35t-98.5 -11.5h-270v586h-224l-120 -504q-9 -39 -32 -63.5t-71 -24.5q-21 0 -41.5 4.5t-34.5 12.5v50l62 10q14 2 19.5 8t8.5 19l130 545q3 13 8 16.5t19 3.5h369v-281h181zM806 78q74 0 109.5 26
t35.5 88q0 61 -34 86.5t-106 25.5h-179v-226h174z" />
    <glyph glyph-name="afii10059" unicode="&#x40a;" horiz-adv-x="1072" 
d="M807 384q113 0 172 -48t59 -145q0 -49 -16 -85t-46.5 -59.5t-74 -35t-98.5 -11.5h-270v305h-366v-305h-93v663h93v-279h366v279h93v-279h181zM800 78q74 0 109.5 26t35.5 88t-34 87.5t-106 25.5h-179v-227h174z" />
    <glyph glyph-name="afii10060" unicode="&#x40b;" horiz-adv-x="689" 
d="M577 359q56 -53 56 -155v-204h-93v193q0 34 -7 60.5t-27 44.5q-17 17 -46 27t-70 10q-35 0 -72 -5t-63 -10q-9 -2 -12 -5t-3 -11v-304h-93v586h-147v77h536v-77h-296v-198l40 9q35 8 66 13t60 5q113 0 171 -56z" />
    <glyph glyph-name="afii10062" unicode="&#x40e;" horiz-adv-x="620" 
d="M324 100q-31 -59 -67 -84.5t-88 -25.5q-29 0 -54.5 5.5t-43.5 15.5l5 51l63 7q23 2 39.5 6t29 12t23 21t21.5 34l34 65l-260 456h91q7 0 10 -1.5t7 -7.5l141 -255q16 -29 28.5 -54t28.5 -59q15 34 26.5 58.5t26.5 54.5l130 254q3 6 6.5 8t11.5 2h85zM333 733
q-62 0 -103.5 37.5t-52.5 100.5l54 9q14 -36 39.5 -57t62.5 -21t62 21t39 57l54 -9q-11 -63 -52 -100.5t-103 -37.5z" />
    <glyph glyph-name="afii10145" unicode="&#x40f;" horiz-adv-x="695" 
d="M397 0v-137q0 -16 -17 -16h-53l-24 153h-229v663h93v-586h361v586h93v-663h-224z" />
    <glyph glyph-name="uni0492" unicode="&#x492;" horiz-adv-x="585" 
d="M220 352h181v-75h-181v-277h-93v277h-117v75h117v311h428v-77h-335v-234z" />
    <glyph glyph-name="uni049A" unicode="&#x49a;" horiz-adv-x="667" 
d="M631 -114q0 -16 -17 -16h-53l-18 130h-26q-10 0 -14 2t-9 9l-203 299q-12 -2 -26 -3.5t-30 -1.5h-68v-305h-93v663h93v-282h60q23 0 39.5 2.5t30 8.5t25.5 16.5t25 26.5l193 237l63 -52l-196 -236q-9 -11 -17.5 -20t-18.5 -17l185 -269h75v-192z" />
    <glyph glyph-name="uni04A2" unicode="&#x4a2;" horiz-adv-x="730" 
d="M708 78v-192q0 -16 -17 -16h-53l-18 130h-88v304h-365v-304h-93v663h93v-279h365v279h94v-585h82z" />
    <glyph glyph-name="uni04AE" unicode="&#x4ae;" horiz-adv-x="621" 
d="M358 0h-93v217l-263 446h90q6 0 9 -1.5t7 -7.5l104 -181q35 -61 60.5 -107.5t39.5 -75.5h2q14 29 39.5 76t59.5 107l103 181q5 9 17 9h86l-261 -446v-217z" />
    <glyph glyph-name="uni04B0" unicode="&#x4b0;" horiz-adv-x="641" 
d="M368 211h128v-72h-128v-139h-93v139h-127v72h127v16l-263 436h90q6 0 9 -1.5t7 -7.5l105 -175q18 -30 31 -52.5t24.5 -41.5t21.5 -36.5t21 -37.5h2q11 19 21 36.5t21 37t24.5 42l31.5 52.5l105 175q5 9 17 9h86l-261 -436v-16z" />
    <glyph glyph-name="uni04BA" unicode="&#x4ba;" horiz-adv-x="620" 
d="M207 414q35 8 66 13t60 5q113 0 171 -56q56 -53 56 -155v-221h-93v210q0 34 -7 60.5t-27 44.5q-17 17 -46 27t-70 10q-35 0 -72 -5t-63 -10q-9 -2 -12 -5t-3 -11v-321h-93v663h93v-258z" />
    <glyph glyph-name="uni04D8" unicode="&#x4d8;" horiz-adv-x="701" 
d="M342 673q72 0 131 -24.5t101.5 -69t66 -106t23.5 -134.5q0 -75 -24.5 -139t-67 -110.5t-101 -73t-125.5 -26.5q-66 0 -122 25t-96.5 68t-63.5 100t-23 121q0 25 4 41q3 12 9 16t17 4h496q-4 49 -21 89.5t-46 69t-71 44.5t-96 16q-43 0 -84.5 -10t-85.5 -30l-68 -30
l-35 57q56 45 129.5 73.5t152.5 28.5zM137 289q3 -45 18 -83.5t41.5 -66.5t64.5 -44t87 -16t87 15.5t65.5 43.5t44 66.5t21.5 84.5h-429z" />
    <glyph glyph-name="uni04E8" unicode="&#x4e8;" horiz-adv-x="734" 
d="M697 331q0 -76 -26.5 -138.5t-71.5 -107.5t-105 -70t-127 -25q-68 0 -128 25t-105 70t-71 107.5t-26 138.5t26 139t71 108t105 70t128 25q67 0 127 -25t105 -70t71.5 -108t26.5 -139zM367 79q99 0 161 56t71 162h-465q9 -106 71.5 -162t161.5 -56zM367 584
q-97 0 -159 -54t-73 -157h464q-11 102 -73.5 156.5t-158.5 54.5z" />
    <glyph glyph-name="afii10065" unicode="&#x430;" horiz-adv-x="536" 
d="M365 313q0 29 -5 45.5t-16 28.5q-14 16 -37.5 23t-53.5 7q-27 0 -56.5 -6t-58.5 -17l-50 -18l-28 48q50 36 100.5 54t100.5 18q44 0 82.5 -13.5t65.5 -42.5q21 -23 32.5 -53t11.5 -77v-238l71 -13v-45q-15 -7 -35 -11.5t-39 -4.5q-26 0 -45.5 12t-30.5 33l-33 -17
q-28 -14 -61 -24t-66 -10q-42 0 -75 13t-57 36q-23 22 -36 51t-13 62q0 64 43.5 98t123.5 34h8q15 0 34.5 -1t41 -2.5t42.5 -4t39 -4.5v39zM365 207q0 5 -2 7.5t-10 2.5h-170q-18 0 -29 -3.5t-18 -10.5q-15 -15 -15 -46q0 -38 27 -64t79 -26q32 0 67.5 9.5t61.5 23.5
q9 5 9 16v91z" />
    <glyph glyph-name="afii10066" unicode="&#x431;" horiz-adv-x="573" 
d="M348 719q34 0 70.5 -5.5t64.5 -16.5v-47l-119 -7q-80 -5 -122 -28.5t-64 -56.5q-20 -29 -29 -64.5t-12 -78.5l32 16q36 18 71 29.5t77 11.5q49 0 90 -17t69.5 -47.5t44.5 -72.5t16 -92t-16 -95.5t-47 -80t-75.5 -55t-101.5 -20.5q-49 0 -94.5 18t-80 59.5t-55.5 109.5
t-21 169q0 167 65 257q38 54 98 84t139 30zM302 390q-35 0 -69.5 -8.5t-65.5 -19.5l-18 -6q-8 -3 -10.5 -7.5t-2.5 -14.5v-12q0 -47 7.5 -91.5t26 -79.5t50.5 -56t80 -21q37 0 64.5 12.5t45.5 35t27 52.5t9 65q0 75 -38 113t-106 38z" />
    <glyph glyph-name="afii10066.locl" horiz-adv-x="558" 
d="M275 719q54 0 102 -15t87 -42l-19 -55l-49 13q-65 17 -118 17q-58 0 -90.5 -21t-32.5 -64q0 -32 23 -52.5t85 -36.5l83 -21q50 -12 82 -32t51 -43q20 -25 31.5 -61t11.5 -80q0 -55 -18 -98.5t-50.5 -73.5t-76.5 -46t-95 -16t-95 16t-76.5 45.5t-50.5 72t-18 95.5
q0 52 14.5 84t28.5 49q13 15 38 31.5t67 22.5v4q-55 14 -89 48t-34 94q0 39 15.5 70t43 52t66 32t83.5 11zM282 367q-72 0 -110.5 -38t-38.5 -107t38.5 -108.5t110.5 -39.5t110.5 39.5t38.5 108.5t-38.5 107t-110.5 38z" />
    <glyph glyph-name="afii10067" unicode="&#x432;" horiz-adv-x="546" 
d="M318 488q75 0 114.5 -33t39.5 -87q0 -35 -12 -59.5t-38 -46.5q42 -16 63 -44t21 -76q0 -68 -42 -105t-121 -37h-276v488h251zM155 68h168q51 0 72.5 18.5t21.5 58.5q0 39 -21.5 56t-72.5 17h-168v-150zM155 285h186q12 0 18.5 2t11.5 10q8 11 11.5 26.5t3.5 31.5
q0 29 -15.5 47t-57.5 18h-158v-135z" />
    <glyph glyph-name="afii10068" unicode="&#x433;" horiz-adv-x="427" 
d="M155 418v-418h-88v488h340v-70h-252z" />
    <glyph glyph-name="afii10068.alt" horiz-adv-x="464" 
d="M72 408l-15 55q39 16 82.5 24.5t85.5 8.5q39 0 76 -8t64 -26q24 -16 38.5 -40t14.5 -56q0 -53 -35 -82.5t-111 -52.5l-72 -22q-46 -14 -64 -27.5t-18 -39.5q0 -76 103 -76q25 0 58 4.5t84 17.5l43 11l22 -51q-45 -26 -101 -41t-106 -15q-41 0 -74.5 10t-58.5 29.5
t-38.5 47.5t-13.5 63q0 58 37 91q17 15 44 27t66 24l69 21q39 12 62 24t23 38q0 31 -30 43t-83 12q-23 0 -53 -2.5t-53 -5.5z" />
    <glyph glyph-name="afii10069" unicode="&#x434;" horiz-adv-x="626" 
d="M602 78v-172q0 -15 -15 -15h-48l-16 109h-420l-16 -109h-48q-15 0 -15 15v172h66q17 0 20 16l87 382q2 8 5.5 10t11.5 2h315v-410h73zM192 78h249v332h-173z" />
    <glyph glyph-name="afii10069.alt" horiz-adv-x="540" 
d="M538 438l-97 -22q-10 -3 -5 -11q14 -22 22 -46t8 -52q0 -41 -16 -75.5t-44 -60t-65.5 -39.5t-80.5 -14q-24 0 -43 3.5t-31 8.5q-5 2 -7.5 1t-4.5 -5l-18 -31q-8 -13 -8 -19q0 -5 6 -8.5t23 -3.5h147q54 0 89 -11t57 -33q17 -17 25 -40t8 -50q0 -38 -18 -70.5t-50.5 -55.5
t-77.5 -36t-99 -13t-98.5 12.5t-76 35t-49 52.5t-17.5 66q0 34 16.5 58t43.5 39q-17 19 -17 39q0 14 7.5 27.5t21.5 30.5l38 47q-32 26 -52.5 63t-20.5 82q0 41 16 75.5t44 60t65.5 39.5t80.5 14q37 0 71 -11.5t60 -31.5q38 29 59 41t39 12q13 0 25.5 -5t23.5 -13v-50z
M381 307q0 58 -33 86.5t-88 28.5t-88 -28.5t-33 -86.5t33 -86.5t88 -28.5t88 28.5t33 86.5zM158 -12q-29 0 -42 -12q-16 -15 -16 -45q0 -46 41.5 -74.5t116.5 -28.5q71 0 116 26t45 75q0 28 -16 42q-11 10 -31 13.5t-48 3.5h-166z" />
    <glyph glyph-name="afii10070" unicode="&#x435;" horiz-adv-x="536" 
d="M490 73q-46 -36 -101.5 -58.5t-109.5 -22.5q-56 0 -100.5 19t-76.5 53t-49 80t-17 100q0 56 18 102.5t49.5 79.5t74.5 51.5t93 18.5t91.5 -18t71.5 -49.5t47 -73.5t17 -90q0 -25 -6 -34.5t-18 -9.5h-347q5 -66 43.5 -107.5t115.5 -41.5q29 0 61 8t60 19l54 21zM411 289
q-4 57 -40 92.5t-99 35.5q-62 0 -100.5 -33.5t-44.5 -94.5h284z" />
    <glyph glyph-name="afii10072" unicode="&#x436;" horiz-adv-x="840" 
d="M376 291v197h88v-197h50q19 0 32 2t24 7.5t21.5 15.5t22.5 26l120 157l63 -47l-120 -157q-9 -11 -18 -21t-20 -18l173 -256h-85q-9 0 -13 2t-9 9l-140 214q-17 -3 -36 -3h-65v-222h-88v222h-65q-20 0 -36 3l-140 -214q-5 -7 -9 -9t-13 -2h-85l173 256q-11 8 -20 18
t-18 21l-120 157l63 47l120 -157q12 -16 22.5 -26t21.5 -15.5t24 -7.5t32 -2h50z" />
    <glyph glyph-name="afii10073" unicode="&#x437;" horiz-adv-x="507" 
d="M252 496q44 0 80.5 -11t62 -31t39.5 -47t14 -59q0 -27 -11 -51t-35 -42q33 -17 48 -41t15 -59q0 -36 -15 -66t-43 -51.5t-67 -33.5t-88 -12q-63 0 -118 20.5t-106 59.5l28 48l55 -22q67 -28 135 -28q63 0 96 24.5t33 62.5q0 29 -21 45t-66 16h-140v68h168q23 0 32 12
q12 15 12 40q0 35 -29.5 57.5t-89.5 22.5q-29 0 -57.5 -5t-60.5 -15l-48 -15l-22 52q45 29 95 45t104 16z" />
    <glyph glyph-name="afii10074" unicode="&#x438;" horiz-adv-x="583" 
d="M432 0v263q0 28 0.5 53t2.5 56q-17 -26 -32.5 -46.5t-35.5 -45.5l-218 -273q-6 -7 -19 -7h-63v488h84v-263q0 -28 -0.5 -52.5t-2.5 -56.5q17 26 32 47t35 45l218 273q6 7 17 7h66v-488h-84z" />
    <glyph glyph-name="afii10075" unicode="&#x439;" horiz-adv-x="583" 
d="M432 0v263q0 28 0.5 53t2.5 56q-17 -26 -32.5 -46.5t-35.5 -45.5l-218 -273q-6 -7 -19 -7h-63v488h84v-263q0 -28 -0.5 -52.5t-2.5 -56.5q17 26 32 47t35 45l218 273q6 7 17 7h66v-488h-84zM292 553q-62 0 -103.5 37.5t-52.5 100.5l54 9q14 -36 39.5 -57t62.5 -21t62 21
t39 57l54 -9q-11 -63 -52 -100.5t-103 -37.5z" />
    <glyph glyph-name="afii10076" unicode="&#x43a;" horiz-adv-x="541" 
d="M438 0q-9 0 -13 2t-9 9l-140 213q-9 -1 -20.5 -1.5t-22.5 -0.5h-78v-222h-88v488h88v-197h70q19 0 32 2t24 7.5t21.5 15.5t22.5 26l120 157l63 -47l-122 -158q-17 -24 -36 -38l173 -256h-85z" />
    <glyph glyph-name="afii10077" unicode="&#x43b;" horiz-adv-x="576" 
d="M421 0v410h-171l-77 -337q-9 -41 -31 -59.5t-57 -18.5q-41 0 -69 20v44l56 10q8 2 11 4.5t5 11.5l89 390q2 8 5.5 10.5t11.5 2.5h315v-488h-88z" />
    <glyph glyph-name="afii10078" unicode="&#x43c;" horiz-adv-x="656" 
d="M367 156h-61q-17 0 -27 14l-95 138q-11 17 -19.5 29t-18.5 29q2 -19 2 -33.5v-34.5v-298h-81v488h74q10 0 14.5 -2.5t9.5 -9.5l163 -243l163 243q8 12 24 12h74v-488h-82v298v34.5t2 33.5q-10 -17 -18.5 -29t-19.5 -29z" />
    <glyph glyph-name="afii10079" unicode="&#x43d;" horiz-adv-x="579" 
d="M424 0v216h-269v-216h-88v488h88v-198h269v198h88v-488h-88z" />
    <glyph glyph-name="afii10080" unicode="&#x43e;" horiz-adv-x="553" 
d="M517 244q0 -58 -19 -104.5t-51.5 -79.5t-76 -50.5t-92.5 -17.5h-3q-49 0 -92.5 17.5t-76 50.5t-51.5 79.5t-19 104.5t19 104.5t51.5 79.5t76 50.5t92.5 17.5h3q49 0 92.5 -17.5t76 -50.5t51.5 -79.5t19 -104.5zM426 244q0 83 -38 126.5t-110 43.5h-3q-72 0 -110 -43.5
t-38 -126.5t38 -126.5t110 -43.5h3q72 0 110 43.5t38 126.5z" />
    <glyph glyph-name="afii10081" unicode="&#x43f;" horiz-adv-x="564" 
d="M497 0h-88v410h-254v-410h-88v488h430v-488z" />
    <glyph glyph-name="afii10081.alt" horiz-adv-x="554" 
d="M131 488l15 -42l31 15q29 14 62.5 24.5t65.5 10.5q44 0 80.5 -13.5t61.5 -37.5q23 -23 35.5 -55t12.5 -82v-308h-88v304q0 34 -6 52t-19 31q-14 14 -38.5 20t-53.5 6h-1q-32 0 -67 -8t-58 -19q-6 -3 -7.5 -6.5t-1.5 -9.5v-370h-88v488h64z" />
    <glyph glyph-name="afii10082" unicode="&#x440;" horiz-adv-x="566" 
d="M155 44v-273h-88v717h64l18 -49l32 17q38 20 70 30t64 10q45 0 84.5 -18t68 -51t45 -79.5t16.5 -103.5t-15.5 -103.5t-44 -79.5t-68.5 -51t-88 -18q-32 0 -63.5 9t-66.5 28zM155 127q0 -9 3 -12.5t8 -6.5q26 -14 61.5 -24.5t69.5 -10.5q30 0 56 8t44.5 28t29.5 52.5
t11 82.5q0 48 -10.5 81t-29.5 52.5t-44 28t-55 8.5q-34 0 -70.5 -10.5t-62.5 -24.5q-5 -3 -8 -6.5t-3 -12.5v-233z" />
    <glyph glyph-name="afii10083" unicode="&#x441;" horiz-adv-x="512" 
d="M486 83q-45 -40 -101 -65.5t-112 -25.5q-54 0 -98 19t-74.5 53t-47.5 80.5t-17 101.5q0 54 18 100t49.5 79t75 52t93.5 19q36 0 69 -10.5t60 -30t46.5 -46t29.5 -58.5l-56 -29l-35 33q-35 33 -61 48t-61 15q-60 0 -98.5 -44.5t-38.5 -125.5q0 -88 40.5 -132t115.5 -44
q50 0 118 31l55 25z" />
    <glyph glyph-name="afii10084" unicode="&#x442;" horiz-adv-x="488" 
d="M288 414v-414h-88v414h-180v74h448v-74h-180z" />
    <glyph glyph-name="afii10084.alt" horiz-adv-x="870" 
d="M131 488l15 -42l31 16q29 15 62 24.5t62 9.5q41 0 78 -14t66 -45l34 18q42 22 76 31.5t71 9.5q42 0 77 -13.5t60 -37.5q23 -23 35.5 -55t12.5 -82v-308h-88v304q0 34 -6 52t-19 31q-14 14 -37 20t-51 6q-32 0 -64 -7t-58 -19q-8 -5 -10 -7t0 -8q3 -13 5 -29t2 -34v-309
h-88v304q0 34 -6 52t-19 31q-14 14 -37 20t-51 6q-32 0 -63 -7.5t-57 -19.5q-6 -3 -7.5 -6.5t-1.5 -9.5v-370h-88v488h64z" />
    <glyph glyph-name="afii10085" unicode="&#x443;" horiz-adv-x="514" 
d="M85 488q7 0 9.5 -1.5t5.5 -8.5l96 -223q9 -21 18.5 -45t18.5 -46.5t16.5 -43t12.5 -33.5h1q8 25 26 71t39 97l90 223q3 7 5.5 8.5t10.5 1.5h76l-300 -719l-81 18l91 208l-215 493h80z" />
    <glyph glyph-name="afii10086" unicode="&#x444;" horiz-adv-x="876" 
d="M482 440l24 15q29 17 58.5 29t66.5 12q45 0 82.5 -19t63.5 -53t40.5 -79.5t14.5 -99.5t-14.5 -100t-40.5 -80t-62.5 -53.5t-79.5 -19.5q-37 0 -70 12.5t-59 28.5l-24 14v-276h-88v276l-24 -14q-26 -16 -59 -28.5t-70 -12.5q-44 0 -80 19.5t-62 53.5t-40.5 80t-14.5 100
t14.5 99.5t40.5 79.5t63.5 53t82.5 19q37 0 66.5 -12t58.5 -29l24 -15v269h88v-269zM263 414q-58 0 -93 -42t-35 -128q0 -85 34.5 -128t94.5 -43q32 0 64.5 10.5t52.5 22.5q6 4 9.5 8t3.5 15v231q0 14 -13 21q-20 12 -53 22.5t-65 10.5zM613 414q-32 0 -65 -10.5t-53 -22.5
q-13 -7 -13 -21v-231q0 -11 3.5 -15t9.5 -8q20 -12 52.5 -22.5t64.5 -10.5q60 0 94.5 43t34.5 128q0 86 -35 128t-93 42z" />
    <glyph glyph-name="afii10087" unicode="&#x445;" horiz-adv-x="507" 
d="M410 0q-7 0 -10 1.5t-8 6.5l-148 191l-137 -191q-4 -5 -7 -6.5t-11 -1.5h-82l186 255l-181 233h86q9 0 12.5 -1.5t8.5 -7.5l130 -169l123 169q4 5 7 7t11 2h81l-171 -234l198 -254h-88z" />
    <glyph glyph-name="afii10088" unicode="&#x446;" horiz-adv-x="599" 
d="M575 -94q0 -15 -15 -15h-50l-16 109h-427v488h88v-410h259v410h88v-410h73v-172z" />
    <glyph glyph-name="afii10089" unicode="&#x447;" horiz-adv-x="527" 
d="M372 0v192l-24 -10q-30 -13 -60 -20.5t-66 -7.5q-88 0 -135 47t-47 131v156h88v-152q0 -52 24.5 -76t90.5 -24q32 0 61 5.5t52 12.5q8 2 12 6t4 14v214h88v-488h-88z" />
    <glyph glyph-name="afii10090" unicode="&#x448;" horiz-adv-x="864" 
d="M797 0h-730v488h88v-410h233v410h88v-410h233v410h88v-488z" />
    <glyph glyph-name="afii10091" unicode="&#x449;" horiz-adv-x="893" 
d="M869 -94q0 -15 -15 -15h-50l-15 109h-722v488h88v-410h233v410h88v-410h233v410h88v-410h72v-172z" />
    <glyph glyph-name="afii10092" unicode="&#x44a;" horiz-adv-x="567" 
d="M363 299q84 0 127 -35.5t43 -110.5q0 -76 -45 -114.5t-129 -38.5h-233v415h-110v73h198v-189h149zM347 72q52 0 74 20t22 61q0 39 -21 56.5t-72 17.5h-136v-155h133z" />
    <glyph glyph-name="afii10093" unicode="&#x44b;" horiz-adv-x="717" 
d="M304 299q84 0 127 -35.5t43 -110.5q0 -76 -45 -114.5t-129 -38.5h-233v488h88v-189h149zM155 72h133q52 0 74 20t22 61q0 39 -21 56.5t-72 17.5h-136v-155zM650 488v-488h-88v488h88z" />
    <glyph glyph-name="afii10094" unicode="&#x44c;" horiz-adv-x="508" 
d="M304 299q84 0 127 -35.5t43 -110.5q0 -76 -45 -114.5t-129 -38.5h-233v488h88v-189h149zM155 72h133q52 0 74 20t22 61q0 39 -21 56.5t-72 17.5h-136v-155z" />
    <glyph glyph-name="afii10095" unicode="&#x44d;" horiz-adv-x="527" 
d="M245 496q57 0 103 -19.5t77.5 -53.5t48.5 -80t17 -99q0 -54 -17 -100t-49 -79.5t-77 -53t-102 -19.5q-62 0 -115.5 22t-94.5 60l28 48l59 -24q64 -26 120 -26q74 0 112.5 40.5t43.5 105.5h-222v64h221q-9 64 -49 100t-111 36q-28 0 -54.5 -6t-57.5 -18l-59 -24l-28 48
q39 35 91 56.5t115 21.5z" />
    <glyph glyph-name="afii10096" unicode="&#x44e;" horiz-adv-x="770" 
d="M497 496q49 0 91.5 -18.5t74 -51.5t49.5 -79.5t18 -102.5t-18 -102.5t-49.5 -79.5t-74 -51.5t-91.5 -18.5q-47 0 -87.5 16.5t-71.5 46.5t-50 72.5t-22 95.5h-111v-223h-88v488h88v-191h114q8 45 28.5 82t50.5 63t68 40t81 14zM495 414q-68 0 -105.5 -43.5t-37.5 -125.5
t37.5 -126.5t106.5 -44.5q68 0 105.5 44.5t37.5 125.5q0 82 -37.5 126t-106.5 44z" />
    <glyph glyph-name="afii10097" unicode="&#x44f;" horiz-adv-x="544" 
d="M390 0v177h-145q-6 0 -8.5 -1.5t-5.5 -6.5l-93 -160q-5 -9 -17 -9h-83l114 191q-38 16 -62.5 48t-24.5 94q0 40 13.5 69.5t38.5 48.5t59 28t76 9h225v-488h-87zM257 420q-54 0 -79.5 -20.5t-25.5 -70.5q0 -45 19 -66q13 -16 41 -16h177v173h-132z" />
    <glyph glyph-name="afii10100" unicode="&#x453;" horiz-adv-x="427" 
d="M155 418v-418h-88v488h340v-70h-252zM165 539l-30 40l187 139q7 5 10.5 4.5t8.5 -7.5l40 -59z" />
    <glyph glyph-name="afii10098" unicode="&#x491;" horiz-adv-x="427" 
d="M392 609q15 0 15 -15v-176h-252v-418h-88v488h259l17 121h49z" />
    <glyph glyph-name="afii10099" unicode="&#x452;" horiz-adv-x="556" 
d="M449 445q23 -23 35.5 -55t12.5 -82v-362q0 -40 -8.5 -70.5t-29.5 -52.5q-36 -36 -105 -36q-17 0 -38 2.5t-35 6.5v46l50 9q23 5 38 10t24 14q9 10 12.5 25t3.5 41v363q0 34 -6 52t-19 31q-14 14 -38.5 20t-53.5 6h-1q-32 0 -67 -8t-58 -19q-6 -3 -7.5 -6.5t-1.5 -9.5
v-370h-88v571h-73v46l73 13v79h88v-78h179v-60h-179v-121l22 11q29 14 62.5 24.5t65.5 10.5q44 0 80.5 -13.5t61.5 -37.5z" />
    <glyph glyph-name="afii10101" unicode="&#x454;" horiz-adv-x="527" 
d="M282 496q63 0 115 -21.5t91 -56.5l-28 -48l-59 24q-31 12 -57.5 18t-54.5 6q-71 0 -111 -36t-49 -100h221v-64h-222q5 -65 43.5 -105.5t112.5 -40.5q56 0 120 26l59 24l28 -48q-41 -38 -94.5 -60t-115.5 -22q-57 0 -102 19.5t-77 53t-49 79.5t-17 100q0 53 17 99t48.5 80
t77.5 53.5t103 19.5z" />
    <glyph glyph-name="afii10102" unicode="&#x455;" horiz-adv-x="464" 
d="M392 408l-46 6q-23 3 -53 5.5t-53 2.5q-53 0 -83 -12t-30 -43q0 -26 23 -38t62 -24l69 -21q39 -12 66 -24t44 -27q37 -33 37 -91q0 -35 -13.5 -63t-38.5 -47.5t-59 -29.5t-74 -10q-50 0 -106 15t-101 41l22 51l43 -11q51 -13 84 -17.5t58 -4.5q103 0 103 76
q0 26 -18 39.5t-64 27.5l-72 22q-76 23 -111 52.5t-35 82.5q0 32 14.5 56t38.5 40q27 18 64 26t76 8q42 0 85.5 -8.5t82.5 -24.5z" />
    <glyph glyph-name="uni0450" unicode="&#x450;" horiz-adv-x="536" 
d="M490 73q-46 -36 -101.5 -58.5t-109.5 -22.5q-56 0 -100.5 19t-76.5 53t-49 80t-17 100q0 56 18 102.5t49.5 79.5t74.5 51.5t93 18.5t91.5 -18t71.5 -49.5t47 -73.5t17 -90q0 -25 -6 -34.5t-18 -9.5h-347q5 -66 43.5 -107.5t115.5 -41.5q29 0 61 8t60 19l54 21zM411 289
q-4 57 -40 92.5t-99 35.5q-62 0 -100.5 -33.5t-44.5 -94.5h284zM151 656l40 59q5 7 8.5 7.5t10.5 -4.5l187 -139l-30 -40z" />
    <glyph glyph-name="afii10071" unicode="&#x451;" horiz-adv-x="536" 
d="M490 73q-46 -36 -101.5 -58.5t-109.5 -22.5q-56 0 -100.5 19t-76.5 53t-49 80t-17 100q0 56 18 102.5t49.5 79.5t74.5 51.5t93 18.5t91.5 -18t71.5 -49.5t47 -73.5t17 -90q0 -25 -6 -34.5t-18 -9.5h-347q5 -66 43.5 -107.5t115.5 -41.5q29 0 61 8t60 19l54 21zM411 289
q-4 57 -40 92.5t-99 35.5q-62 0 -100.5 -33.5t-44.5 -94.5h284zM227 571h-98v96h80q11 0 14.5 -3t3.5 -12v-81zM416 571h-98v96h80q11 0 14.5 -3t3.5 -12v-81z" />
    <glyph glyph-name="afii10103" unicode="&#x456;" horiz-adv-x="224" 
d="M68 488h88v-488h-88v488zM66 675h74q11 0 14.5 -3.5t3.5 -12.5v-78h-92v94z" />
    <glyph glyph-name="afii10104" unicode="&#x457;" horiz-adv-x="214" 
d="M63 488h88v-488h-88v488zM62 571h-98v96h80q11 0 14.5 -3t3.5 -12v-81zM251 571h-98v96h80q11 0 14.5 -3t3.5 -12v-81z" />
    <glyph glyph-name="afii10105" unicode="&#x458;" horiz-adv-x="218" 
d="M150 -74q0 -40 -8.5 -70.5t-29.5 -52.5q-36 -36 -105 -36q-17 0 -38 2.5t-35 6.5v46l50 9q23 5 38 10t24 14q9 10 12.5 25t3.5 41v567h88v-562zM60 675h74q11 0 14.5 -3.5t3.5 -12.5v-78h-92v94z" />
    <glyph glyph-name="uni045D" unicode="&#x45d;" horiz-adv-x="583" 
d="M432 0v263q0 28 0.5 53t2.5 56q-17 -26 -32.5 -46.5t-35.5 -45.5l-218 -273q-6 -7 -19 -7h-63v488h84v-263q0 -28 -0.5 -52.5t-2.5 -56.5q17 26 32 47t35 45l218 273q6 7 17 7h66v-488h-84zM136 656l40 59q5 7 8.5 7.5t10.5 -4.5l187 -139l-30 -40z" />
    <glyph glyph-name="afii10109" unicode="&#x45c;" horiz-adv-x="541" 
d="M438 0q-9 0 -13 2t-9 9l-140 213q-9 -1 -20.5 -1.5t-22.5 -0.5h-78v-222h-88v488h88v-197h70q19 0 32 2t24 7.5t21.5 15.5t22.5 26l120 157l63 -47l-122 -158q-17 -24 -36 -38l173 -256h-85zM206 539l-30 40l187 139q7 5 10.5 4.5t8.5 -7.5l40 -59z" />
    <glyph glyph-name="afii10106" unicode="&#x459;" horiz-adv-x="862" 
d="M658 299q84 0 127 -35.5t43 -110.5q0 -76 -45 -114.5t-129 -38.5h-233v410h-171l-77 -337q-9 -41 -31 -59.5t-57 -18.5q-41 0 -69 20v44l56 10q8 2 11 4.5t5 11.5l89 390q2 8 5.5 10.5t11.5 2.5h315v-189h149zM642 72q52 0 74 20t22 61q0 39 -21 56.5t-72 17.5h-136v-155
h133z" />
    <glyph glyph-name="afii10107" unicode="&#x45a;" horiz-adv-x="865" 
d="M661 295q84 0 127 -35.5t43 -108.5q0 -75 -45 -113t-129 -38h-233v221h-269v-221h-88v488h88v-193h269v193h88v-193h149zM645 72q52 0 74 20t22 59q0 38 -21 55t-72 17h-136v-151h133z" />
    <glyph glyph-name="afii10108" unicode="&#x45b;" horiz-adv-x="556" 
d="M449 445q23 -23 35.5 -55t12.5 -82v-308h-88v304q0 34 -6 52t-19 31q-14 14 -38.5 20t-53.5 6h-1q-32 0 -67 -8t-58 -19q-6 -3 -7.5 -6.5t-1.5 -9.5v-370h-88v571h-73v46l73 13v79h88v-78h179v-60h-179v-121l22 11q29 14 62.5 24.5t65.5 10.5q44 0 80.5 -13.5t61.5 -37.5
z" />
    <glyph glyph-name="afii10110" unicode="&#x45e;" horiz-adv-x="514" 
d="M85 488q7 0 9.5 -1.5t5.5 -8.5l96 -223q9 -21 18.5 -45t18.5 -46.5t16.5 -43t12.5 -33.5h1q8 25 26 71t39 97l90 223q3 7 5.5 8.5t10.5 1.5h76l-300 -719l-81 18l91 208l-215 493h80zM264 553q-62 0 -103.5 37.5t-52.5 100.5l54 9q14 -36 39.5 -57t62.5 -21t62 21t39 57
l54 -9q-11 -63 -52 -100.5t-103 -37.5z" />
    <glyph glyph-name="afii10193" unicode="&#x45f;" horiz-adv-x="569" 
d="M329 0v-133q0 -15 -15 -15h-54l-22 148h-171v488h88v-410h259v410h88v-488h-173z" />
    <glyph glyph-name="afii00208" unicode="&#x2015;" horiz-adv-x="1114" 
d="M1057 207h-1000v74h1000v-74z" />
    <glyph glyph-name="uni0493" unicode="&#x493;" horiz-adv-x="466" 
d="M313 263v-64h-119v-199h-88v199h-80v64h80v225h340v-70h-252v-155h119z" />
    <glyph glyph-name="uni049B" unicode="&#x49b;" horiz-adv-x="559" 
d="M539 -94q0 -15 -15 -15h-50l-16 109h-20q-9 0 -13 2t-9 9l-140 213q-9 -1 -20.5 -1.5t-22.5 -0.5h-78v-222h-88v488h88v-197h70q19 0 32 2t24 7.5t21.5 15.5t22.5 26l120 157l63 -47l-122 -158q-17 -24 -36 -38l121 -178h68v-172z" />
    <glyph glyph-name="uni04A3" unicode="&#x4a3;" horiz-adv-x="591" 
d="M567 -94q0 -15 -15 -15h-50l-15 109h-63v216h-269v-216h-88v488h88v-198h269v198h88v-410h55v-172z" />
    <glyph glyph-name="uni04AF" unicode="&#x4af;" horiz-adv-x="514" 
d="M218 -229v228l-213 489h80q7 0 9.5 -1.5t5.5 -8.5l96 -223q9 -21 18.5 -45t18.5 -46.5t16.5 -43t12.5 -33.5h1q8 25 26 71t39 97l90 223q3 7 5.5 8.5t10.5 1.5h76l-204 -489v-228h-88z" />
    <glyph glyph-name="uni04B1" unicode="&#x4b1;" horiz-adv-x="528" 
d="M432 -102h-119v-127h-88v127h-117v64h117v53l-213 473h80q7 0 9.5 -1.5t5.5 -8.5l96 -216q9 -21 19 -45t18.5 -46.5t16 -43t12.5 -33.5h1q8 25 26 71t39 97l90 216q3 7 5.5 8.5t10.5 1.5h76l-204 -473v-53h119v-64z" />
    <glyph glyph-name="uni04BB" unicode="&#x4bb;" horiz-adv-x="554" 
d="M155 450l22 11q29 14 62.5 24.5t65.5 10.5q44 0 80.5 -13.5t61.5 -37.5q23 -23 35.5 -55t12.5 -82v-308h-88v304q0 34 -6 52t-19 31q-14 14 -38.5 20t-53.5 6h-1q-32 0 -67 -8t-58 -19q-6 -3 -7.5 -6.5t-1.5 -9.5v-370h-88v709h88v-259z" />
    <glyph glyph-name="afii10846" unicode="&#x4d9;" horiz-adv-x="536" 
d="M46 415q46 36 101.5 58.5t109.5 22.5q55 0 100 -19t77 -53t49 -80t17 -100q0 -56 -18 -102.5t-49.5 -79.5t-74.5 -51.5t-93 -18.5t-91.5 18t-71.5 49.5t-47 73.5t-17 90q0 25 6 34.5t18 9.5h347q-5 66 -43.5 107.5t-115.5 41.5q-29 0 -61 -8t-60 -19l-54 -21zM125 199
q4 -57 40 -92.5t99 -35.5q62 0 100.5 33.5t44.5 94.5h-284z" />
    <glyph glyph-name="uni04E9" unicode="&#x4e9;" horiz-adv-x="559" 
d="M281 496q50 0 94 -17.5t77 -50.5t52 -79.5t19 -104.5t-19 -104.5t-52 -79.5t-77 -50.5t-94 -17.5h-3q-50 0 -94 17.5t-77 50.5t-52 79.5t-19 104.5t19 104.5t52 79.5t77 50.5t94 17.5h3zM278 414q-66 0 -103.5 -34t-45.5 -100h301q-8 66 -45.5 100t-103.5 34h-3zM281 74
q66 0 104 35t45 103h-301q7 -68 45 -103t104 -35h3z" />
    <glyph glyph-name="Alpha" unicode="&#x391;" horiz-adv-x="675" 
d="M500 156h-332l-56 -146q-2 -6 -5 -8t-11 -2h-82l266 663h91q8 0 11 -2t6 -9l273 -652h-85q-12 0 -16 10zM196 230h274l-55 138q-33 83 -53.5 134.5t-30.5 79.5h-1q-9 -26 -29 -79.5t-52 -134.5z" />
    <glyph glyph-name="Beta" unicode="&#x392;" horiz-adv-x="620" 
d="M74 663h249q109 0 160 -41q51 -40 51 -120q0 -43 -18 -81.5t-49 -70.5q48 -17 79.5 -56t31.5 -103q0 -85 -53 -135q-29 -27 -72 -41.5t-103 -14.5h-276v663zM167 77h178q81 0 112 34q26 28 26 81t-23 77q-14 15 -39 22.5t-65 7.5h-189v-222zM369 373q16 0 24.5 4t16.5 13
q14 17 23.5 44.5t9.5 57.5q0 47 -21 68q-25 26 -95 26h-160v-213h202z" />
    <glyph glyph-name="Gamma" unicode="&#x393;" horiz-adv-x="533" 
d="M500 663v-77h-333v-586h-93v663h426z" />
    <glyph glyph-name="Delta" unicode="&#x394;" horiz-adv-x="662" 
d="M430 77q22 0 51.5 -0.5t50.5 -2.5q-4 7 -10 19.5t-12.5 28t-13.5 32t-13 31.5l-81 203q-9 22 -20 49t-21.5 53.5t-20 51t-15.5 41.5q-5 -17 -14.5 -42t-20 -52t-20.5 -53t-17 -45l-89 -232q-8 -20 -18 -45.5t-18 -39.5q21 2 50.5 2.5t51.5 0.5h200zM625 0h-588v49
q0 14 1.5 21.5t7.5 21.5l229 571h90q8 0 11.5 -2.5t5.5 -8.5l234 -559q6 -14 7.5 -21.5t1.5 -21.5v-50z" />
    <glyph glyph-name="Epsilon" unicode="&#x395;" horiz-adv-x="571" 
d="M510 663v-77h-343v-205h307v-76h-307v-228h354v-77h-447v663h436z" />
    <glyph glyph-name="Zeta" unicode="&#x396;" horiz-adv-x="575" 
d="M43 586v77h485v-46q0 -13 -11 -29l-253 -362q-38 -54 -67.5 -93t-41.5 -56h378v-77h-491v45q0 8 2.5 14t8.5 15l254 362q37 52 64.5 89.5t44.5 60.5h-373z" />
    <glyph glyph-name="Eta" unicode="&#x397;" horiz-adv-x="700" 
d="M533 305h-366v-305h-93v663h93v-279h366v279h93v-663h-93v305z" />
    <glyph glyph-name="Theta" unicode="&#x398;" horiz-adv-x="726" 
d="M470 298h-214v71h214v-71zM689 331q0 -76 -26 -138.5t-71 -107.5t-104 -70t-125 -25t-125 25t-104 70t-71 107.5t-26 138.5t26 139t71 108t104 70t125 25t125 -25t104 -70t71 -108t26 -139zM593 331q0 61 -16.5 108t-47 79.5t-73 49t-93.5 16.5t-93.5 -16.5t-73 -49
t-47 -79.5t-16.5 -108t16.5 -108t47 -79t73 -48.5t93.5 -16.5t93.5 16.5t73 48.5t47 79t16.5 108z" />
    <glyph glyph-name="Iota" unicode="&#x399;" horiz-adv-x="249" 
d="M78 663h93v-663h-93v663z" />
    <glyph glyph-name="Kappa" unicode="&#x39a;" horiz-adv-x="637" 
d="M279 338q-10 -9 -25 -21t-30.5 -24t-30.5 -22.5t-26 -16.5v-254h-93v663h93v-327l377 332l53 -57l-252 -218l280 -393h-92q-9 0 -13.5 2t-9.5 8z" />
    <glyph glyph-name="Lambda" unicode="&#x39b;" horiz-adv-x="661" 
d="M361 663q8 0 11 -2t6 -9l269 -652h-91q-8 0 -11 1.5t-5 8.5l-160 401q-8 21 -16.5 44t-16.5 44.5t-15 40.5t-11 34q-5 -15 -12 -35.5t-15.5 -44t-17 -48t-16.5 -45.5l-145 -391q-2 -6 -5 -8t-11 -2h-85l256 663h91z" />
    <glyph glyph-name="Mu" unicode="&#x39c;" horiz-adv-x="833" 
d="M759 0h-90v521h-1q-6 -10 -17 -25t-23.5 -32t-25.5 -34t-25 -32l-129 -163h-52q-8 0 -11.5 2.5t-8.5 7.5l-122 153q-11 14 -24 31t-25 33.5t-22.5 31.5t-17.5 27h-1v-521h-90v663h69q8 0 12 -1.5t10 -9.5l254 -325h1l252 325q5 7 9.5 9t12.5 2h65v-663z" />
    <glyph glyph-name="Nu" unicode="&#x39d;" horiz-adv-x="729" 
d="M163 0h-89v663h64q8 0 12 -1.5t10 -8.5l286 -358q17 -21 34.5 -43t33.5 -43t29.5 -38.5t22.5 -29.5v522h89v-663h-63q-8 0 -12 1.5t-10 8.5l-286 358q-17 21 -34.5 43.5t-34 43.5t-30.5 39t-22 29v-523z" />
    <glyph glyph-name="Xi" unicode="&#x39e;" horiz-adv-x="567" 
d="M517 0h-467v77h467v-77zM470 305h-376v76h376v-76zM506 586h-446v77h446v-77z" />
    <glyph glyph-name="Omicron" unicode="&#x39f;" horiz-adv-x="726" 
d="M689 331q0 -76 -26 -138.5t-71 -107.5t-104 -70t-125 -25t-125 25t-104 70t-71 107.5t-26 138.5t26 139t71 108t104 70t125 25t125 -25t104 -70t71 -108t26 -139zM593 331q0 61 -16.5 108t-47 79.5t-73 49t-93.5 16.5t-93.5 -16.5t-73 -49t-47 -79.5t-16.5 -108
t16.5 -108t47 -79t73 -48.5t93.5 -16.5t93.5 16.5t73 48.5t47 79t16.5 108z" />
    <glyph glyph-name="Pi" unicode="&#x3a0;" horiz-adv-x="686" 
d="M612 0h-93v586h-352v-586h-93v663h538v-663z" />
    <glyph glyph-name="Rho" unicode="&#x3a1;" horiz-adv-x="613" 
d="M167 0h-93v663h242q65 0 115 -13.5t85 -47.5q26 -25 40.5 -63.5t14.5 -87.5q0 -54 -16.5 -99t-48.5 -76q-25 -24 -55.5 -36t-83.5 -12h-200v-228zM167 304h220q21 0 33 5t21 16q17 20 26.5 54t9.5 71q0 65 -31 98q-20 21 -53.5 29.5t-78.5 8.5h-147v-282z" />
    <glyph glyph-name="Sigma" unicode="&#x3a3;" horiz-adv-x="594" 
d="M539 586h-362l223 -217q12 -12 14.5 -16.5t2.5 -15.5v-24l-235 -236h362v-77h-491v44q0 10 2 15.5t10 13.5l259 260l-263 256q-8 8 -9.5 13t-1.5 14v47h489v-77z" />
    <glyph glyph-name="Tau" unicode="&#x3a4;" horiz-adv-x="585" 
d="M246 586h-225v77h543v-77h-225v-586h-93v586z" />
    <glyph glyph-name="Upsilon" unicode="&#x3a5;" horiz-adv-x="621" 
d="M358 217v-217h-93v217l-263 446h90q6 0 9 -1.5t7 -7.5l104 -181q35 -61 60.5 -107.5t39.5 -75.5h2q14 29 39.5 76t59.5 107l103 181q5 9 17 9h86z" />
    <glyph glyph-name="Phi" unicode="&#x3a6;" horiz-adv-x="746" 
d="M417 626q60 -3 113 -22t93 -55t63 -90t23 -128t-23 -128t-62.5 -90t-92.5 -55t-114 -22v-75h-86v75q-60 3 -113.5 22t-93.5 55t-63.5 90t-23.5 128t23 128t63 90t93.5 55t114.5 22v73h86v-73zM331 548q-42 -2 -78 -15.5t-62.5 -39.5t-42 -66t-15.5 -96t15 -96t42 -66
t63 -39t78 -16v434zM417 114q42 3 78 16t62.5 39t41 66t14.5 96q0 55 -15 95t-41.5 66.5t-62 39.5t-77.5 16v-434z" />
    <glyph glyph-name="Chi" unicode="&#x3a7;" horiz-adv-x="646" 
d="M8 0l257 346l-243 317h90q9 0 12.5 -1.5t8.5 -7.5l187 -243l179 243q5 6 8.5 7.5t12.5 1.5h84l-232 -315l266 -348h-89q-8 0 -11.5 2t-8.5 7l-211 275l-202 -275q-4 -5 -8 -7t-14 -2h-86z" />
    <glyph glyph-name="Psi" unicode="&#x3a8;" horiz-adv-x="735" 
d="M685 451q0 -61 -16 -107t-46 -79q-36 -39 -89 -58t-122 -21v-186h-89v186q-69 2 -121.5 21t-88.5 58q-31 33 -47 79t-16 107v212h92v-206q0 -45 8.5 -79t31.5 -60q47 -49 141 -51v396h89v-396q46 1 82 13t59 38q24 26 32.5 60t8.5 79v206h91v-212z" />
    <glyph glyph-name="Omega" unicode="&#x3a9;" horiz-adv-x="713" 
d="M356 673q63 0 121 -22.5t102 -63t70.5 -96t26.5 -121.5q0 -40 -8.5 -74.5t-28.5 -69t-52.5 -71.5t-80.5 -82h159v-73h-254v48q0 13 1 16.5t9 11.5l61 72q42 48 70.5 99.5t28.5 112.5q0 54 -18.5 95.5t-49.5 70t-71.5 43t-85.5 14.5t-86 -15t-71.5 -43.5t-49 -70
t-18.5 -94.5q0 -61 29 -113t70 -99l62 -72q7 -8 8 -11.5t1 -16.5v-48h-253v73h163q-48 43 -81 79t-54 70.5t-30 70t-9 77.5q0 66 26 121.5t70.5 96t102 63t120.5 22.5z" />
    <glyph glyph-name="Alphatonos" unicode="&#x386;" horiz-adv-x="675" 
d="M500 156h-332l-56 -146q-2 -6 -5 -8t-11 -2h-82l266 663h91q8 0 11 -2t6 -9l273 -652h-85q-12 0 -16 10zM196 230h274l-55 138q-33 83 -53.5 134.5t-30.5 79.5h-1q-9 -26 -29 -79.5t-52 -134.5zM181 660l-84 -225l-51 14l45 219q3 12 7.5 13.5t17.5 -2.5z" />
    <glyph glyph-name="Epsilontonos" unicode="&#x388;" horiz-adv-x="694" 
d="M633 663v-77h-343v-205h307v-76h-307v-228h354v-77h-447v663h436zM140 660l-84 -225l-51 14l45 219q3 12 7.5 13.5t17.5 -2.5z" />
    <glyph glyph-name="Etatonos" unicode="&#x389;" horiz-adv-x="823" 
d="M656 305h-366v-305h-93v663h93v-279h366v279h93v-663h-93v305zM140 660l-84 -225l-51 14l45 219q3 12 7.5 13.5t17.5 -2.5z" />
    <glyph glyph-name="Iotatonos" unicode="&#x38a;" horiz-adv-x="368" 
d="M197 663h93v-663h-93v663zM140 660l-84 -225l-51 14l45 219q3 12 7.5 13.5t17.5 -2.5z" />
    <glyph glyph-name="Iotadieresis" unicode="&#x3aa;" horiz-adv-x="249" 
d="M78 663h93v-663h-93v663zM79 751h-98v96h80q11 0 14.5 -3t3.5 -12v-81zM268 751h-98v96h80q11 0 14.5 -3t3.5 -12v-81z" />
    <glyph glyph-name="Omicrontonos" unicode="&#x38c;" horiz-adv-x="816" 
d="M779 331q0 -76 -26 -138.5t-71 -107.5t-104 -70t-125 -25t-125 25t-104 70t-71 107.5t-26 138.5t26 139t71 108t104 70t125 25t125 -25t104 -70t71 -108t26 -139zM683 331q0 61 -16.5 108t-47 79.5t-73 49t-93.5 16.5t-93.5 -16.5t-73 -49t-47 -79.5t-16.5 -108
t16.5 -108t47 -79t73 -48.5t93.5 -16.5t93.5 16.5t73 48.5t47 79t16.5 108zM140 660l-84 -225l-51 14l45 219q3 12 7.5 13.5t17.5 -2.5z" />
    <glyph glyph-name="Upsilontonos" unicode="&#x38e;" horiz-adv-x="762" 
d="M499 217v-217h-93v217l-263 446h90q6 0 9 -1.5t7 -7.5l104 -181q35 -61 60.5 -107.5t39.5 -75.5h2q14 29 39.5 76t59.5 107l103 181q5 9 17 9h86zM140 660l-84 -225l-51 14l45 219q3 12 7.5 13.5t17.5 -2.5z" />
    <glyph glyph-name="Upsilondieresis" unicode="&#x3ab;" horiz-adv-x="621" 
d="M358 217v-217h-93v217l-263 446h90q6 0 9 -1.5t7 -7.5l104 -181q35 -61 60.5 -107.5t39.5 -75.5h2q14 29 39.5 76t59.5 107l103 181q5 9 17 9h86zM265 751h-98v96h80q11 0 14.5 -3t3.5 -12v-81zM454 751h-98v96h80q11 0 14.5 -3t3.5 -12v-81z" />
    <glyph glyph-name="Omegatonos" unicode="&#x38f;" horiz-adv-x="805" 
d="M448 673q63 0 121 -22.5t102 -63t70.5 -96t26.5 -121.5q0 -40 -8.5 -74.5t-28.5 -69t-52.5 -71.5t-80.5 -82h159v-73h-254v48q0 13 1 16.5t9 11.5l61 72q42 48 70.5 99.5t28.5 112.5q0 54 -18.5 95.5t-49.5 70t-71.5 43t-85.5 14.5t-86 -15t-71.5 -43.5t-49 -70
t-18.5 -94.5q0 -61 29 -113t70 -99l62 -72q7 -8 8 -11.5t1 -16.5v-48h-253v73h163q-48 43 -81 79t-54 70.5t-30 70t-9 77.5q0 66 26 121.5t70.5 96t102 63t120.5 22.5zM140 660l-84 -225l-51 14l45 219q3 12 7.5 13.5t17.5 -2.5z" />
    <glyph glyph-name="tonos.cap" horiz-adv-x="416" 
d="M284 660l-84 -225l-51 14l45 219q3 12 7.5 13.5t17.5 -2.5z" />
    <glyph glyph-name="alpha" unicode="&#x3b1;" horiz-adv-x="625" 
d="M249 496q75 0 120.5 -39t69.5 -114l33 131q2 9 6 11.5t14 2.5h63l-66 -245l52 -175l68 -11v-44q-14 -7 -32.5 -11t-35.5 -4q-18 0 -32 4t-26 16.5t-22.5 36.5t-20.5 64l-4 15q-9 -28 -24.5 -54t-38.5 -45.5t-54.5 -31t-73.5 -11.5q-49 0 -88 20t-66 54.5t-41 80t-14 96.5
q0 59 17 106t46 79.5t67.5 50t82.5 17.5zM261 415q-36 0 -61.5 -14t-41.5 -37.5t-23.5 -54.5t-7.5 -64q0 -30 6 -61t21 -55.5t40 -40t62 -15.5q19 0 38.5 4.5t38 17.5t35 36.5t29.5 61.5q8 23 10.5 34t2.5 16q0 6 -3.5 16.5t-9.5 27.5q-27 73 -60.5 100.5t-75.5 27.5z" />
    <glyph glyph-name="beta" unicode="&#x3b2;" horiz-adv-x="587" 
d="M301 719q49 0 89 -12t68.5 -35.5t44.5 -58t16 -79.5q0 -31 -5 -54.5t-14 -42.5t-21 -33.5t-26 -27.5q13 -6 30 -16.5t32 -28.5t25.5 -44t10.5 -62q0 -50 -16.5 -92.5t-46 -73.5t-71.5 -49t-93 -18q-33 0 -69 8.5t-71 28.5l-28 15v-273h-88v713q0 110 57.5 172.5
t172.5 62.5h3zM298 642q-78 0 -110 -43.5t-32 -116.5v-355q0 -8 2 -11.5t9 -7.5q32 -17 67.5 -26t70.5 -9q32 0 60.5 8t49.5 26t33 47t12 71q0 36 -11.5 58t-32 34t-49.5 16.5t-65 4.5h-39v68h103q17 0 23.5 3.5t14.5 15.5q10 14 19 40t9 57q0 64 -37.5 92t-93.5 28h-3z" />
    <glyph glyph-name="uni03D0" unicode="&#x3d0;" horiz-adv-x="568" 
d="M312 719q44 0 79 -13.5t59.5 -37t37.5 -55t13 -66.5q0 -48 -20 -82t-58 -57q21 -8 40.5 -22.5t35 -36.5t24.5 -51t9 -66q0 -55 -17.5 -99.5t-48.5 -75.5t-73 -48t-91 -17q-128 0 -191 90t-63 258v13q0 80 19 147.5t53.5 116t83 75.5t108.5 27zM361 353q-14 0 -29 -4.5
t-34 -12.5l-156 -64q1 -43 11.5 -79.5t30 -63.5t48.5 -42t67 -15q30 0 56.5 10t46 30.5t30.5 50.5t11 70q0 57 -24.5 88.5t-57.5 31.5zM312 639q-42 0 -73.5 -20.5t-53 -58t-33 -91t-12.5 -119.5l156 66q65 27 91.5 54.5t26.5 71.5t-24.5 70.5t-77.5 26.5z" />
    <glyph glyph-name="gamma" unicode="&#x3b3;" horiz-adv-x="515" 
d="M306 0v-229h-88v229l-213 488h80q8 0 10.5 -1.5t5.5 -8.5l106 -249q17 -42 31 -81.5t25 -71.5l24 72t30 80l100 250q3 7 5.5 8.5t10.5 1.5h78z" />
    <glyph glyph-name="delta" unicode="&#x3b4;" horiz-adv-x="553" 
d="M292 719q43 0 83.5 -14t75.5 -37l-20 -51l-44 13q-22 6 -43 9.5t-38 3.5q-16 0 -34.5 -3.5t-34 -12.5t-26 -25t-10.5 -41q0 -33 23.5 -53t58.5 -36t76 -33t76 -43t58.5 -65.5t23.5 -101.5q0 -57 -20 -101t-53 -74t-76 -46t-90 -16h-3q-45 0 -88 15.5t-76.5 45.5t-54 74
t-20.5 102q0 42 10 73.5t25.5 55t35.5 40.5t41 29l30 18q-65 47 -65 122q0 33 13 61t36.5 48t56.5 31.5t73 11.5zM258 400q-16 7 -21 7t-11 -4t-18 -13q-36 -26 -58.5 -64.5t-22.5 -96.5q0 -72 38.5 -113.5t109.5 -41.5h4q66 0 106.5 38.5t40.5 116.5q0 34 -10 57.5
t-30.5 42.5t-52 35t-75.5 36z" />
    <glyph glyph-name="epsilon" unicode="&#x3b5;" horiz-adv-x="447" 
d="M235 496q21 0 46.5 -4t50.5 -11t48 -17t41 -22l-20 -51l-56 14q-17 5 -44 9t-53 4h-3q-24 0 -45 -4.5t-36.5 -14.5t-25 -26.5t-9.5 -40.5v-2q0 -21 8 -40q3 -8 5 -9t7 -1h141v-68h-107q-28 0 -42.5 -12t-14.5 -46v-2q0 -43 26.5 -61.5t86.5 -18.5q27 0 60 7.5t63 19.5
l54 21l29 -47q-50 -39 -105.5 -60t-110.5 -21q-51 0 -88 11.5t-60 31t-34 45t-11 53.5q0 31 12 60t38 53l-18 26q-13 19 -19.5 38t-6.5 45q0 31 14 57t39.5 44.5t61 29t78.5 10.5z" />
    <glyph glyph-name="zeta" unicode="&#x3b6;" horiz-adv-x="446" 
d="M427 672q0 -12 -3 -17.5t-17 -15.5q-70 -51 -122.5 -97t-87.5 -92.5t-52.5 -95.5t-17.5 -106q0 -56 23.5 -87t58.5 -47.5t76.5 -23.5t76.5 -15t58.5 -23.5t23.5 -47.5q0 -28 -11.5 -62.5t-33.5 -81.5l-43 -90l-63 24l32 84q16 42 23.5 65.5t7.5 36.5q0 16 -23.5 22.5
t-59.5 11.5t-77 14.5t-77 33t-59.5 66t-23.5 113.5q0 69 21 125.5t55 102.5t76 82t84 65l37 25h-236v68h354v-37z" />
    <glyph glyph-name="eta" unicode="&#x3b7;" horiz-adv-x="554" 
d="M407 304q0 34 -6 52t-19 31q-14 14 -38.5 20t-53.5 6h-1q-32 0 -67 -8t-58 -19q-6 -3 -7.5 -6.5t-1.5 -9.5v-370h-88v488h64l15 -42l31 15q29 14 62.5 24.5t65.5 10.5q44 0 80.5 -13.5t61.5 -37.5q23 -23 35.5 -55t12.5 -82v-537h-88v533z" />
    <glyph glyph-name="theta" unicode="&#x3b8;" horiz-adv-x="553" 
d="M276 719q65 0 111 -25.5t75 -73.5t42 -117t13 -156q0 -177 -56.5 -266t-184.5 -89q-127 0 -183.5 89.5t-56.5 265.5q0 87 13 156t42 117t74.5 73.5t110.5 25.5zM126 322q0 -67 8.5 -114.5t26.5 -78t46 -45t69 -14.5q40 0 69 14.5t47 45t26.5 78t8.5 114.5h-301zM276 640
q-79 0 -113.5 -62t-36.5 -188h301q-3 126 -37.5 188t-113.5 62z" />
    <glyph glyph-name="theta1" unicode="&#x3d1;" horiz-adv-x="590" 
d="M332 719q67 0 110.5 -27t68 -77.5t34 -122t9.5 -159.5q0 -93 -16 -158t-44.5 -105.5t-68.5 -59t-88 -18.5q-36 0 -61.5 9t-45.5 26t-36.5 41t-33.5 55l-77 138l-66 11v43q14 7 34 12.5t40 5.5q17 0 28.5 -4t21.5 -15.5t21 -30.5t27 -49l35 -65q13 -25 24.5 -43.5t24 -31
t27 -18.5t34.5 -6q27 0 50.5 11.5t41 40t28 76t11.5 119.5q-84 3 -146 14.5t-102.5 35.5t-60.5 62.5t-20 95.5q0 37 12 72t36 62t61 43.5t87 16.5zM331 643q-18 0 -38 -5.5t-36.5 -19.5t-27 -38.5t-10.5 -62.5q0 -31 13 -55t42.5 -41t76 -27t114.5 -12q-1 81 -11 131.5
t-27.5 79.5t-41.5 39.5t-54 10.5z" />
    <glyph glyph-name="iota" unicode="&#x3b9;" horiz-adv-x="250" 
d="M243 15q-15 -7 -40 -12t-45 -5q-42 0 -66 24t-24 71v395h88v-415l87 -14v-44z" />
    <glyph glyph-name="kappa" unicode="&#x3ba;" horiz-adv-x="536" 
d="M456 496q16 0 33.5 -4t32.5 -12v-43l-80 -13l-125 -134l211 -290h-89q-9 0 -12.5 1.5t-8.5 8.5l-160 222q-20 -19 -49 -43.5t-54 -40.5v-148h-88v488h88v-260l200 210q17 18 29.5 29t23.5 17.5t22 9t26 2.5z" />
    <glyph glyph-name="lambda" unicode="&#x3bb;" horiz-adv-x="581" 
d="M139 719q26 0 43 -7t31 -23t26.5 -42.5t29.5 -65.5l222 -511l84 -11v-44q-15 -8 -38.5 -12.5t-38.5 -4.5q-25 0 -41.5 6t-28.5 19t-22 33t-22 49l-43 104q-29 69 -49 116t-30 73q-5 -13 -14.5 -37.5t-20.5 -52.5t-22.5 -55.5t-19.5 -46.5l-82 -192q-4 -9 -7.5 -11.5
t-12.5 -2.5h-77l215 492l-44 101q-5 12 -10 21t-11 16t-15 10.5t-23 3.5q-23 0 -48 -5l-24 -5l-20 51q21 14 51.5 24t61.5 10z" />
    <glyph glyph-name="mu" unicode="&#x3bc;" horiz-adv-x="578" 
d="M67 488h88v-304q0 -34 6 -52t19 -31q14 -14 38 -20t53 -6h1q32 0 65.5 8t56.5 19q6 3 7.5 6.5t1.5 9.5v370h88v-416l71 -13v-45q-15 -7 -35 -11.5t-39 -4.5q-27 0 -46 12t-30 32l-29 -14q-35 -17 -66 -26.5t-63 -9.5q-29 0 -54.5 7t-44.5 20v-248h-88v717z" />
    <glyph glyph-name="nu" unicode="&#x3bd;" horiz-adv-x="543" 
d="M466 496q21 -32 31 -71t10 -82q0 -99 -55 -189t-155 -154h-68q-8 0 -11 2.5t-5 7.5l-208 478h81q7 0 9.5 -1.5t5.5 -8.5l95 -223q9 -20 19.5 -46.5t20.5 -52.5t18 -49t13 -36q28 17 55 43.5t48 61t33.5 76.5t12.5 91q0 36 -9 71t-26 63z" />
    <glyph glyph-name="xi" unicode="&#x3be;" horiz-adv-x="433" 
d="M418 672q0 -12 -3 -18t-17 -15q-55 -35 -96 -63t-68 -53t-40.5 -48.5t-13.5 -48.5v-2q0 -16 5 -31q2 -7 4 -8.5t9 -1.5h138v-68h-126q-83 0 -83 -109q0 -43 22.5 -66.5t56 -35.5t72.5 -17.5t72.5 -13.5t56 -23t22.5 -46q0 -28 -11.5 -62.5t-33.5 -81.5l-43 -90l-63 24
l32 84q15 39 23 64t8 38q0 15 -22.5 21t-56.5 11t-73.5 12t-73.5 24t-56.5 48.5t-22.5 85.5q0 64 25.5 107t63.5 65l-13 19q-12 17 -16.5 32t-4.5 36q0 28 15 54t39 49t54.5 43t62.5 37l32 17h-189v68h313v-37z" />
    <glyph glyph-name="xi.salt" horiz-adv-x="422" 
d="M266 719q40 0 84.5 -15t78.5 -38l-20 -51l-54 15q-26 8 -44 10.5t-35 2.5h-3q-23 0 -45 -6t-38.5 -21t-26.5 -40.5t-10 -64.5v-2q0 -42 22 -92q5 -11 7 -12.5t8 -1.5h146v-68h-126q-35 0 -59 -23.5t-24 -83.5q0 -50 22.5 -77.5t56 -41.5t72.5 -20.5t72.5 -14.5t56 -23
t22.5 -47q0 -28 -11.5 -62.5t-33.5 -81.5l-43 -90l-63 24l32 84q15 39 23 64t8 38q0 16 -22.5 22t-56.5 11t-73.5 13t-73.5 27.5t-56.5 55.5t-22.5 96q0 35 8.5 62.5t21.5 48.5t28.5 35.5t30.5 22.5l-18 26q-22 32 -33.5 62.5t-11.5 71.5q0 45 17 79.5t45 58t65 35.5t77 12z
" />
    <glyph glyph-name="omicron" unicode="&#x3bf;" horiz-adv-x="553" 
d="M517 244q0 -58 -19 -104.5t-51.5 -79.5t-76 -50.5t-92.5 -17.5h-3q-49 0 -92.5 17.5t-76 50.5t-51.5 79.5t-19 104.5t19 104.5t51.5 79.5t76 50.5t92.5 17.5h3q49 0 92.5 -17.5t76 -50.5t51.5 -79.5t19 -104.5zM426 244q0 83 -38 126.5t-110 43.5h-3q-72 0 -110 -43.5
t-38 -126.5t38 -126.5t110 -43.5h3q72 0 110 43.5t38 126.5z" />
    <glyph glyph-name="pi" unicode="&#x3c0;" horiz-adv-x="602" 
d="M411 420h-226v-420h-88v420h-81v68h565v-68h-82v-348l87 -14v-44q-15 -7 -40 -12t-45 -5q-42 0 -66 24t-24 71v328z" />
    <glyph glyph-name="rho" unicode="&#x3c1;" horiz-adv-x="565" 
d="M529 244q0 -57 -15.5 -103.5t-44 -79.5t-68.5 -51t-88 -18q-32 0 -63.5 9t-66.5 28l-28 15v-273h-88v491q0 45 13.5 87.5t42 75t71.5 52t103 19.5q48 0 90 -16t73.5 -48t50 -79t18.5 -109zM438 244q0 47 -10 79.5t-28.5 53t-44.5 29.5t-58 9q-42 0 -69.5 -13.5t-43.5 -36
t-22.5 -51.5t-6.5 -60v-127q0 -9 3 -12.5t8 -6.5q26 -14 61.5 -24.5t69.5 -10.5q30 0 56 8t44.5 28t29.5 52.5t11 82.5z" />
    <glyph glyph-name="sigma" unicode="&#x3c3;" horiz-adv-x="585" 
d="M588 420h-79q-18 0 -42 1t-39 4q40 -20 64.5 -69.5t24.5 -113.5q0 -56 -18.5 -102t-51 -79t-76.5 -51t-95 -18t-94.5 18t-76 51t-51 79t-18.5 102q0 62 19.5 108t53 77t77.5 46t93 15h309v-68zM277 406q-72 0 -111 -41.5t-39 -122.5q0 -85 40.5 -126.5t109.5 -41.5
q72 0 110.5 43.5t38.5 124.5t-38.5 122.5t-110.5 41.5z" />
    <glyph glyph-name="sigma1" unicode="&#x3c2;" horiz-adv-x="481" 
d="M263 496q40 0 70.5 -11t53 -28.5t37 -39t21.5 -43.5l-57 -30l-25 25q-26 26 -50.5 37.5t-55.5 11.5q-60 0 -95 -44.5t-35 -125.5q0 -43 14 -70.5t37 -45t52.5 -27t60.5 -16t60.5 -11.5t52.5 -13t37 -22.5t14 -38.5q0 -28 -11.5 -62.5t-33.5 -81.5l-43 -90l-63 24l32 84
q15 39 23 64t8 38q0 17 -24.5 23t-61.5 11.5t-79.5 15.5t-79.5 34t-61.5 67t-24.5 115q0 55 17 101t47 79t71.5 51.5t91.5 18.5z" />
    <glyph glyph-name="tau" unicode="&#x3c4;" horiz-adv-x="473" 
d="M457 420h-193v-272q0 -15 1.5 -29.5t8 -26t18.5 -18.5t33 -7q14 0 34.5 3t39.5 8l26 7l19 -48q-22 -17 -60 -31t-76 -14q-37 0 -62 11.5t-40.5 32t-22.5 48.5t-7 61v275h-160v68h441v-68z" />
    <glyph glyph-name="upsilon" unicode="&#x3c5;" horiz-adv-x="577" 
d="M191 225q0 -30 5 -57.5t18.5 -48t38 -33t64.5 -12.5q37 0 62.5 13.5t41.5 37t22.5 56.5t6.5 72q0 29 -3.5 61t-8.5 63.5t-11.5 60t-12.5 50.5h90q10 -33 18 -71q7 -32 13 -75t6 -89q0 -120 -57 -190.5t-169 -70.5q-62 0 -103 20t-65 51.5t-34 70.5t-10 77v210l-87 14v44
q15 7 40 12t45 5q42 0 66 -24t24 -71v-176z" />
    <glyph glyph-name="phi" unicode="&#x3c6;" horiz-adv-x="839" 
d="M464 455l23 13q19 11 45.5 19.5t58.5 8.5q48 0 87 -19t66.5 -52.5t43 -80t15.5 -100.5q0 -55 -14 -101t-40.5 -79.5t-64.5 -52.5t-86 -19q-34 0 -63 9t-52 23l-19 11v-264h-88v264l-19 -11q-23 -13 -52.5 -22.5t-63.5 -9.5q-48 0 -86 19t-64.5 52.5t-40.5 79.5t-14 101
q0 54 15.5 100.5t43 80t66.5 52.5t87 19q32 0 58 -8.5t46 -19.5l24 -13v254h88v-254zM266 415q-71 0 -105 -48t-34 -123q0 -80 34 -126t99 -46q29 0 58 8.5t49 17.5q6 3 7.5 6t1.5 12v256q0 8 -1 11t-8 6q-20 11 -46 18.5t-55 7.5zM574 415q-29 0 -55 -7.5t-46 -18.5
q-6 -3 -7.5 -6t-1.5 -11v-256q0 -9 1.5 -12t7.5 -6q20 -9 49.5 -17.5t58.5 -8.5q64 0 98 46t34 126q0 75 -34 123t-105 48z" />
    <glyph glyph-name="phi1" unicode="&#x3d5;" horiz-adv-x="850" 
d="M594 496q48 0 88 -16.5t69.5 -48t46 -78.5t16.5 -109q0 -55 -14 -101t-40 -79.5t-62.5 -52.5t-80.5 -19q-33 0 -64 9t-54 21l-30 16v-267h-88v267l-30 -16q-28 -14 -56 -22t-54 -8q-49 0 -87 18.5t-64.5 52t-40 82t-13.5 108.5q0 37 5 72.5t13.5 66.5t18.5 56.5t20 43.5
l88 -13q-23 -44 -39 -105.5t-16 -120.5q0 -88 30.5 -134t104.5 -46q26 0 53.5 6.5t55.5 20.5q8 4 9.5 7t1.5 11v139q0 45 11 88t35.5 76.5t65.5 54t101 20.5zM594 415q-39 0 -63.5 -14.5t-38 -38t-18.5 -53t-5 -60.5v-131q0 -9 1 -12t8 -6q31 -15 62.5 -21.5t58.5 -6.5
q59 0 91.5 41t32.5 131q0 47 -9.5 79.5t-27 53t-41 29.5t-51.5 9z" />
    <glyph glyph-name="chi" unicode="&#x3c7;" horiz-adv-x="565" 
d="M93 496q45 0 68.5 -21.5t43.5 -71.5l83 -209l110 285q2 5 6 7t13 2h80l-150 -351l138 -303l72 -10v-44q-13 -7 -35 -12t-39 -5q-23 0 -38.5 5.5t-28 18.5t-24 36t-26.5 59l-83 199l-125 -302q-2 -5 -5.5 -6.5t-11.5 -1.5h-83l165 368l-122 282l-85 14v43q15 8 37.5 13
t39.5 5z" />
    <glyph glyph-name="psi" unicode="&#x3c8;" horiz-adv-x="752" 
d="M103 421l-87 14v44q15 7 40 12t45 5q42 0 66 -24t24 -71v-155q0 -41 5.5 -72t23.5 -52.5t51 -32.5t89 -11v631h88v-631q58 0 92.5 13t53.5 36.5t25 56t6 71.5q0 29 -3.5 60.5t-8.5 62.5t-11.5 59.5t-12.5 50.5h90q10 -33 18 -71q7 -32 13 -73.5t6 -86.5
q0 -61 -14.5 -109.5t-47 -82t-83.5 -51.5t-123 -18v-225h-88v225q-82 1 -132.5 21t-78 53.5t-37 77t-9.5 91.5v182z" />
    </font>
</defs>
</svg>
